<svg xmlns="http://www.w3.org/2000/svg" xmlns:xlink="http://www.w3.org/1999/xlink" width="500" zoomAndPan="magnify" viewBox="0 0 375 374.999991" height="500" preserveAspectRatio="xMidYMid meet" version="1.0"><defs><clipPath id="fbcbe6d541"><path d="M 6 3 L 256 3 L 256 161 L 6 161 Z M 6 3 " clip-rule="nonzero"/></clipPath><clipPath id="3e6a332fad"><path d="M -19.292969 102.683594 L 131.179688 -47.789062 L 297.328125 118.359375 L 146.855469 268.828125 Z M -19.292969 102.683594 " clip-rule="nonzero"/></clipPath><clipPath id="9475870049"><path d="M -19.292969 102.683594 L 131.179688 -47.789062 L 297.328125 118.359375 L 146.855469 268.828125 Z M -19.292969 102.683594 " clip-rule="nonzero"/></clipPath><clipPath id="9131895d42"><path d="M 187.792969 71.023438 C 186.398438 69.628906 184.957031 68.289062 183.460938 67 C 181.96875 65.710938 180.429688 64.480469 178.84375 63.308594 C 177.257812 62.132812 175.632812 61.019531 173.964844 59.964844 C 172.296875 58.910156 170.59375 57.917969 168.851562 56.992188 C 167.109375 56.0625 165.335938 55.199219 163.53125 54.402344 C 161.726562 53.605469 159.894531 52.875 158.035156 52.214844 C 156.175781 51.550781 154.292969 50.960938 152.390625 50.4375 C 150.484375 49.914062 148.566406 49.460938 146.628906 49.078125 C 144.691406 48.699219 142.742188 48.386719 140.78125 48.148438 C 138.816406 47.910156 136.851562 47.746094 134.875 47.652344 C 132.902344 47.558594 130.929688 47.539062 128.953125 47.59375 C 126.976562 47.644531 125.003906 47.769531 123.035156 47.96875 C 121.070312 48.167969 119.113281 48.4375 117.164062 48.777344 C 115.214844 49.121094 113.28125 49.535156 111.363281 50.019531 C 109.445312 50.5 107.546875 51.054688 105.667969 51.679688 C 103.792969 52.304688 101.9375 52.996094 100.109375 53.757812 C 98.285156 54.515625 96.484375 55.34375 94.71875 56.234375 C 92.953125 57.128906 91.21875 58.082031 89.523438 59.101562 C 87.824219 60.121094 86.167969 61.203125 84.546875 62.34375 C 82.929688 63.488281 81.355469 64.6875 79.824219 65.941406 C 78.292969 67.199219 76.8125 68.511719 75.378906 69.878906 C 73.945312 71.242188 72.5625 72.660156 71.230469 74.128906 C 69.902344 75.59375 68.625 77.109375 67.40625 78.671875 C 66.1875 80.230469 65.027344 81.835938 63.925781 83.480469 C 62.824219 85.125 61.785156 86.808594 60.808594 88.53125 C 59.828125 90.253906 58.917969 92.007812 58.066406 93.796875 C 57.21875 95.585938 56.4375 97.402344 55.722656 99.25 C 55.007812 101.09375 54.359375 102.964844 53.785156 104.855469 C 53.207031 106.75 52.699219 108.660156 52.261719 110.589844 C 51.824219 112.519531 51.460938 114.460938 51.167969 116.417969 C 50.871094 118.371094 50.652344 120.335938 50.5 122.308594 C 50.351562 124.277344 50.277344 126.253906 50.273438 128.230469 L 56.105469 128.210938 C 56.105469 126.988281 56.140625 125.769531 56.203125 124.546875 C 56.265625 123.328125 56.359375 122.109375 56.480469 120.894531 C 56.601562 119.675781 56.753906 118.464844 56.9375 117.253906 C 57.121094 116.046875 57.332031 114.839844 57.570312 113.640625 C 57.8125 112.445312 58.082031 111.25 58.382812 110.066406 C 58.683594 108.878906 59.011719 107.699219 59.367188 106.53125 C 59.726562 105.359375 60.113281 104.199219 60.527344 103.050781 C 60.941406 101.898438 61.382812 100.757812 61.851562 99.628906 C 62.324219 98.496094 62.820312 97.378906 63.34375 96.273438 C 63.871094 95.167969 64.421875 94.074219 65 92.996094 C 65.578125 91.917969 66.183594 90.855469 66.8125 89.804688 C 67.445312 88.753906 68.101562 87.722656 68.78125 86.703125 C 69.464844 85.6875 70.167969 84.6875 70.898438 83.703125 C 71.628906 82.722656 72.382812 81.757812 73.160156 80.8125 C 73.9375 79.863281 74.738281 78.9375 75.558594 78.03125 C 76.382812 77.125 77.226562 76.238281 78.09375 75.371094 C 78.960938 74.507812 79.847656 73.664062 80.753906 72.839844 C 81.660156 72.019531 82.585938 71.21875 83.535156 70.441406 C 84.480469 69.664062 85.445312 68.910156 86.429688 68.179688 C 87.410156 67.453125 88.410156 66.746094 89.429688 66.066406 C 90.445312 65.382812 91.480469 64.730469 92.53125 64.097656 C 93.578125 63.46875 94.644531 62.863281 95.722656 62.285156 C 96.800781 61.707031 97.894531 61.15625 99 60.632812 C 100.105469 60.105469 101.222656 59.609375 102.355469 59.140625 C 103.484375 58.671875 104.625 58.230469 105.777344 57.816406 C 106.929688 57.402344 108.089844 57.015625 109.257812 56.660156 C 110.429688 56.300781 111.605469 55.972656 112.792969 55.675781 C 113.980469 55.375 115.171875 55.105469 116.371094 54.863281 C 117.570312 54.625 118.773438 54.414062 119.984375 54.230469 C 121.191406 54.050781 122.40625 53.898438 123.621094 53.777344 C 124.839844 53.652344 126.054688 53.5625 127.277344 53.5 C 128.496094 53.4375 129.71875 53.40625 130.941406 53.402344 C 132.164062 53.398438 133.382812 53.425781 134.605469 53.484375 C 135.824219 53.542969 137.042969 53.628906 138.257812 53.746094 C 139.476562 53.867188 140.6875 54.011719 141.894531 54.191406 C 143.105469 54.367188 144.308594 54.574219 145.503906 54.808594 C 146.703125 55.046875 147.894531 55.3125 149.078125 55.605469 C 150.261719 55.898438 151.441406 56.222656 152.609375 56.574219 C 153.777344 56.929688 154.9375 57.308594 156.085938 57.71875 C 157.234375 58.128906 158.375 58.566406 159.503906 59.03125 C 160.628906 59.496094 161.746094 59.988281 162.847656 60.511719 C 163.953125 61.03125 165.042969 61.578125 166.117188 62.152344 C 167.195312 62.726562 168.257812 63.324219 169.304688 63.953125 C 170.351562 64.578125 171.382812 65.230469 172.394531 65.90625 C 173.410156 66.582031 174.40625 67.285156 175.386719 68.011719 C 176.367188 68.738281 177.328125 69.488281 178.269531 70.261719 C 179.214844 71.035156 180.136719 71.832031 181.039062 72.648438 C 181.945312 73.46875 182.828125 74.308594 183.6875 75.171875 C 184.550781 76.035156 185.390625 76.917969 186.210938 77.820312 C 187.027344 78.722656 187.824219 79.648438 188.597656 80.589844 C 189.371094 81.535156 190.121094 82.496094 190.847656 83.476562 C 191.570312 84.457031 192.273438 85.453125 192.949219 86.46875 C 193.625 87.484375 194.277344 88.515625 194.902344 89.5625 C 195.527344 90.609375 196.128906 91.667969 196.703125 92.746094 C 197.277344 93.824219 197.824219 94.914062 198.34375 96.015625 C 198.863281 97.121094 199.355469 98.234375 199.820312 99.363281 C 200.285156 100.492188 200.722656 101.632812 201.132812 102.78125 C 201.539062 103.929688 201.921875 105.089844 202.273438 106.257812 C 202.625 107.425781 202.949219 108.605469 203.242188 109.789062 C 203.535156 110.972656 203.800781 112.164062 204.039062 113.363281 C 204.273438 114.5625 204.480469 115.765625 204.65625 116.972656 C 204.832031 118.179688 204.980469 119.394531 205.097656 120.609375 C 205.214844 121.824219 205.300781 123.042969 205.355469 124.265625 C 205.414062 125.484375 205.441406 126.707031 205.4375 127.925781 L 205.371094 160.875 L 211.203125 160.855469 L 211.226562 127.910156 C 211.242188 125.273438 211.125 122.640625 210.878906 120.015625 C 210.632812 117.390625 210.257812 114.785156 209.753906 112.199219 C 209.25 109.613281 208.617188 107.054688 207.859375 104.535156 C 207.105469 102.011719 206.222656 99.53125 205.21875 97.097656 C 204.21875 94.660156 203.097656 92.28125 201.855469 89.957031 C 200.617188 87.636719 199.265625 85.378906 197.804688 83.191406 C 196.339844 81.003906 194.773438 78.890625 193.101562 76.859375 C 191.429688 74.828125 189.660156 72.882812 187.792969 71.023438 Z M 167.097656 91.722656 C 165.316406 89.945312 163.414062 88.304688 161.394531 86.808594 C 159.371094 85.308594 157.25 83.96875 155.027344 82.785156 C 152.804688 81.601562 150.507812 80.585938 148.136719 79.742188 C 145.765625 78.898438 143.339844 78.230469 140.871094 77.746094 C 138.398438 77.257812 135.902344 76.957031 133.382812 76.835938 C 130.863281 76.71875 128.351562 76.785156 125.839844 77.039062 C 123.332031 77.289062 120.851562 77.726562 118.40625 78.34375 C 115.957031 78.960938 113.566406 79.753906 111.234375 80.722656 C 108.902344 81.695312 106.65625 82.828125 104.488281 84.128906 C 102.324219 85.429688 100.265625 86.882812 98.3125 88.488281 C 96.359375 90.089844 94.535156 91.828125 92.835938 93.699219 C 91.136719 95.570312 89.585938 97.558594 88.179688 99.65625 C 86.777344 101.757812 85.53125 103.945312 84.449219 106.230469 C 83.363281 108.511719 82.453125 110.859375 81.71875 113.273438 C 80.980469 115.6875 80.425781 118.144531 80.046875 120.636719 C 79.671875 123.132812 79.480469 125.640625 79.476562 128.164062 L 85.3125 128.152344 C 85.316406 126.664062 85.394531 125.175781 85.542969 123.695312 C 85.691406 122.214844 85.910156 120.742188 86.203125 119.28125 C 86.496094 117.820312 86.859375 116.375 87.296875 114.953125 C 87.730469 113.527344 88.234375 112.125 88.804688 110.746094 C 89.378906 109.371094 90.015625 108.023438 90.722656 106.710938 C 91.425781 105.394531 92.191406 104.117188 93.023438 102.878906 C 93.851562 101.640625 94.738281 100.441406 95.6875 99.289062 C 96.632812 98.136719 97.632812 97.035156 98.6875 95.976562 C 99.742188 94.921875 100.847656 93.921875 102 92.976562 C 103.152344 92.027344 104.347656 91.140625 105.589844 90.308594 C 106.828125 89.480469 108.105469 88.714844 109.417969 88.007812 C 110.734375 87.304688 112.078125 86.664062 113.457031 86.09375 C 114.832031 85.519531 116.234375 85.015625 117.660156 84.582031 C 119.085938 84.144531 120.527344 83.78125 121.988281 83.488281 C 123.449219 83.195312 124.921875 82.972656 126.402344 82.824219 C 127.882812 82.675781 129.371094 82.601562 130.859375 82.597656 C 132.347656 82.59375 133.832031 82.664062 135.3125 82.808594 C 136.792969 82.949219 138.265625 83.164062 139.722656 83.453125 C 141.183594 83.738281 142.625 84.097656 144.050781 84.527344 C 145.472656 84.957031 146.871094 85.457031 148.246094 86.023438 C 149.621094 86.589844 150.964844 87.222656 152.273438 87.921875 C 153.585938 88.621094 154.859375 89.382812 156.09375 90.207031 C 157.332031 91.03125 158.523438 91.917969 159.671875 92.859375 C 160.820312 93.800781 161.921875 94.796875 162.96875 95.847656 C 164.019531 96.898438 165.015625 98 165.957031 99.148438 C 166.898438 100.296875 167.785156 101.488281 168.609375 102.726562 C 169.433594 103.960938 170.191406 105.234375 170.890625 106.546875 C 171.589844 107.859375 172.222656 109.203125 172.789062 110.578125 C 173.355469 111.953125 173.851562 113.351562 174.28125 114.773438 C 174.710938 116.199219 175.070312 117.640625 175.355469 119.101562 C 175.640625 120.558594 175.855469 122.03125 176 123.511719 C 176.140625 124.992188 176.210938 126.476562 176.207031 127.964844 L 176.136719 160.957031 L 181.96875 160.9375 L 182.039062 127.949219 C 182.054688 124.582031 181.742188 121.246094 181.09375 117.941406 C 180.449219 114.640625 179.484375 111.433594 178.203125 108.324219 C 176.917969 105.214844 175.34375 102.265625 173.472656 99.46875 C 171.605469 96.675781 169.480469 94.09375 167.097656 91.722656 Z M 177.464844 81.355469 C 176.324219 80.214844 175.140625 79.117188 173.917969 78.066406 C 172.695312 77.011719 171.4375 76.003906 170.136719 75.042969 C 168.839844 74.085938 167.511719 73.175781 166.144531 72.3125 C 164.78125 71.449219 163.386719 70.640625 161.960938 69.882812 C 160.539062 69.121094 159.085938 68.417969 157.609375 67.765625 C 156.132812 67.113281 154.632812 66.515625 153.113281 65.976562 C 151.589844 65.433594 150.050781 64.949219 148.492188 64.523438 C 146.933594 64.09375 145.363281 63.722656 143.777344 63.414062 C 142.195312 63.101562 140.597656 62.847656 138.992188 62.652344 C 137.390625 62.457031 135.78125 62.324219 134.164062 62.246094 C 132.550781 62.171875 130.933594 62.15625 129.316406 62.199219 C 127.703125 62.242188 126.089844 62.34375 124.480469 62.503906 C 122.867188 62.667969 121.265625 62.886719 119.671875 63.167969 C 118.078125 63.449219 116.5 63.785156 114.929688 64.183594 C 113.359375 64.578125 111.804688 65.03125 110.269531 65.542969 C 108.734375 66.050781 107.21875 66.617188 105.722656 67.238281 C 104.226562 67.859375 102.757812 68.535156 101.308594 69.265625 C 99.863281 69.996094 98.445312 70.777344 97.058594 71.613281 C 95.667969 72.445312 94.3125 73.328125 92.988281 74.261719 C 91.664062 75.195312 90.375 76.175781 89.125 77.207031 C 87.871094 78.234375 86.660156 79.304688 85.484375 80.421875 C 84.3125 81.539062 83.179688 82.699219 82.089844 83.898438 C 81 85.097656 79.957031 86.335938 78.960938 87.613281 C 77.960938 88.890625 77.011719 90.199219 76.109375 91.546875 C 75.210938 92.894531 74.359375 94.269531 73.558594 95.679688 C 72.757812 97.085938 72.007812 98.523438 71.3125 99.984375 C 70.617188 101.449219 69.976562 102.933594 69.390625 104.445312 C 68.804688 105.953125 68.277344 107.480469 67.804688 109.03125 C 67.328125 110.578125 66.914062 112.140625 66.554688 113.71875 C 66.195312 115.296875 65.894531 116.886719 65.65625 118.488281 C 65.414062 120.085938 65.230469 121.691406 65.105469 123.304688 C 64.984375 124.917969 64.917969 126.53125 64.914062 128.148438 L 70.710938 128.179688 C 70.761719 126.246094 70.90625 124.316406 71.144531 122.394531 C 71.382812 120.472656 71.714844 118.5625 72.136719 116.671875 C 72.558594 114.78125 73.074219 112.914062 73.675781 111.070312 C 74.277344 109.230469 74.96875 107.417969 75.746094 105.644531 C 76.523438 103.867188 77.386719 102.132812 78.332031 100.4375 C 79.277344 98.742188 80.300781 97.097656 81.40625 95.503906 C 82.507812 93.90625 83.6875 92.367188 84.941406 90.886719 C 86.191406 89.40625 87.511719 87.984375 88.902344 86.632812 C 90.289062 85.277344 91.742188 83.992188 93.253906 82.777344 C 94.765625 81.558594 96.332031 80.421875 97.957031 79.355469 C 99.578125 78.292969 101.246094 77.308594 102.964844 76.40625 C 104.679688 75.503906 106.4375 74.683594 108.230469 73.949219 C 110.027344 73.21875 111.851562 72.570312 113.710938 72.015625 C 115.566406 71.457031 117.445312 70.992188 119.347656 70.613281 C 121.246094 70.238281 123.160156 69.957031 125.089844 69.765625 C 127.015625 69.574219 128.949219 69.476562 130.886719 69.472656 C 132.820312 69.46875 134.753906 69.558594 136.679688 69.742188 C 138.609375 69.925781 140.519531 70.199219 142.421875 70.566406 C 144.320312 70.933594 146.195312 71.394531 148.050781 71.945312 C 149.90625 72.492188 151.730469 73.132812 153.519531 73.859375 C 155.3125 74.585938 157.066406 75.394531 158.777344 76.292969 C 160.492188 77.1875 162.15625 78.164062 163.773438 79.222656 C 165.390625 80.28125 166.953125 81.414062 168.460938 82.621094 C 169.96875 83.832031 171.414062 85.109375 172.796875 86.460938 C 174.179688 87.808594 175.496094 89.222656 176.742188 90.699219 C 177.988281 92.175781 179.15625 93.710938 180.253906 95.300781 C 181.351562 96.890625 182.371094 98.53125 183.308594 100.222656 C 184.246094 101.914062 185.101562 103.644531 185.871094 105.417969 C 186.640625 107.191406 187.324219 109 187.917969 110.839844 C 188.515625 112.679688 189.019531 114.542969 189.433594 116.433594 C 189.847656 118.324219 190.171875 120.226562 190.402344 122.148438 C 190.632812 124.070312 190.769531 126 190.8125 127.9375 L 190.742188 160.902344 L 196.574219 160.886719 L 196.644531 127.917969 C 196.664062 123.589844 196.257812 119.304688 195.429688 115.0625 C 194.597656 110.820312 193.359375 106.699219 191.710938 102.707031 C 190.0625 98.710938 188.039062 94.917969 185.636719 91.328125 C 183.234375 87.738281 180.503906 84.421875 177.441406 81.378906 Z M 208.515625 50.304688 C 207.246094 49.039062 205.949219 47.804688 204.621094 46.601562 C 203.292969 45.398438 201.9375 44.230469 200.550781 43.09375 C 199.164062 41.960938 197.75 40.859375 196.3125 39.792969 C 194.871094 38.726562 193.40625 37.695312 191.914062 36.703125 C 190.421875 35.707031 188.910156 34.753906 187.371094 33.832031 C 185.832031 32.914062 184.273438 32.03125 182.691406 31.191406 C 181.109375 30.347656 179.507812 29.542969 177.886719 28.78125 C 176.261719 28.015625 174.625 27.292969 172.964844 26.609375 C 171.308594 25.925781 169.636719 25.285156 167.945312 24.683594 C 166.257812 24.085938 164.554688 23.523438 162.835938 23.007812 C 161.117188 22.492188 159.390625 22.015625 157.648438 21.585938 C 155.910156 21.152344 154.15625 20.761719 152.398438 20.417969 C 150.636719 20.070312 148.871094 19.769531 147.09375 19.507812 C 145.320312 19.25 143.539062 19.035156 141.75 18.863281 C 139.964844 18.691406 138.175781 18.5625 136.382812 18.480469 C 134.589844 18.394531 132.796875 18.355469 131 18.359375 C 129.203125 18.363281 127.410156 18.414062 125.617188 18.503906 C 123.824219 18.597656 122.03125 18.734375 120.246094 18.914062 C 118.460938 19.09375 116.675781 19.316406 114.902344 19.585938 C 113.125 19.851562 111.355469 20.164062 109.59375 20.519531 C 107.832031 20.875 106.082031 21.269531 104.339844 21.710938 C 102.597656 22.152344 100.867188 22.632812 99.144531 23.160156 C 97.425781 23.683594 95.722656 24.25 94.03125 24.859375 C 92.339844 25.46875 90.664062 26.117188 89.003906 26.808594 C 87.34375 27.5 85.699219 28.230469 84.078125 29.003906 C 82.453125 29.773438 80.847656 30.585938 79.261719 31.433594 C 77.679688 32.285156 76.113281 33.171875 74.574219 34.101562 C 73.03125 35.027344 71.511719 35.992188 70.019531 36.992188 C 68.523438 37.992188 67.054688 39.027344 65.609375 40.101562 C 64.167969 41.175781 62.75 42.28125 61.359375 43.425781 C 59.96875 44.566406 58.609375 45.742188 57.277344 46.949219 C 55.941406 48.160156 54.640625 49.398438 53.367188 50.671875 C 50.816406 53.210938 48.390625 55.871094 46.101562 58.648438 C 43.808594 61.425781 41.65625 64.308594 39.648438 67.296875 C 37.644531 70.285156 35.785156 73.367188 34.082031 76.535156 C 32.378906 79.707031 30.835938 82.957031 29.453125 86.277344 C 28.070312 89.601562 26.855469 92.984375 25.804688 96.425781 C 24.757812 99.867188 23.878906 103.351562 23.175781 106.875 C 22.472656 110.402344 21.941406 113.957031 21.589844 117.535156 C 21.234375 121.113281 21.058594 124.695312 21.0625 128.289062 L 26.871094 128.25 C 26.875 126.550781 26.921875 124.851562 27.007812 123.15625 C 27.09375 121.457031 27.222656 119.761719 27.394531 118.070312 C 27.5625 116.378906 27.777344 114.691406 28.027344 113.007812 C 28.28125 111.328125 28.574219 109.652344 28.910156 107.984375 C 29.246094 106.316406 29.621094 104.65625 30.039062 103.007812 C 30.453125 101.359375 30.910156 99.71875 31.40625 98.09375 C 31.90625 96.464844 32.441406 94.851562 33.015625 93.25 C 33.59375 91.648438 34.207031 90.058594 34.863281 88.488281 C 35.515625 86.917969 36.207031 85.363281 36.9375 83.824219 C 37.667969 82.285156 38.433594 80.765625 39.238281 79.265625 C 40.042969 77.765625 40.882812 76.285156 41.761719 74.824219 C 42.636719 73.363281 43.550781 71.925781 44.496094 70.511719 C 45.445312 69.097656 46.425781 67.703125 47.441406 66.335938 C 48.457031 64.96875 49.503906 63.628906 50.585938 62.3125 C 51.667969 60.996094 52.78125 59.707031 53.925781 58.445312 C 55.070312 57.183594 56.242188 55.949219 57.449219 54.746094 C 58.652344 53.542969 59.886719 52.367188 61.148438 51.222656 C 62.410156 50.078125 63.699219 48.964844 65.015625 47.886719 C 66.332031 46.804688 67.671875 45.753906 69.039062 44.738281 C 70.40625 43.726562 71.796875 42.742188 73.214844 41.796875 C 74.628906 40.847656 76.066406 39.9375 77.527344 39.058594 C 78.984375 38.183594 80.464844 37.34375 81.96875 36.539062 C 83.46875 35.734375 84.988281 34.964844 86.523438 34.234375 C 88.0625 33.507812 89.617188 32.8125 91.191406 32.160156 C 92.761719 31.507812 94.347656 30.890625 95.949219 30.316406 C 97.550781 29.738281 99.167969 29.203125 100.792969 28.707031 C 102.421875 28.210938 104.058594 27.753906 105.710938 27.335938 C 107.359375 26.917969 109.019531 26.542969 110.6875 26.207031 C 112.355469 25.875 114.027344 25.578125 115.710938 25.328125 C 117.394531 25.074219 119.078125 24.863281 120.773438 24.691406 C 122.464844 24.523438 124.160156 24.394531 125.855469 24.304688 C 127.554688 24.21875 129.253906 24.175781 130.953125 24.171875 C 132.652344 24.167969 134.351562 24.207031 136.050781 24.285156 C 137.746094 24.363281 139.441406 24.488281 141.132812 24.648438 C 142.824219 24.8125 144.511719 25.015625 146.191406 25.261719 C 147.871094 25.507812 149.546875 25.796875 151.210938 26.125 C 152.878906 26.453125 154.535156 26.820312 156.183594 27.230469 C 157.832031 27.640625 159.46875 28.089844 161.09375 28.582031 C 162.71875 29.070312 164.332031 29.601562 165.933594 30.171875 C 167.53125 30.738281 169.117188 31.347656 170.683594 31.996094 C 172.253906 32.640625 173.804688 33.328125 175.339844 34.050781 C 176.875 34.773438 178.394531 35.535156 179.890625 36.335938 C 181.386719 37.132812 182.863281 37.96875 184.320312 38.839844 C 185.777344 39.707031 187.210938 40.613281 188.621094 41.554688 C 190.035156 42.496094 191.421875 43.472656 192.785156 44.484375 C 194.148438 45.492188 195.484375 46.535156 196.796875 47.613281 C 198.109375 48.6875 199.394531 49.792969 200.648438 50.933594 C 201.90625 52.074219 203.136719 53.242188 204.335938 54.441406 C 205.535156 55.640625 206.703125 56.867188 207.84375 58.125 C 208.980469 59.382812 210.089844 60.667969 211.164062 61.980469 C 212.238281 63.292969 213.28125 64.628906 214.292969 65.992188 C 215.300781 67.355469 216.277344 68.742188 217.21875 70.152344 C 218.160156 71.566406 219.066406 73 219.9375 74.457031 C 220.808594 75.910156 221.644531 77.386719 222.441406 78.886719 C 223.238281 80.382812 224 81.898438 224.722656 83.433594 C 225.449219 84.96875 226.132812 86.523438 226.78125 88.089844 C 227.429688 89.660156 228.035156 91.246094 228.605469 92.84375 C 229.175781 94.441406 229.703125 96.054688 230.195312 97.679688 C 230.683594 99.304688 231.136719 100.945312 231.542969 102.589844 C 231.953125 104.238281 232.324219 105.898438 232.652344 107.5625 C 232.980469 109.230469 233.265625 110.902344 233.511719 112.585938 C 233.757812 114.265625 233.964844 115.953125 234.125 117.644531 C 234.289062 119.335938 234.410156 121.027344 234.492188 122.726562 C 234.570312 124.425781 234.609375 126.121094 234.605469 127.824219 L 234.558594 160.757812 L 240.390625 160.738281 L 240.460938 127.828125 C 240.476562 124.234375 240.316406 120.648438 239.980469 117.070312 C 239.640625 113.492188 239.128906 109.945312 238.441406 106.417969 C 237.75 102.894531 236.890625 99.414062 235.855469 95.976562 C 234.820312 92.539062 233.621094 89.160156 232.253906 85.84375 C 230.882812 82.523438 229.355469 79.285156 227.664062 76.117188 C 225.976562 72.953125 224.132812 69.878906 222.136719 66.898438 C 220.144531 63.917969 218.007812 61.042969 215.726562 58.273438 C 213.445312 55.503906 211.035156 52.855469 208.492188 50.328125 Z M 156.769531 102.046875 C 155.5 100.777344 154.140625 99.605469 152.691406 98.53125 C 151.246094 97.460938 149.726562 96.503906 148.140625 95.65625 C 146.550781 94.808594 144.90625 94.085938 143.210938 93.480469 C 141.515625 92.875 139.78125 92.402344 138.011719 92.054688 C 136.246094 91.703125 134.460938 91.488281 132.660156 91.402344 C 130.859375 91.320312 129.058594 91.367188 127.265625 91.546875 C 125.46875 91.726562 123.695312 92.039062 121.945312 92.480469 C 120.195312 92.921875 118.488281 93.492188 116.820312 94.183594 C 115.152344 94.878906 113.542969 95.691406 111.996094 96.621094 C 110.445312 97.550781 108.972656 98.589844 107.578125 99.734375 C 106.179688 100.882812 104.875 102.125 103.660156 103.464844 C 102.445312 104.804688 101.335938 106.222656 100.332031 107.722656 C 99.324219 109.226562 98.4375 110.792969 97.660156 112.425781 C 96.886719 114.054688 96.234375 115.734375 95.707031 117.460938 C 95.179688 119.1875 94.78125 120.945312 94.511719 122.730469 C 94.246094 124.511719 94.109375 126.308594 94.105469 128.109375 L 99.9375 128.105469 C 99.9375 127.09375 99.988281 126.085938 100.089844 125.082031 C 100.191406 124.074219 100.34375 123.078125 100.539062 122.085938 C 100.738281 121.09375 100.988281 120.113281 101.28125 119.148438 C 101.578125 118.179688 101.917969 117.230469 102.308594 116.296875 C 102.695312 115.363281 103.128906 114.449219 103.609375 113.558594 C 104.085938 112.664062 104.605469 111.796875 105.167969 110.957031 C 105.734375 110.117188 106.335938 109.304688 106.976562 108.523438 C 107.621094 107.738281 108.300781 106.992188 109.015625 106.273438 C 109.730469 105.558594 110.480469 104.878906 111.261719 104.238281 C 112.042969 103.59375 112.855469 102.992188 113.699219 102.429688 C 114.539062 101.867188 115.40625 101.347656 116.296875 100.867188 C 117.1875 100.390625 118.101562 99.957031 119.035156 99.566406 C 119.96875 99.179688 120.921875 98.835938 121.886719 98.542969 C 122.855469 98.246094 123.835938 98 124.824219 97.800781 C 125.816406 97.601562 126.816406 97.453125 127.820312 97.351562 C 128.824219 97.25 129.832031 97.199219 130.84375 97.195312 C 131.855469 97.195312 132.863281 97.242188 133.867188 97.339844 C 134.871094 97.433594 135.871094 97.582031 136.859375 97.777344 C 137.851562 97.972656 138.828125 98.214844 139.792969 98.503906 C 140.761719 98.796875 141.710938 99.132812 142.644531 99.519531 C 143.574219 99.902344 144.484375 100.332031 145.375 100.808594 C 146.265625 101.28125 147.128906 101.796875 147.96875 102.359375 C 148.808594 102.917969 149.617188 103.515625 150.398438 104.15625 C 151.175781 104.796875 151.921875 105.472656 152.636719 106.183594 C 153.347656 106.898438 154.023438 107.644531 154.664062 108.421875 C 155.300781 109.203125 155.902344 110.011719 156.460938 110.851562 C 157.019531 111.6875 157.539062 112.554688 158.011719 113.441406 C 158.484375 114.332031 158.914062 115.246094 159.300781 116.175781 C 159.683594 117.109375 160.023438 118.058594 160.3125 119.023438 C 160.605469 119.992188 160.847656 120.96875 161.042969 121.960938 C 161.238281 122.949219 161.382812 123.945312 161.480469 124.953125 C 161.578125 125.957031 161.625 126.964844 161.625 127.976562 L 161.511719 160.988281 L 167.34375 160.957031 L 167.414062 127.957031 C 167.425781 125.550781 167.199219 123.167969 166.738281 120.808594 C 166.277344 118.449219 165.589844 116.15625 164.675781 113.9375 C 163.761719 111.714844 162.636719 109.605469 161.300781 107.609375 C 159.96875 105.609375 158.449219 103.765625 156.75 102.070312 Z M 198.164062 60.65625 C 196.515625 59.007812 194.808594 57.421875 193.042969 55.898438 C 191.277344 54.378906 189.460938 52.921875 187.585938 51.535156 C 185.714844 50.144531 183.792969 48.828125 181.820312 47.582031 C 179.851562 46.335938 177.835938 45.164062 175.78125 44.066406 C 173.722656 42.96875 171.628906 41.949219 169.496094 41.007812 C 167.359375 40.066406 165.195312 39.203125 163 38.417969 C 160.800781 37.636719 158.578125 36.9375 156.328125 36.316406 C 154.078125 35.699219 151.808594 35.164062 149.519531 34.710938 C 147.226562 34.261719 144.925781 33.894531 142.605469 33.613281 C 140.289062 33.332031 137.964844 33.136719 135.632812 33.027344 C 133.296875 32.917969 130.964844 32.894531 128.628906 32.953125 C 126.292969 33.015625 123.964844 33.164062 121.640625 33.398438 C 119.3125 33.632812 117 33.949219 114.699219 34.355469 C 112.394531 34.757812 110.109375 35.246094 107.84375 35.820312 C 105.578125 36.390625 103.332031 37.046875 101.113281 37.785156 C 98.894531 38.519531 96.707031 39.339844 94.546875 40.238281 C 92.386719 41.136719 90.261719 42.113281 88.171875 43.167969 C 86.085938 44.222656 84.039062 45.351562 82.03125 46.558594 C 80.027344 47.761719 78.066406 49.039062 76.152344 50.386719 C 74.242188 51.738281 72.382812 53.15625 70.574219 54.640625 C 68.765625 56.125 67.011719 57.675781 65.316406 59.292969 C 63.621094 60.90625 61.988281 62.578125 60.417969 64.3125 C 58.847656 66.046875 57.339844 67.839844 55.898438 69.683594 C 54.457031 71.527344 53.085938 73.421875 51.785156 75.367188 C 50.484375 77.3125 49.257812 79.304688 48.101562 81.335938 C 46.945312 83.371094 45.867188 85.449219 44.867188 87.5625 C 43.863281 89.675781 42.9375 91.824219 42.09375 94.003906 C 41.25 96.183594 40.488281 98.394531 39.804688 100.632812 C 39.121094 102.867188 38.523438 105.125 38.007812 107.40625 C 37.492188 109.6875 37.0625 111.984375 36.714844 114.292969 C 36.367188 116.605469 36.105469 118.925781 35.929688 121.257812 C 35.753906 123.585938 35.664062 125.917969 35.660156 128.253906 L 41.5 128.242188 C 41.515625 126.789062 41.566406 125.339844 41.652344 123.886719 C 41.742188 122.4375 41.863281 120.992188 42.019531 119.546875 C 42.175781 118.101562 42.371094 116.660156 42.597656 115.226562 C 42.824219 113.789062 43.089844 112.359375 43.386719 110.9375 C 43.683594 109.515625 44.015625 108.097656 44.382812 106.691406 C 44.75 105.285156 45.148438 103.886719 45.582031 102.5 C 46.019531 101.113281 46.488281 99.734375 46.988281 98.371094 C 47.488281 97.003906 48.023438 95.652344 48.59375 94.3125 C 49.160156 92.972656 49.761719 91.648438 50.390625 90.339844 C 51.023438 89.027344 51.6875 87.734375 52.382812 86.457031 C 53.078125 85.175781 53.804688 83.917969 54.5625 82.671875 C 55.320312 81.429688 56.105469 80.207031 56.921875 79 C 57.738281 77.796875 58.582031 76.613281 59.457031 75.449219 C 60.332031 74.285156 61.230469 73.140625 62.160156 72.023438 C 63.089844 70.902344 64.046875 69.804688 65.03125 68.730469 C 66.011719 67.65625 67.019531 66.609375 68.054688 65.582031 C 69.089844 64.558594 70.148438 63.558594 71.230469 62.585938 C 72.3125 61.613281 73.417969 60.667969 74.546875 59.746094 C 75.675781 58.828125 76.824219 57.9375 77.996094 57.074219 C 79.167969 56.210938 80.359375 55.375 81.570312 54.570312 C 82.785156 53.765625 84.015625 52.988281 85.265625 52.242188 C 86.515625 51.496094 87.78125 50.78125 89.066406 50.097656 C 90.351562 49.414062 91.652344 48.761719 92.96875 48.144531 C 94.28125 47.523438 95.613281 46.933594 96.957031 46.378906 C 98.300781 45.824219 99.660156 45.300781 101.027344 44.8125 C 102.398438 44.320312 103.777344 43.867188 105.171875 43.441406 C 106.5625 43.019531 107.964844 42.632812 109.375 42.277344 C 110.785156 41.925781 112.203125 41.605469 113.628906 41.320312 C 115.054688 41.035156 116.484375 40.785156 117.921875 40.570312 C 119.359375 40.355469 120.800781 40.175781 122.246094 40.03125 C 123.691406 39.886719 125.140625 39.777344 126.59375 39.703125 C 128.042969 39.632812 129.496094 39.59375 130.949219 39.589844 C 132.402344 39.585938 133.851562 39.617188 135.304688 39.6875 C 136.753906 39.753906 138.203125 39.859375 139.648438 39.996094 C 141.09375 40.136719 142.535156 40.308594 143.96875 40.519531 C 145.40625 40.726562 146.835938 40.972656 148.261719 41.25 C 149.6875 41.527344 151.101562 41.84375 152.511719 42.191406 C 153.921875 42.539062 155.320312 42.921875 156.710938 43.335938 C 158.097656 43.753906 159.476562 44.203125 160.847656 44.6875 C 162.214844 45.171875 163.566406 45.6875 164.910156 46.238281 C 166.253906 46.789062 167.578125 47.371094 168.894531 47.988281 C 170.207031 48.601562 171.503906 49.25 172.785156 49.925781 C 174.066406 50.605469 175.332031 51.316406 176.578125 52.054688 C 177.824219 52.796875 179.050781 53.566406 180.261719 54.367188 C 181.46875 55.167969 182.660156 55.996094 183.828125 56.855469 C 184.996094 57.714844 186.140625 58.601562 187.265625 59.515625 C 188.390625 60.429688 189.492188 61.371094 190.570312 62.339844 C 191.648438 63.308594 192.703125 64.304688 193.730469 65.324219 C 194.761719 66.34375 195.765625 67.390625 196.742188 68.460938 C 197.722656 69.53125 198.671875 70.621094 199.597656 71.738281 C 200.523438 72.855469 201.417969 73.992188 202.289062 75.152344 C 203.15625 76.3125 203.996094 77.496094 204.808594 78.695312 C 205.621094 79.898438 206.402344 81.117188 207.152344 82.359375 C 207.902344 83.597656 208.625 84.855469 209.316406 86.132812 C 210.003906 87.40625 210.664062 88.699219 211.289062 90.007812 C 211.917969 91.316406 212.511719 92.636719 213.074219 93.972656 C 213.632812 95.3125 214.164062 96.660156 214.660156 98.023438 C 215.15625 99.386719 215.617188 100.761719 216.046875 102.148438 C 216.476562 103.535156 216.871094 104.929688 217.230469 106.335938 C 217.589844 107.742188 217.917969 109.15625 218.207031 110.578125 C 218.5 112 218.757812 113.425781 218.976562 114.863281 C 219.199219 116.296875 219.386719 117.734375 219.539062 119.179688 C 219.691406 120.625 219.804688 122.070312 219.886719 123.519531 C 219.96875 124.972656 220.011719 126.421875 220.023438 127.875 L 219.949219 160.804688 L 225.785156 160.78125 L 225.855469 127.855469 C 225.871094 124.742188 225.730469 121.632812 225.4375 118.535156 C 225.144531 115.433594 224.699219 112.355469 224.101562 109.300781 C 223.503906 106.246094 222.757812 103.226562 221.863281 100.246094 C 220.964844 97.269531 219.925781 94.339844 218.738281 91.464844 C 217.550781 88.589844 216.226562 85.777344 214.761719 83.035156 C 213.296875 80.292969 211.699219 77.628906 209.96875 75.042969 C 208.242188 72.460938 206.386719 69.96875 204.410156 67.566406 C 202.433594 65.167969 200.34375 62.871094 198.140625 60.679688 Z M 131.023438 3.753906 C 128.988281 3.757812 126.957031 3.8125 124.921875 3.917969 C 122.890625 4.019531 120.863281 4.175781 118.835938 4.378906 C 116.8125 4.582031 114.792969 4.835938 112.78125 5.136719 C 110.765625 5.441406 108.761719 5.792969 106.765625 6.191406 C 104.769531 6.59375 102.785156 7.042969 100.808594 7.542969 C 98.835938 8.039062 96.875 8.585938 94.925781 9.179688 C 92.976562 9.773438 91.046875 10.417969 89.128906 11.105469 C 87.210938 11.796875 85.3125 12.53125 83.433594 13.3125 C 81.550781 14.097656 79.691406 14.925781 77.847656 15.796875 C 76.007812 16.671875 74.1875 17.589844 72.394531 18.550781 C 70.597656 19.515625 68.824219 20.519531 67.078125 21.570312 C 65.332031 22.621094 63.609375 23.710938 61.917969 24.847656 C 60.222656 25.980469 58.558594 27.152344 56.921875 28.371094 C 55.285156 29.585938 53.675781 30.839844 52.101562 32.132812 C 50.527344 33.425781 48.984375 34.757812 47.472656 36.128906 C 45.964844 37.496094 44.488281 38.902344 43.046875 40.34375 C 41.605469 41.785156 40.199219 43.261719 38.828125 44.773438 C 37.460938 46.28125 36.128906 47.824219 34.835938 49.402344 C 33.542969 50.976562 32.285156 52.582031 31.070312 54.21875 C 29.855469 55.855469 28.679688 57.519531 27.546875 59.214844 C 26.414062 60.90625 25.320312 62.628906 24.273438 64.375 C 23.222656 66.125 22.21875 67.894531 21.253906 69.691406 C 20.292969 71.488281 19.375 73.304688 18.5 75.148438 C 17.625 76.988281 16.796875 78.847656 16.015625 80.730469 C 15.234375 82.609375 14.496094 84.511719 13.808594 86.425781 C 13.117188 88.34375 12.476562 90.277344 11.882812 92.226562 C 11.289062 94.171875 10.742188 96.132812 10.242188 98.109375 C 9.746094 100.082031 9.296875 102.070312 8.894531 104.066406 C 8.492188 106.0625 8.140625 108.066406 7.839844 110.078125 C 7.535156 112.089844 7.285156 114.109375 7.078125 116.136719 C 6.875 118.160156 6.722656 120.1875 6.617188 122.222656 C 6.515625 124.253906 6.460938 126.285156 6.457031 128.320312 L 12.289062 128.304688 C 12.292969 126.363281 12.34375 124.425781 12.441406 122.488281 C 12.542969 120.554688 12.6875 118.621094 12.882812 116.691406 C 13.078125 114.761719 13.316406 112.835938 13.605469 110.917969 C 13.894531 109 14.230469 107.089844 14.613281 105.1875 C 14.996094 103.285156 15.421875 101.390625 15.898438 99.507812 C 16.371094 97.628906 16.894531 95.757812 17.460938 93.902344 C 18.027344 92.046875 18.636719 90.203125 19.296875 88.375 C 19.953125 86.550781 20.652344 84.738281 21.398438 82.945312 C 22.144531 81.15625 22.933594 79.378906 23.765625 77.625 C 24.597656 75.871094 25.472656 74.136719 26.390625 72.425781 C 27.308594 70.714844 28.269531 69.027344 29.269531 67.359375 C 30.269531 65.695312 31.308594 64.054688 32.390625 62.441406 C 33.46875 60.828125 34.589844 59.242188 35.746094 57.679688 C 36.90625 56.121094 38.101562 54.589844 39.335938 53.089844 C 40.566406 51.585938 41.835938 50.117188 43.140625 48.679688 C 44.445312 47.238281 45.785156 45.832031 47.160156 44.457031 C 48.535156 43.085938 49.941406 41.746094 51.378906 40.441406 C 52.820312 39.136719 54.289062 37.867188 55.789062 36.632812 C 57.292969 35.398438 58.824219 34.203125 60.382812 33.046875 C 61.941406 31.886719 63.53125 30.769531 65.144531 29.6875 C 66.757812 28.605469 68.398438 27.566406 70.0625 26.566406 C 71.726562 25.566406 73.417969 24.605469 75.128906 23.691406 C 76.839844 22.773438 78.574219 21.898438 80.328125 21.066406 C 82.082031 20.230469 83.855469 19.441406 85.648438 18.699219 C 87.441406 17.953125 89.25 17.25 91.078125 16.59375 C 92.90625 15.9375 94.746094 15.324219 96.605469 14.757812 C 98.460938 14.191406 100.328125 13.671875 102.210938 13.195312 C 104.09375 12.722656 105.984375 12.292969 107.886719 11.910156 C 109.789062 11.527344 111.699219 11.191406 113.621094 10.90625 C 115.539062 10.617188 117.460938 10.375 119.390625 10.179688 C 121.320312 9.988281 123.253906 9.839844 125.191406 9.742188 C 127.128906 9.640625 129.066406 9.589844 131.003906 9.585938 C 132.945312 9.582031 134.882812 9.625 136.820312 9.71875 C 138.753906 9.808594 140.6875 9.945312 142.617188 10.132812 C 144.546875 10.320312 146.46875 10.550781 148.386719 10.832031 C 150.304688 11.113281 152.214844 11.441406 154.113281 11.8125 C 156.015625 12.1875 157.90625 12.609375 159.785156 13.074219 C 161.664062 13.542969 163.53125 14.054688 165.386719 14.613281 C 167.242188 15.175781 169.082031 15.777344 170.90625 16.425781 C 172.730469 17.078125 174.535156 17.769531 176.324219 18.507812 C 178.117188 19.246094 179.886719 20.027344 181.636719 20.855469 C 183.386719 21.679688 185.117188 22.546875 186.824219 23.457031 C 188.535156 24.367188 190.21875 25.320312 191.878906 26.3125 C 193.539062 27.308594 195.175781 28.339844 196.785156 29.414062 C 198.394531 30.488281 199.976562 31.601562 201.535156 32.753906 C 203.089844 33.902344 204.613281 35.09375 206.109375 36.320312 C 207.605469 37.546875 209.070312 38.808594 210.503906 40.109375 C 211.941406 41.410156 213.339844 42.742188 214.707031 44.109375 C 216.078125 45.480469 217.410156 46.878906 218.710938 48.3125 C 220.007812 49.746094 221.273438 51.210938 222.5 52.710938 C 223.726562 54.207031 224.914062 55.730469 226.066406 57.285156 C 227.21875 58.839844 228.332031 60.421875 229.40625 62.035156 C 230.480469 63.644531 231.511719 65.277344 232.507812 66.941406 C 233.5 68.601562 234.453125 70.285156 235.363281 71.992188 C 236.273438 73.703125 237.140625 75.429688 237.964844 77.183594 C 238.789062 78.933594 239.574219 80.703125 240.308594 82.492188 C 241.046875 84.285156 241.742188 86.089844 242.390625 87.914062 C 243.042969 89.738281 243.644531 91.578125 244.203125 93.433594 C 244.761719 95.285156 245.277344 97.152344 245.742188 99.035156 C 246.210938 100.914062 246.632812 102.804688 247.003906 104.703125 C 247.378906 106.605469 247.707031 108.515625 247.988281 110.433594 C 248.269531 112.351562 248.5 114.273438 248.6875 116.203125 C 248.871094 118.132812 249.011719 120.066406 249.101562 122 C 249.191406 123.9375 249.238281 125.875 249.230469 127.8125 L 249.164062 160.707031 L 254.996094 160.6875 L 255.066406 127.796875 C 255.070312 125.761719 255.023438 123.730469 254.925781 121.699219 C 254.832031 119.664062 254.6875 117.636719 254.492188 115.613281 C 254.296875 113.589844 254.050781 111.570312 253.757812 109.5625 C 253.460938 107.550781 253.117188 105.546875 252.726562 103.550781 C 252.332031 101.558594 251.890625 99.574219 251.402344 97.601562 C 250.910156 95.628906 250.375 93.671875 249.785156 91.726562 C 249.199219 89.78125 248.566406 87.851562 247.886719 85.9375 C 247.203125 84.023438 246.476562 82.125 245.699219 80.25 C 244.925781 78.371094 244.105469 76.511719 243.238281 74.675781 C 242.375 72.839844 241.464844 71.023438 240.507812 69.234375 C 239.554688 67.441406 238.554688 65.671875 237.511719 63.929688 C 236.46875 62.1875 235.386719 60.472656 234.257812 58.78125 C 233.132812 57.09375 231.964844 55.433594 230.757812 53.800781 C 229.546875 52.171875 228.300781 50.570312 227.011719 49 C 225.726562 47.429688 224.402344 45.894531 223.039062 44.390625 C 221.675781 42.886719 220.277344 41.414062 218.839844 39.980469 C 217.40625 38.542969 215.933594 37.144531 214.429688 35.78125 C 212.925781 34.417969 211.386719 33.09375 209.820312 31.804688 C 208.25 30.519531 206.648438 29.269531 205.015625 28.0625 C 203.386719 26.855469 201.726562 25.6875 200.035156 24.558594 C 198.347656 23.433594 196.632812 22.347656 194.890625 21.308594 C 193.144531 20.265625 191.378906 19.265625 189.585938 18.3125 C 187.792969 17.355469 185.980469 16.445312 184.144531 15.578125 C 182.304688 14.714844 180.449219 13.894531 178.570312 13.117188 C 176.691406 12.34375 174.796875 11.617188 172.882812 10.933594 C 170.96875 10.253906 169.039062 9.621094 167.09375 9.03125 C 165.148438 8.445312 163.191406 7.90625 161.21875 7.417969 C 159.246094 6.925781 157.261719 6.484375 155.269531 6.09375 C 153.273438 5.699219 151.269531 5.355469 149.257812 5.0625 C 147.246094 4.769531 145.230469 4.523438 143.207031 4.328125 C 141.179688 4.132812 139.152344 3.988281 137.121094 3.890625 C 135.089844 3.796875 133.058594 3.75 131.023438 3.753906 Z M 131.023438 3.753906 " clip-rule="nonzero"/></clipPath><linearGradient x1="-4011.400796" gradientTransform="matrix(-0.00160896, 0.770125, -0.770125, 0.00160896, 2911.649135, 3087.712306)" y1="3456.605206" x2="-3758.997968" gradientUnits="userSpaceOnUse" y2="3737.051863" id="40525ffcd1"><stop stop-opacity="1" stop-color="rgb(63.09967%, 0%, 92.89856%)" offset="0"/><stop stop-opacity="1" stop-color="rgb(63.09967%, 0%, 92.89856%)" offset="0.25"/><stop stop-opacity="1" stop-color="rgb(63.09967%, 0%, 92.89856%)" offset="0.363194"/><stop stop-opacity="1" stop-color="rgb(63.09967%, 0%, 92.89856%)" offset="0.375"/><stop stop-opacity="1" stop-color="rgb(63.09967%, 0%, 92.89856%)" offset="0.4375"/><stop stop-opacity="1" stop-color="rgb(62.986755%, 0.038147%, 92.910767%)" offset="0.46875"/><stop stop-opacity="1" stop-color="rgb(61.727905%, 0.4776%, 93.052673%)" offset="0.472656"/><stop stop-opacity="1" stop-color="rgb(60.58197%, 0.87738%, 93.182373%)" offset="0.476563"/><stop stop-opacity="1" stop-color="rgb(59.434509%, 1.277161%, 93.310547%)" offset="0.480469"/><stop stop-opacity="1" stop-color="rgb(58.288574%, 1.676941%, 93.440247%)" offset="0.484375"/><stop stop-opacity="1" stop-color="rgb(57.142639%, 2.075195%, 93.56842%)" offset="0.488281"/><stop stop-opacity="1" stop-color="rgb(55.996704%, 2.474976%, 93.69812%)" offset="0.492188"/><stop stop-opacity="1" stop-color="rgb(54.849243%, 2.874756%, 93.826294%)" offset="0.496094"/><stop stop-opacity="1" stop-color="rgb(53.703308%, 3.274536%, 93.955994%)" offset="0.5"/><stop stop-opacity="1" stop-color="rgb(52.557373%, 3.674316%, 94.084167%)" offset="0.503906"/><stop stop-opacity="1" stop-color="rgb(51.411438%, 4.074097%, 94.213867%)" offset="0.507812"/><stop stop-opacity="1" stop-color="rgb(50.263977%, 4.473877%, 94.342041%)" offset="0.511719"/><stop stop-opacity="1" stop-color="rgb(49.118042%, 4.873657%, 94.471741%)" offset="0.515625"/><stop stop-opacity="1" stop-color="rgb(47.972107%, 5.273438%, 94.599915%)" offset="0.519531"/><stop stop-opacity="1" stop-color="rgb(46.826172%, 5.673218%, 94.729614%)" offset="0.523438"/><stop stop-opacity="1" stop-color="rgb(45.678711%, 6.072998%, 94.859314%)" offset="0.527344"/><stop stop-opacity="1" stop-color="rgb(44.532776%, 6.472778%, 94.989014%)" offset="0.53125"/><stop stop-opacity="1" stop-color="rgb(43.386841%, 6.872559%, 95.117188%)" offset="0.535156"/><stop stop-opacity="1" stop-color="rgb(42.240906%, 7.272339%, 95.246887%)" offset="0.539062"/><stop stop-opacity="1" stop-color="rgb(41.093445%, 7.672119%, 95.375061%)" offset="0.542969"/><stop stop-opacity="1" stop-color="rgb(39.94751%, 8.071899%, 95.504761%)" offset="0.546875"/><stop stop-opacity="1" stop-color="rgb(38.800049%, 8.470154%, 95.632935%)" offset="0.550781"/><stop stop-opacity="1" stop-color="rgb(37.654114%, 8.869934%, 95.762634%)" offset="0.554688"/><stop stop-opacity="1" stop-color="rgb(36.508179%, 9.269714%, 95.890808%)" offset="0.558594"/><stop stop-opacity="1" stop-color="rgb(35.362244%, 9.669495%, 96.020508%)" offset="0.5625"/><stop stop-opacity="1" stop-color="rgb(34.214783%, 10.069275%, 96.148682%)" offset="0.566406"/><stop stop-opacity="1" stop-color="rgb(33.068848%, 10.469055%, 96.278381%)" offset="0.570312"/><stop stop-opacity="1" stop-color="rgb(31.922913%, 10.868835%, 96.406555%)" offset="0.574219"/><stop stop-opacity="1" stop-color="rgb(30.776978%, 11.268616%, 96.536255%)" offset="0.578125"/><stop stop-opacity="1" stop-color="rgb(29.629517%, 11.668396%, 96.664429%)" offset="0.582031"/><stop stop-opacity="1" stop-color="rgb(28.483582%, 12.068176%, 96.794128%)" offset="0.585938"/><stop stop-opacity="1" stop-color="rgb(27.337646%, 12.467957%, 96.922302%)" offset="0.589844"/><stop stop-opacity="1" stop-color="rgb(26.191711%, 12.867737%, 97.052002%)" offset="0.59375"/><stop stop-opacity="1" stop-color="rgb(25.04425%, 13.267517%, 97.180176%)" offset="0.597656"/><stop stop-opacity="1" stop-color="rgb(23.898315%, 13.667297%, 97.309875%)" offset="0.601562"/><stop stop-opacity="1" stop-color="rgb(22.750854%, 14.067078%, 97.438049%)" offset="0.605469"/><stop stop-opacity="1" stop-color="rgb(21.604919%, 14.466858%, 97.567749%)" offset="0.609375"/><stop stop-opacity="1" stop-color="rgb(20.458984%, 14.865112%, 97.695923%)" offset="0.613281"/><stop stop-opacity="1" stop-color="rgb(19.313049%, 15.264893%, 97.825623%)" offset="0.617188"/><stop stop-opacity="1" stop-color="rgb(18.165588%, 15.664673%, 97.953796%)" offset="0.621094"/><stop stop-opacity="1" stop-color="rgb(17.019653%, 16.064453%, 98.083496%)" offset="0.625"/><stop stop-opacity="1" stop-color="rgb(15.873718%, 16.464233%, 98.21167%)" offset="0.628906"/><stop stop-opacity="1" stop-color="rgb(14.727783%, 16.864014%, 98.34137%)" offset="0.632812"/><stop stop-opacity="1" stop-color="rgb(13.580322%, 17.263794%, 98.471069%)" offset="0.636719"/><stop stop-opacity="1" stop-color="rgb(12.434387%, 17.663574%, 98.600769%)" offset="0.640625"/><stop stop-opacity="1" stop-color="rgb(11.288452%, 18.063354%, 98.728943%)" offset="0.644531"/><stop stop-opacity="1" stop-color="rgb(10.142517%, 18.463135%, 98.858643%)" offset="0.648438"/><stop stop-opacity="1" stop-color="rgb(8.995056%, 18.862915%, 98.986816%)" offset="0.652344"/><stop stop-opacity="1" stop-color="rgb(7.849121%, 19.262695%, 99.116516%)" offset="0.65625"/><stop stop-opacity="1" stop-color="rgb(6.70166%, 19.662476%, 99.24469%)" offset="0.660156"/><stop stop-opacity="1" stop-color="rgb(5.555725%, 20.062256%, 99.37439%)" offset="0.664062"/><stop stop-opacity="1" stop-color="rgb(4.40979%, 20.462036%, 99.502563%)" offset="0.667969"/><stop stop-opacity="1" stop-color="rgb(3.263855%, 20.861816%, 99.632263%)" offset="0.671875"/><stop stop-opacity="1" stop-color="rgb(2.116394%, 21.260071%, 99.760437%)" offset="0.675781"/><stop stop-opacity="1" stop-color="rgb(0.970459%, 21.659851%, 99.890137%)" offset="0.679688"/><stop stop-opacity="1" stop-color="rgb(0.485229%, 21.829224%, 99.945068%)" offset="0.683594"/><stop stop-opacity="1" stop-color="rgb(0%, 21.998596%, 100%)" offset="0.6875"/><stop stop-opacity="1" stop-color="rgb(0%, 21.998596%, 100%)" offset="0.75"/><stop stop-opacity="1" stop-color="rgb(0%, 21.998596%, 100%)" offset="1"/></linearGradient><clipPath id="5b104cba68"><path d="M 161 245 L 256 245 L 256 375 L 161 375 Z M 161 245 " clip-rule="nonzero"/></clipPath><clipPath id="5aa7a462eb"><path d="M 112.214844 294.839844 L 208.347656 198.707031 L 299.257812 289.617188 L 203.125 385.75 Z M 112.214844 294.839844 " clip-rule="nonzero"/></clipPath><clipPath id="f27442a4fc"><path d="M 112.214844 294.839844 L 208.347656 198.707031 L 299.257812 289.617188 L 203.125 385.75 Z M 112.214844 294.839844 " clip-rule="nonzero"/></clipPath><clipPath id="3d8534426a"><path d="M 196.628906 316 L 196.554688 245.59375 L 190.707031 245.597656 L 190.785156 316 Z M 249.234375 245.582031 L 249.285156 294.996094 L 255.132812 295.003906 L 255.074219 245.582031 Z M 234.625 245.609375 L 234.710938 329.078125 L 240.558594 329.082031 L 240.472656 245.605469 Z M 167.292969 245.605469 L 161.449219 245.605469 L 161.546875 340.015625 L 167.375 340.042969 Z M 176.054688 245.582031 L 176.179688 358.664062 L 182.023438 358.664062 L 181.925781 245.597656 Z M 219.953125 245.566406 L 220.085938 354.175781 L 225.925781 354.179688 L 225.820312 245.589844 Z M 205.34375 245.59375 L 205.480469 377.539062 L 211.324219 377.550781 L 211.1875 245.597656 Z M 205.34375 245.59375 " clip-rule="nonzero"/></clipPath><linearGradient x1="-3630.199437" gradientTransform="matrix(0.000793161, 0.771516, -0.771516, -0.000793161, 2691.97014, 3048.825107)" y1="3215.53" x2="-3462.309838" gradientUnits="userSpaceOnUse" y2="3215.53" id="424c6070ab"><stop stop-opacity="1" stop-color="rgb(54.899597%, 0%, 92.89856%)" offset="0"/><stop stop-opacity="1" stop-color="rgb(55.0354%, 0.338745%, 92.877197%)" offset="0.00390625"/><stop stop-opacity="1" stop-color="rgb(55.171204%, 0.67749%, 92.855835%)" offset="0.0078125"/><stop stop-opacity="1" stop-color="rgb(55.310059%, 1.020813%, 92.832947%)" offset="0.0117188"/><stop stop-opacity="1" stop-color="rgb(55.448914%, 1.365662%, 92.811584%)" offset="0.015625"/><stop stop-opacity="1" stop-color="rgb(55.586243%, 1.708984%, 92.788696%)" offset="0.0195312"/><stop stop-opacity="1" stop-color="rgb(55.725098%, 2.053833%, 92.765808%)" offset="0.0234375"/><stop stop-opacity="1" stop-color="rgb(55.863953%, 2.397156%, 92.74292%)" offset="0.0273437"/><stop stop-opacity="1" stop-color="rgb(56.002808%, 2.742004%, 92.721558%)" offset="0.03125"/><stop stop-opacity="1" stop-color="rgb(56.140137%, 3.086853%, 92.698669%)" offset="0.0351562"/><stop stop-opacity="1" stop-color="rgb(56.278992%, 3.431702%, 92.677307%)" offset="0.0390625"/><stop stop-opacity="1" stop-color="rgb(56.416321%, 3.775024%, 92.654419%)" offset="0.0429687"/><stop stop-opacity="1" stop-color="rgb(56.555176%, 4.119873%, 92.633057%)" offset="0.046875"/><stop stop-opacity="1" stop-color="rgb(56.694031%, 4.463196%, 92.610168%)" offset="0.0507812"/><stop stop-opacity="1" stop-color="rgb(56.832886%, 4.808044%, 92.588806%)" offset="0.0546875"/><stop stop-opacity="1" stop-color="rgb(56.970215%, 5.151367%, 92.565918%)" offset="0.0585938"/><stop stop-opacity="1" stop-color="rgb(57.10907%, 5.496216%, 92.544556%)" offset="0.0625"/><stop stop-opacity="1" stop-color="rgb(57.246399%, 5.839539%, 92.521667%)" offset="0.0664062"/><stop stop-opacity="1" stop-color="rgb(57.385254%, 6.184387%, 92.500305%)" offset="0.0703125"/><stop stop-opacity="1" stop-color="rgb(57.524109%, 6.52771%, 92.477417%)" offset="0.0742187"/><stop stop-opacity="1" stop-color="rgb(57.662964%, 6.872559%, 92.454529%)" offset="0.078125"/><stop stop-opacity="1" stop-color="rgb(57.800293%, 7.215881%, 92.431641%)" offset="0.0820312"/><stop stop-opacity="1" stop-color="rgb(57.939148%, 7.56073%, 92.410278%)" offset="0.0859375"/><stop stop-opacity="1" stop-color="rgb(58.076477%, 7.905579%, 92.38739%)" offset="0.0898437"/><stop stop-opacity="1" stop-color="rgb(58.215332%, 8.250427%, 92.366028%)" offset="0.09375"/><stop stop-opacity="1" stop-color="rgb(58.354187%, 8.59375%, 92.34314%)" offset="0.0976562"/><stop stop-opacity="1" stop-color="rgb(58.493042%, 8.938599%, 92.321777%)" offset="0.101562"/><stop stop-opacity="1" stop-color="rgb(58.630371%, 9.281921%, 92.298889%)" offset="0.105469"/><stop stop-opacity="1" stop-color="rgb(58.769226%, 9.62677%, 92.277527%)" offset="0.109375"/><stop stop-opacity="1" stop-color="rgb(58.908081%, 9.970093%, 92.254639%)" offset="0.113281"/><stop stop-opacity="1" stop-color="rgb(59.046936%, 10.314941%, 92.233276%)" offset="0.117187"/><stop stop-opacity="1" stop-color="rgb(59.184265%, 10.658264%, 92.210388%)" offset="0.121094"/><stop stop-opacity="1" stop-color="rgb(59.32312%, 11.003113%, 92.189026%)" offset="0.125"/><stop stop-opacity="1" stop-color="rgb(59.460449%, 11.346436%, 92.166138%)" offset="0.128906"/><stop stop-opacity="1" stop-color="rgb(59.599304%, 11.691284%, 92.144775%)" offset="0.132812"/><stop stop-opacity="1" stop-color="rgb(59.738159%, 12.034607%, 92.121887%)" offset="0.136719"/><stop stop-opacity="1" stop-color="rgb(59.877014%, 12.379456%, 92.098999%)" offset="0.140625"/><stop stop-opacity="1" stop-color="rgb(60.014343%, 12.724304%, 92.076111%)" offset="0.144531"/><stop stop-opacity="1" stop-color="rgb(60.153198%, 13.069153%, 92.054749%)" offset="0.148438"/><stop stop-opacity="1" stop-color="rgb(60.290527%, 13.412476%, 92.03186%)" offset="0.152344"/><stop stop-opacity="1" stop-color="rgb(60.429382%, 13.757324%, 92.010498%)" offset="0.15625"/><stop stop-opacity="1" stop-color="rgb(60.568237%, 14.100647%, 91.98761%)" offset="0.160156"/><stop stop-opacity="1" stop-color="rgb(60.707092%, 14.445496%, 91.966248%)" offset="0.164062"/><stop stop-opacity="1" stop-color="rgb(60.844421%, 14.788818%, 91.943359%)" offset="0.167969"/><stop stop-opacity="1" stop-color="rgb(60.983276%, 15.133667%, 91.921997%)" offset="0.171875"/><stop stop-opacity="1" stop-color="rgb(61.120605%, 15.47699%, 91.899109%)" offset="0.175781"/><stop stop-opacity="1" stop-color="rgb(61.25946%, 15.821838%, 91.877747%)" offset="0.179688"/><stop stop-opacity="1" stop-color="rgb(61.398315%, 16.165161%, 91.854858%)" offset="0.183594"/><stop stop-opacity="1" stop-color="rgb(61.53717%, 16.51001%, 91.833496%)" offset="0.1875"/><stop stop-opacity="1" stop-color="rgb(61.6745%, 16.854858%, 91.810608%)" offset="0.191406"/><stop stop-opacity="1" stop-color="rgb(61.813354%, 17.199707%, 91.78772%)" offset="0.195312"/><stop stop-opacity="1" stop-color="rgb(61.952209%, 17.54303%, 91.764832%)" offset="0.199219"/><stop stop-opacity="1" stop-color="rgb(62.091064%, 17.887878%, 91.743469%)" offset="0.203125"/><stop stop-opacity="1" stop-color="rgb(62.228394%, 18.231201%, 91.720581%)" offset="0.207031"/><stop stop-opacity="1" stop-color="rgb(62.367249%, 18.57605%, 91.699219%)" offset="0.210938"/><stop stop-opacity="1" stop-color="rgb(62.504578%, 18.919373%, 91.676331%)" offset="0.214844"/><stop stop-opacity="1" stop-color="rgb(62.643433%, 19.264221%, 91.654968%)" offset="0.21875"/><stop stop-opacity="1" stop-color="rgb(62.782288%, 19.607544%, 91.63208%)" offset="0.222656"/><stop stop-opacity="1" stop-color="rgb(62.921143%, 19.952393%, 91.610718%)" offset="0.226562"/><stop stop-opacity="1" stop-color="rgb(63.058472%, 20.295715%, 91.58783%)" offset="0.230469"/><stop stop-opacity="1" stop-color="rgb(63.197327%, 20.640564%, 91.566467%)" offset="0.234375"/><stop stop-opacity="1" stop-color="rgb(63.334656%, 20.983887%, 91.543579%)" offset="0.238281"/><stop stop-opacity="1" stop-color="rgb(63.473511%, 21.328735%, 91.522217%)" offset="0.242188"/><stop stop-opacity="1" stop-color="rgb(63.612366%, 21.673584%, 91.499329%)" offset="0.246094"/><stop stop-opacity="1" stop-color="rgb(63.751221%, 22.018433%, 91.47644%)" offset="0.25"/><stop stop-opacity="1" stop-color="rgb(63.88855%, 22.361755%, 91.453552%)" offset="0.253906"/><stop stop-opacity="1" stop-color="rgb(64.027405%, 22.706604%, 91.43219%)" offset="0.257812"/><stop stop-opacity="1" stop-color="rgb(64.164734%, 23.049927%, 91.409302%)" offset="0.261719"/><stop stop-opacity="1" stop-color="rgb(64.303589%, 23.394775%, 91.387939%)" offset="0.265625"/><stop stop-opacity="1" stop-color="rgb(64.442444%, 23.738098%, 91.365051%)" offset="0.269531"/><stop stop-opacity="1" stop-color="rgb(64.581299%, 24.082947%, 91.343689%)" offset="0.273437"/><stop stop-opacity="1" stop-color="rgb(64.718628%, 24.42627%, 91.320801%)" offset="0.277344"/><stop stop-opacity="1" stop-color="rgb(64.857483%, 24.771118%, 91.299438%)" offset="0.28125"/><stop stop-opacity="1" stop-color="rgb(64.996338%, 25.114441%, 91.27655%)" offset="0.285156"/><stop stop-opacity="1" stop-color="rgb(65.135193%, 25.45929%, 91.255188%)" offset="0.289062"/><stop stop-opacity="1" stop-color="rgb(65.272522%, 25.802612%, 91.2323%)" offset="0.292969"/><stop stop-opacity="1" stop-color="rgb(65.411377%, 26.147461%, 91.210938%)" offset="0.296875"/><stop stop-opacity="1" stop-color="rgb(65.548706%, 26.49231%, 91.188049%)" offset="0.300781"/><stop stop-opacity="1" stop-color="rgb(65.687561%, 26.837158%, 91.165161%)" offset="0.304688"/><stop stop-opacity="1" stop-color="rgb(65.826416%, 27.180481%, 91.142273%)" offset="0.308594"/><stop stop-opacity="1" stop-color="rgb(65.965271%, 27.52533%, 91.120911%)" offset="0.3125"/><stop stop-opacity="1" stop-color="rgb(66.1026%, 27.868652%, 91.098022%)" offset="0.316406"/><stop stop-opacity="1" stop-color="rgb(66.241455%, 28.213501%, 91.07666%)" offset="0.320312"/><stop stop-opacity="1" stop-color="rgb(66.378784%, 28.556824%, 91.053772%)" offset="0.324219"/><stop stop-opacity="1" stop-color="rgb(66.517639%, 28.901672%, 91.03241%)" offset="0.328125"/><stop stop-opacity="1" stop-color="rgb(66.656494%, 29.244995%, 91.009521%)" offset="0.332031"/><stop stop-opacity="1" stop-color="rgb(66.795349%, 29.589844%, 90.988159%)" offset="0.335938"/><stop stop-opacity="1" stop-color="rgb(66.932678%, 29.933167%, 90.965271%)" offset="0.339844"/><stop stop-opacity="1" stop-color="rgb(67.071533%, 30.278015%, 90.943909%)" offset="0.34375"/><stop stop-opacity="1" stop-color="rgb(67.208862%, 30.622864%, 90.921021%)" offset="0.347656"/><stop stop-opacity="1" stop-color="rgb(67.347717%, 30.967712%, 90.899658%)" offset="0.351563"/><stop stop-opacity="1" stop-color="rgb(67.486572%, 31.311035%, 90.87677%)" offset="0.355469"/><stop stop-opacity="1" stop-color="rgb(67.625427%, 31.655884%, 90.853882%)" offset="0.359375"/><stop stop-opacity="1" stop-color="rgb(67.762756%, 31.999207%, 90.830994%)" offset="0.363281"/><stop stop-opacity="1" stop-color="rgb(67.901611%, 32.344055%, 90.809631%)" offset="0.367187"/><stop stop-opacity="1" stop-color="rgb(68.040466%, 32.687378%, 90.786743%)" offset="0.371094"/><stop stop-opacity="1" stop-color="rgb(68.179321%, 33.032227%, 90.765381%)" offset="0.375"/><stop stop-opacity="1" stop-color="rgb(68.31665%, 33.375549%, 90.742493%)" offset="0.378906"/><stop stop-opacity="1" stop-color="rgb(68.455505%, 33.720398%, 90.72113%)" offset="0.382812"/><stop stop-opacity="1" stop-color="rgb(68.592834%, 34.063721%, 90.698242%)" offset="0.386719"/><stop stop-opacity="1" stop-color="rgb(68.731689%, 34.408569%, 90.67688%)" offset="0.390625"/><stop stop-opacity="1" stop-color="rgb(68.870544%, 34.751892%, 90.653992%)" offset="0.394531"/><stop stop-opacity="1" stop-color="rgb(69.009399%, 35.096741%, 90.632629%)" offset="0.398438"/><stop stop-opacity="1" stop-color="rgb(69.146729%, 35.441589%, 90.609741%)" offset="0.402344"/><stop stop-opacity="1" stop-color="rgb(69.285583%, 35.786438%, 90.588379%)" offset="0.40625"/><stop stop-opacity="1" stop-color="rgb(69.422913%, 36.129761%, 90.565491%)" offset="0.410156"/><stop stop-opacity="1" stop-color="rgb(69.561768%, 36.474609%, 90.544128%)" offset="0.414062"/><stop stop-opacity="1" stop-color="rgb(69.700623%, 36.817932%, 90.52124%)" offset="0.417969"/><stop stop-opacity="1" stop-color="rgb(69.839478%, 37.162781%, 90.498352%)" offset="0.421875"/><stop stop-opacity="1" stop-color="rgb(69.976807%, 37.506104%, 90.475464%)" offset="0.425781"/><stop stop-opacity="1" stop-color="rgb(70.115662%, 37.850952%, 90.454102%)" offset="0.429688"/><stop stop-opacity="1" stop-color="rgb(70.252991%, 38.194275%, 90.431213%)" offset="0.433594"/><stop stop-opacity="1" stop-color="rgb(70.391846%, 38.539124%, 90.409851%)" offset="0.4375"/><stop stop-opacity="1" stop-color="rgb(70.530701%, 38.882446%, 90.386963%)" offset="0.441406"/><stop stop-opacity="1" stop-color="rgb(70.669556%, 39.227295%, 90.365601%)" offset="0.445313"/><stop stop-opacity="1" stop-color="rgb(70.806885%, 39.570618%, 90.342712%)" offset="0.449219"/><stop stop-opacity="1" stop-color="rgb(70.94574%, 39.915466%, 90.32135%)" offset="0.453125"/><stop stop-opacity="1" stop-color="rgb(71.084595%, 40.260315%, 90.298462%)" offset="0.457031"/><stop stop-opacity="1" stop-color="rgb(71.22345%, 40.605164%, 90.2771%)" offset="0.460937"/><stop stop-opacity="1" stop-color="rgb(71.360779%, 40.948486%, 90.254211%)" offset="0.464844"/><stop stop-opacity="1" stop-color="rgb(71.499634%, 41.293335%, 90.232849%)" offset="0.46875"/><stop stop-opacity="1" stop-color="rgb(71.636963%, 41.636658%, 90.209961%)" offset="0.472656"/><stop stop-opacity="1" stop-color="rgb(71.775818%, 41.981506%, 90.187073%)" offset="0.476562"/><stop stop-opacity="1" stop-color="rgb(71.914673%, 42.324829%, 90.164185%)" offset="0.480469"/><stop stop-opacity="1" stop-color="rgb(72.053528%, 42.669678%, 90.142822%)" offset="0.484375"/><stop stop-opacity="1" stop-color="rgb(72.190857%, 43.013%, 90.119934%)" offset="0.488281"/><stop stop-opacity="1" stop-color="rgb(72.329712%, 43.357849%, 90.098572%)" offset="0.492188"/><stop stop-opacity="1" stop-color="rgb(72.467041%, 43.701172%, 90.075684%)" offset="0.496094"/><stop stop-opacity="1" stop-color="rgb(72.605896%, 44.046021%, 90.054321%)" offset="0.5"/><stop stop-opacity="1" stop-color="rgb(72.744751%, 44.390869%, 90.031433%)" offset="0.503906"/><stop stop-opacity="1" stop-color="rgb(72.883606%, 44.735718%, 90.010071%)" offset="0.507812"/><stop stop-opacity="1" stop-color="rgb(73.020935%, 45.079041%, 89.987183%)" offset="0.511719"/><stop stop-opacity="1" stop-color="rgb(73.15979%, 45.423889%, 89.96582%)" offset="0.515625"/><stop stop-opacity="1" stop-color="rgb(73.297119%, 45.767212%, 89.942932%)" offset="0.519531"/><stop stop-opacity="1" stop-color="rgb(73.435974%, 46.112061%, 89.92157%)" offset="0.523438"/><stop stop-opacity="1" stop-color="rgb(73.574829%, 46.455383%, 89.898682%)" offset="0.527344"/><stop stop-opacity="1" stop-color="rgb(73.713684%, 46.800232%, 89.875793%)" offset="0.53125"/><stop stop-opacity="1" stop-color="rgb(73.851013%, 47.143555%, 89.852905%)" offset="0.535156"/><stop stop-opacity="1" stop-color="rgb(73.989868%, 47.488403%, 89.831543%)" offset="0.539062"/><stop stop-opacity="1" stop-color="rgb(74.128723%, 47.831726%, 89.808655%)" offset="0.542969"/><stop stop-opacity="1" stop-color="rgb(74.267578%, 48.176575%, 89.787292%)" offset="0.546875"/><stop stop-opacity="1" stop-color="rgb(74.404907%, 48.519897%, 89.764404%)" offset="0.550781"/><stop stop-opacity="1" stop-color="rgb(74.543762%, 48.864746%, 89.743042%)" offset="0.554688"/><stop stop-opacity="1" stop-color="rgb(74.681091%, 49.209595%, 89.720154%)" offset="0.558594"/><stop stop-opacity="1" stop-color="rgb(74.819946%, 49.554443%, 89.698792%)" offset="0.5625"/><stop stop-opacity="1" stop-color="rgb(74.958801%, 49.897766%, 89.675903%)" offset="0.566406"/><stop stop-opacity="1" stop-color="rgb(75.097656%, 50.242615%, 89.654541%)" offset="0.570312"/><stop stop-opacity="1" stop-color="rgb(75.234985%, 50.585938%, 89.631653%)" offset="0.574219"/><stop stop-opacity="1" stop-color="rgb(75.37384%, 50.930786%, 89.610291%)" offset="0.578125"/><stop stop-opacity="1" stop-color="rgb(75.511169%, 51.274109%, 89.587402%)" offset="0.582031"/><stop stop-opacity="1" stop-color="rgb(75.650024%, 51.618958%, 89.564514%)" offset="0.585937"/><stop stop-opacity="1" stop-color="rgb(75.788879%, 51.96228%, 89.541626%)" offset="0.589844"/><stop stop-opacity="1" stop-color="rgb(75.927734%, 52.307129%, 89.520264%)" offset="0.59375"/><stop stop-opacity="1" stop-color="rgb(76.065063%, 52.650452%, 89.497375%)" offset="0.597656"/><stop stop-opacity="1" stop-color="rgb(76.203918%, 52.9953%, 89.476013%)" offset="0.601562"/><stop stop-opacity="1" stop-color="rgb(76.341248%, 53.338623%, 89.453125%)" offset="0.605469"/><stop stop-opacity="1" stop-color="rgb(76.480103%, 53.683472%, 89.431763%)" offset="0.609375"/><stop stop-opacity="1" stop-color="rgb(76.618958%, 54.02832%, 89.408875%)" offset="0.613281"/><stop stop-opacity="1" stop-color="rgb(76.757812%, 54.373169%, 89.387512%)" offset="0.617188"/><stop stop-opacity="1" stop-color="rgb(76.895142%, 54.716492%, 89.364624%)" offset="0.621094"/><stop stop-opacity="1" stop-color="rgb(77.033997%, 55.06134%, 89.343262%)" offset="0.625"/><stop stop-opacity="1" stop-color="rgb(77.172852%, 55.404663%, 89.320374%)" offset="0.628906"/><stop stop-opacity="1" stop-color="rgb(77.311707%, 55.749512%, 89.299011%)" offset="0.632812"/><stop stop-opacity="1" stop-color="rgb(77.449036%, 56.092834%, 89.276123%)" offset="0.636719"/><stop stop-opacity="1" stop-color="rgb(77.587891%, 56.437683%, 89.253235%)" offset="0.640625"/><stop stop-opacity="1" stop-color="rgb(77.72522%, 56.781006%, 89.230347%)" offset="0.644531"/><stop stop-opacity="1" stop-color="rgb(77.864075%, 57.125854%, 89.208984%)" offset="0.648438"/><stop stop-opacity="1" stop-color="rgb(78.00293%, 57.469177%, 89.186096%)" offset="0.652344"/><stop stop-opacity="1" stop-color="rgb(78.141785%, 57.814026%, 89.164734%)" offset="0.65625"/><stop stop-opacity="1" stop-color="rgb(78.279114%, 58.157349%, 89.141846%)" offset="0.660156"/><stop stop-opacity="1" stop-color="rgb(78.417969%, 58.502197%, 89.120483%)" offset="0.664062"/><stop stop-opacity="1" stop-color="rgb(78.555298%, 58.847046%, 89.097595%)" offset="0.667969"/><stop stop-opacity="1" stop-color="rgb(78.694153%, 59.191895%, 89.076233%)" offset="0.671875"/><stop stop-opacity="1" stop-color="rgb(78.833008%, 59.535217%, 89.053345%)" offset="0.675781"/><stop stop-opacity="1" stop-color="rgb(78.971863%, 59.880066%, 89.031982%)" offset="0.679687"/><stop stop-opacity="1" stop-color="rgb(79.109192%, 60.223389%, 89.009094%)" offset="0.683594"/><stop stop-opacity="1" stop-color="rgb(79.248047%, 60.568237%, 88.987732%)" offset="0.6875"/><stop stop-opacity="1" stop-color="rgb(79.385376%, 60.91156%, 88.964844%)" offset="0.691406"/><stop stop-opacity="1" stop-color="rgb(79.524231%, 61.256409%, 88.943481%)" offset="0.695312"/><stop stop-opacity="1" stop-color="rgb(79.663086%, 61.599731%, 88.920593%)" offset="0.699219"/><stop stop-opacity="1" stop-color="rgb(79.801941%, 61.94458%, 88.897705%)" offset="0.703125"/><stop stop-opacity="1" stop-color="rgb(79.93927%, 62.287903%, 88.874817%)" offset="0.707031"/><stop stop-opacity="1" stop-color="rgb(80.078125%, 62.632751%, 88.853455%)" offset="0.710938"/><stop stop-opacity="1" stop-color="rgb(80.21698%, 62.9776%, 88.830566%)" offset="0.714844"/><stop stop-opacity="1" stop-color="rgb(80.355835%, 63.322449%, 88.809204%)" offset="0.71875"/><stop stop-opacity="1" stop-color="rgb(80.493164%, 63.665771%, 88.786316%)" offset="0.722656"/><stop stop-opacity="1" stop-color="rgb(80.632019%, 64.01062%, 88.764954%)" offset="0.726562"/><stop stop-opacity="1" stop-color="rgb(80.769348%, 64.353943%, 88.742065%)" offset="0.730469"/><stop stop-opacity="1" stop-color="rgb(80.908203%, 64.698792%, 88.720703%)" offset="0.734375"/><stop stop-opacity="1" stop-color="rgb(81.047058%, 65.042114%, 88.697815%)" offset="0.738281"/><stop stop-opacity="1" stop-color="rgb(81.185913%, 65.386963%, 88.676453%)" offset="0.742188"/><stop stop-opacity="1" stop-color="rgb(81.323242%, 65.730286%, 88.653564%)" offset="0.746094"/><stop stop-opacity="1" stop-color="rgb(81.462097%, 66.075134%, 88.632202%)" offset="0.75"/><stop stop-opacity="1" stop-color="rgb(81.599426%, 66.418457%, 88.609314%)" offset="0.753906"/><stop stop-opacity="1" stop-color="rgb(81.738281%, 66.763306%, 88.586426%)" offset="0.757812"/><stop stop-opacity="1" stop-color="rgb(81.877136%, 67.106628%, 88.563538%)" offset="0.761719"/><stop stop-opacity="1" stop-color="rgb(82.015991%, 67.451477%, 88.542175%)" offset="0.765625"/><stop stop-opacity="1" stop-color="rgb(82.15332%, 67.796326%, 88.519287%)" offset="0.769531"/><stop stop-opacity="1" stop-color="rgb(82.292175%, 68.141174%, 88.497925%)" offset="0.773437"/><stop stop-opacity="1" stop-color="rgb(82.429504%, 68.484497%, 88.475037%)" offset="0.777344"/><stop stop-opacity="1" stop-color="rgb(82.568359%, 68.829346%, 88.453674%)" offset="0.78125"/><stop stop-opacity="1" stop-color="rgb(82.707214%, 69.172668%, 88.430786%)" offset="0.785156"/><stop stop-opacity="1" stop-color="rgb(82.846069%, 69.517517%, 88.409424%)" offset="0.789062"/><stop stop-opacity="1" stop-color="rgb(82.983398%, 69.86084%, 88.386536%)" offset="0.792969"/><stop stop-opacity="1" stop-color="rgb(83.122253%, 70.205688%, 88.365173%)" offset="0.796875"/><stop stop-opacity="1" stop-color="rgb(83.261108%, 70.549011%, 88.342285%)" offset="0.800781"/><stop stop-opacity="1" stop-color="rgb(83.399963%, 70.89386%, 88.320923%)" offset="0.804688"/><stop stop-opacity="1" stop-color="rgb(83.537292%, 71.237183%, 88.298035%)" offset="0.808594"/><stop stop-opacity="1" stop-color="rgb(83.676147%, 71.582031%, 88.275146%)" offset="0.8125"/><stop stop-opacity="1" stop-color="rgb(83.813477%, 71.925354%, 88.252258%)" offset="0.816406"/><stop stop-opacity="1" stop-color="rgb(83.952332%, 72.270203%, 88.230896%)" offset="0.820312"/><stop stop-opacity="1" stop-color="rgb(84.091187%, 72.615051%, 88.208008%)" offset="0.824219"/><stop stop-opacity="1" stop-color="rgb(84.230042%, 72.9599%, 88.186646%)" offset="0.828125"/><stop stop-opacity="1" stop-color="rgb(84.367371%, 73.303223%, 88.163757%)" offset="0.832031"/><stop stop-opacity="1" stop-color="rgb(84.506226%, 73.648071%, 88.142395%)" offset="0.835938"/><stop stop-opacity="1" stop-color="rgb(84.643555%, 73.991394%, 88.119507%)" offset="0.839844"/><stop stop-opacity="1" stop-color="rgb(84.78241%, 74.336243%, 88.098145%)" offset="0.84375"/><stop stop-opacity="1" stop-color="rgb(84.921265%, 74.679565%, 88.075256%)" offset="0.847656"/><stop stop-opacity="1" stop-color="rgb(85.06012%, 75.024414%, 88.053894%)" offset="0.851562"/><stop stop-opacity="1" stop-color="rgb(85.197449%, 75.367737%, 88.031006%)" offset="0.855469"/><stop stop-opacity="1" stop-color="rgb(85.336304%, 75.712585%, 88.009644%)" offset="0.859375"/><stop stop-opacity="1" stop-color="rgb(85.473633%, 76.055908%, 87.986755%)" offset="0.863281"/><stop stop-opacity="1" stop-color="rgb(85.612488%, 76.400757%, 87.963867%)" offset="0.867187"/><stop stop-opacity="1" stop-color="rgb(85.751343%, 76.745605%, 87.940979%)" offset="0.871094"/><stop stop-opacity="1" stop-color="rgb(85.890198%, 77.090454%, 87.919617%)" offset="0.875"/><stop stop-opacity="1" stop-color="rgb(86.027527%, 77.433777%, 87.896729%)" offset="0.878906"/><stop stop-opacity="1" stop-color="rgb(86.166382%, 77.778625%, 87.875366%)" offset="0.882812"/><stop stop-opacity="1" stop-color="rgb(86.305237%, 78.121948%, 87.852478%)" offset="0.886719"/><stop stop-opacity="1" stop-color="rgb(86.444092%, 78.466797%, 87.831116%)" offset="0.890625"/><stop stop-opacity="1" stop-color="rgb(86.581421%, 78.81012%, 87.808228%)" offset="0.894531"/><stop stop-opacity="1" stop-color="rgb(86.720276%, 79.154968%, 87.786865%)" offset="0.898438"/><stop stop-opacity="1" stop-color="rgb(86.857605%, 79.498291%, 87.763977%)" offset="0.902344"/><stop stop-opacity="1" stop-color="rgb(86.99646%, 79.84314%, 87.742615%)" offset="0.90625"/><stop stop-opacity="1" stop-color="rgb(87.135315%, 80.186462%, 87.719727%)" offset="0.910156"/><stop stop-opacity="1" stop-color="rgb(87.27417%, 80.531311%, 87.698364%)" offset="0.914062"/><stop stop-opacity="1" stop-color="rgb(87.411499%, 80.874634%, 87.675476%)" offset="0.917969"/><stop stop-opacity="1" stop-color="rgb(87.550354%, 81.219482%, 87.652588%)" offset="0.921875"/><stop stop-opacity="1" stop-color="rgb(87.687683%, 81.564331%, 87.6297%)" offset="0.925781"/><stop stop-opacity="1" stop-color="rgb(87.826538%, 81.90918%, 87.608337%)" offset="0.929688"/><stop stop-opacity="1" stop-color="rgb(87.965393%, 82.252502%, 87.585449%)" offset="0.933594"/><stop stop-opacity="1" stop-color="rgb(88.104248%, 82.597351%, 87.564087%)" offset="0.9375"/><stop stop-opacity="1" stop-color="rgb(88.241577%, 82.940674%, 87.541199%)" offset="0.941406"/><stop stop-opacity="1" stop-color="rgb(88.380432%, 83.285522%, 87.519836%)" offset="0.945312"/><stop stop-opacity="1" stop-color="rgb(88.517761%, 83.628845%, 87.496948%)" offset="0.949219"/><stop stop-opacity="1" stop-color="rgb(88.656616%, 83.973694%, 87.475586%)" offset="0.953125"/><stop stop-opacity="1" stop-color="rgb(88.795471%, 84.317017%, 87.452698%)" offset="0.957031"/><stop stop-opacity="1" stop-color="rgb(88.934326%, 84.661865%, 87.431335%)" offset="0.960937"/><stop stop-opacity="1" stop-color="rgb(89.071655%, 85.005188%, 87.408447%)" offset="0.964844"/><stop stop-opacity="1" stop-color="rgb(89.21051%, 85.350037%, 87.387085%)" offset="0.96875"/><stop stop-opacity="1" stop-color="rgb(89.349365%, 85.693359%, 87.364197%)" offset="0.972656"/><stop stop-opacity="1" stop-color="rgb(89.48822%, 86.038208%, 87.342834%)" offset="0.976562"/><stop stop-opacity="1" stop-color="rgb(89.625549%, 86.383057%, 87.319946%)" offset="0.980469"/><stop stop-opacity="1" stop-color="rgb(89.764404%, 86.727905%, 87.297058%)" offset="0.984375"/><stop stop-opacity="1" stop-color="rgb(89.901733%, 87.071228%, 87.27417%)" offset="0.988281"/><stop stop-opacity="1" stop-color="rgb(90.040588%, 87.416077%, 87.252808%)" offset="0.992188"/><stop stop-opacity="1" stop-color="rgb(90.179443%, 87.759399%, 87.229919%)" offset="0.996094"/><stop stop-opacity="1" stop-color="rgb(90.318298%, 88.104248%, 87.208557%)" offset="1"/></linearGradient><clipPath id="73cd654778"><path d="M 6 127 L 375 127 L 375 252 L 6 252 Z M 6 127 " clip-rule="nonzero"/></clipPath><clipPath id="037eb4ab64"><path d="M -19.289062 153.445312 L 185.519531 -51.363281 L 394.507812 157.625 L 189.699219 362.433594 Z M -19.289062 153.445312 " clip-rule="nonzero"/></clipPath><clipPath id="651899acfa"><path d="M -19.289062 153.445312 L 185.519531 -51.363281 L 394.507812 157.625 L 189.699219 362.433594 Z M -19.289062 153.445312 " clip-rule="nonzero"/></clipPath><clipPath id="fabce3c977"><path d="M 85.285156 127.46875 L 79.457031 127.480469 C 79.457031 129.15625 79.539062 130.828125 79.703125 132.496094 C 79.863281 134.164062 80.109375 135.816406 80.433594 137.460938 C 80.761719 139.105469 81.167969 140.726562 81.652344 142.332031 C 82.136719 143.933594 82.699219 145.507812 83.339844 147.054688 C 83.976562 148.601562 84.691406 150.113281 85.480469 151.589844 C 86.269531 153.066406 87.128906 154.503906 88.058594 155.894531 C 88.984375 157.285156 89.980469 158.628906 91.042969 159.921875 C 92.105469 161.214844 93.226562 162.453125 94.410156 163.636719 C 95.59375 164.820312 96.832031 165.945312 98.125 167.003906 C 99.417969 168.066406 100.761719 169.0625 102.152344 169.992188 C 103.546875 170.921875 104.980469 171.777344 106.457031 172.566406 C 107.933594 173.355469 109.445312 174.070312 110.992188 174.710938 C 112.539062 175.347656 114.113281 175.910156 115.71875 176.394531 C 117.320312 176.882812 118.941406 177.285156 120.585938 177.613281 C 122.230469 177.9375 123.882812 178.183594 125.550781 178.34375 C 127.21875 178.507812 128.890625 178.589844 130.570312 178.589844 L 373.96875 178.164062 L 379.804688 172.328125 L 130.578125 172.761719 C 129.09375 172.761719 127.609375 172.691406 126.132812 172.546875 C 124.65625 172.402344 123.1875 172.183594 121.730469 171.898438 C 120.277344 171.609375 118.835938 171.25 117.417969 170.820312 C 115.996094 170.390625 114.601562 169.890625 113.230469 169.324219 C 111.859375 168.757812 110.519531 168.125 109.210938 167.425781 C 107.902344 166.726562 106.628906 165.96875 105.394531 165.144531 C 104.164062 164.320312 102.972656 163.4375 101.828125 162.496094 C 100.679688 161.558594 99.582031 160.5625 98.535156 159.515625 C 97.484375 158.464844 96.492188 157.367188 95.550781 156.222656 C 94.609375 155.074219 93.726562 153.882812 92.902344 152.652344 C 92.082031 151.417969 91.320312 150.144531 90.621094 148.835938 C 89.921875 147.527344 89.289062 146.1875 88.722656 144.816406 C 88.15625 143.445312 87.65625 142.050781 87.226562 140.628906 C 86.796875 139.210938 86.4375 137.773438 86.152344 136.316406 C 85.863281 134.859375 85.644531 133.390625 85.5 131.914062 C 85.355469 130.4375 85.285156 128.953125 85.285156 127.46875 Z M 130.582031 158.15625 C 129.574219 158.15625 128.570312 158.109375 127.566406 158.011719 C 126.5625 157.914062 125.566406 157.765625 124.578125 157.570312 C 123.589844 157.375 122.613281 157.128906 121.652344 156.839844 C 120.6875 156.546875 119.738281 156.210938 118.808594 155.824219 C 117.878906 155.441406 116.96875 155.011719 116.082031 154.535156 C 115.195312 154.0625 114.332031 153.546875 113.496094 152.988281 C 112.65625 152.429688 111.851562 151.828125 111.070312 151.191406 C 110.292969 150.554688 109.546875 149.878906 108.835938 149.167969 C 108.125 148.457031 107.449219 147.710938 106.8125 146.933594 C 106.175781 146.15625 105.574219 145.347656 105.015625 144.511719 C 104.457031 143.671875 103.941406 142.808594 103.46875 141.921875 C 102.992188 141.035156 102.5625 140.125 102.179688 139.195312 C 101.792969 138.265625 101.457031 137.316406 101.164062 136.351562 C 100.875 135.390625 100.628906 134.414062 100.433594 133.425781 C 100.238281 132.4375 100.089844 131.441406 99.992188 130.4375 C 99.894531 129.433594 99.847656 128.429688 99.847656 127.421875 L 94.019531 127.433594 C 94.019531 128.628906 94.074219 129.828125 94.191406 131.019531 C 94.308594 132.210938 94.484375 133.394531 94.71875 134.570312 C 94.949219 135.746094 95.242188 136.90625 95.589844 138.054688 C 95.933594 139.199219 96.335938 140.324219 96.792969 141.433594 C 97.253906 142.539062 97.761719 143.621094 98.328125 144.675781 C 98.890625 145.730469 99.503906 146.757812 100.167969 147.753906 C 100.835938 148.75 101.546875 149.707031 102.304688 150.632812 C 103.0625 151.558594 103.867188 152.445312 104.714844 153.289062 C 105.558594 154.136719 106.445312 154.941406 107.371094 155.699219 C 108.296875 156.457031 109.257812 157.167969 110.25 157.835938 C 111.246094 158.5 112.273438 159.113281 113.328125 159.675781 C 114.382812 160.242188 115.464844 160.75 116.570312 161.210938 C 117.679688 161.667969 118.804688 162.070312 119.949219 162.414062 C 121.097656 162.761719 122.257812 163.054688 123.433594 163.285156 C 124.609375 163.519531 125.792969 163.695312 126.984375 163.8125 C 128.175781 163.929688 129.375 163.984375 130.570312 163.984375 L 388.585938 163.546875 L 394.414062 157.71875 Z M 88.1875 169.855469 C 85.398438 167.082031 82.914062 164.0625 80.726562 160.796875 C 78.539062 157.527344 76.695312 154.078125 75.195312 150.441406 C 73.695312 146.804688 72.566406 143.054688 71.8125 139.195312 C 71.054688 135.332031 70.6875 131.433594 70.703125 127.496094 L 64.875 127.503906 C 64.875 128.582031 64.898438 129.65625 64.949219 130.730469 C 65 131.808594 65.078125 132.878906 65.183594 133.953125 C 65.285156 135.023438 65.417969 136.089844 65.574219 137.15625 C 65.730469 138.21875 65.910156 139.28125 66.121094 140.335938 C 66.328125 141.390625 66.5625 142.441406 66.820312 143.484375 C 67.082031 144.527344 67.367188 145.566406 67.675781 146.59375 C 67.988281 147.625 68.324219 148.644531 68.683594 149.660156 C 69.046875 150.671875 69.433594 151.675781 69.84375 152.667969 C 70.253906 153.664062 70.6875 154.648438 71.144531 155.621094 C 71.605469 156.59375 72.085938 157.550781 72.59375 158.5 C 73.097656 159.449219 73.628906 160.386719 74.179688 161.308594 C 74.730469 162.230469 75.304688 163.136719 75.902344 164.03125 C 76.5 164.925781 77.117188 165.804688 77.757812 166.667969 C 78.398438 167.53125 79.058594 168.378906 79.738281 169.210938 C 80.421875 170.042969 81.121094 170.855469 81.84375 171.652344 C 82.566406 172.449219 83.304688 173.226562 84.066406 173.988281 C 84.824219 174.746094 85.605469 175.488281 86.402344 176.210938 C 87.195312 176.929688 88.011719 177.632812 88.84375 178.3125 C 89.671875 178.996094 90.519531 179.65625 91.382812 180.296875 C 92.246094 180.9375 93.125 181.554688 94.019531 182.152344 C 94.914062 182.746094 95.824219 183.320312 96.746094 183.875 C 97.667969 184.425781 98.601562 184.953125 99.550781 185.460938 C 100.5 185.964844 101.460938 186.449219 102.433594 186.90625 C 103.40625 187.367188 104.390625 187.800781 105.382812 188.210938 C 106.375 188.621094 107.378906 189.007812 108.394531 189.367188 C 109.40625 189.726562 110.425781 190.0625 111.457031 190.375 C 112.488281 190.6875 113.523438 190.972656 114.566406 191.230469 C 115.613281 191.492188 116.660156 191.726562 117.71875 191.933594 C 118.773438 192.140625 119.832031 192.324219 120.898438 192.480469 C 121.960938 192.636719 123.03125 192.765625 124.101562 192.871094 C 125.171875 192.972656 126.246094 193.050781 127.320312 193.101562 C 128.394531 193.152344 129.472656 193.179688 130.546875 193.175781 L 359.359375 192.773438 L 365.199219 186.933594 L 130.554688 187.34375 C 126.613281 187.359375 122.714844 186.992188 118.851562 186.234375 C 114.988281 185.480469 111.238281 184.351562 107.601562 182.847656 C 103.96875 181.347656 100.515625 179.503906 97.246094 177.316406 C 93.980469 175.128906 90.960938 172.644531 88.1875 169.855469 Z M 46.871094 211.171875 C 44.128906 208.445312 41.527344 205.585938 39.066406 202.601562 C 36.609375 199.613281 34.304688 196.511719 32.152344 193.296875 C 30 190.082031 28.011719 186.765625 26.191406 183.355469 C 24.367188 179.941406 22.71875 176.445312 21.242188 172.867188 C 19.765625 169.289062 18.46875 165.648438 17.351562 161.941406 C 16.238281 158.234375 15.308594 154.480469 14.5625 150.679688 C 13.820312 146.878906 13.265625 143.050781 12.898438 139.195312 C 12.535156 135.335938 12.359375 131.472656 12.378906 127.597656 L 6.554688 127.601562 C 6.550781 129.632812 6.597656 131.660156 6.691406 133.691406 C 6.789062 135.71875 6.933594 137.742188 7.128906 139.765625 C 7.324219 141.785156 7.570312 143.800781 7.863281 145.808594 C 8.160156 147.816406 8.503906 149.816406 8.894531 151.808594 C 9.289062 153.800781 9.730469 155.78125 10.21875 157.75 C 10.710938 159.71875 11.246094 161.675781 11.835938 163.617188 C 12.421875 165.5625 13.054688 167.488281 13.734375 169.398438 C 14.414062 171.3125 15.144531 173.203125 15.917969 175.078125 C 16.691406 176.953125 17.511719 178.808594 18.375 180.644531 C 19.242188 182.480469 20.152344 184.292969 21.105469 186.082031 C 22.058594 187.871094 23.058594 189.636719 24.097656 191.375 C 25.140625 193.117188 26.222656 194.832031 27.347656 196.515625 C 28.472656 198.203125 29.640625 199.863281 30.847656 201.492188 C 32.054688 203.121094 33.300781 204.71875 34.585938 206.289062 C 35.871094 207.855469 37.195312 209.390625 38.558594 210.894531 C 39.917969 212.394531 41.316406 213.863281 42.75 215.296875 C 44.183594 216.730469 45.652344 218.128906 47.15625 219.492188 C 48.65625 220.851562 50.191406 222.175781 51.761719 223.460938 C 53.328125 224.746094 54.925781 225.992188 56.554688 227.199219 C 58.183594 228.40625 59.84375 229.574219 61.53125 230.699219 C 63.21875 231.824219 64.929688 232.910156 66.671875 233.949219 C 68.410156 234.992188 70.175781 235.988281 71.964844 236.941406 C 73.757812 237.898438 75.566406 238.808594 77.402344 239.671875 C 79.238281 240.535156 81.09375 241.355469 82.96875 242.128906 C 84.84375 242.90625 86.734375 243.632812 88.648438 244.3125 C 90.558594 244.992188 92.484375 245.628906 94.429688 246.214844 C 96.371094 246.800781 98.328125 247.335938 100.296875 247.828125 C 102.265625 248.316406 104.246094 248.757812 106.238281 249.152344 C 108.230469 249.542969 110.230469 249.886719 112.238281 250.183594 C 114.246094 250.476562 116.261719 250.722656 118.28125 250.917969 C 120.304688 251.113281 122.328125 251.257812 124.355469 251.355469 C 126.386719 251.449219 128.414062 251.496094 130.445312 251.492188 L 300.9375 251.195312 L 306.769531 245.363281 L 130.453125 245.667969 C 126.574219 245.6875 122.710938 245.511719 118.851562 245.148438 C 114.996094 244.78125 111.167969 244.226562 107.367188 243.484375 C 103.566406 242.738281 99.8125 241.808594 96.105469 240.691406 C 92.398438 239.578125 88.753906 238.28125 85.175781 236.804688 C 81.597656 235.328125 78.101562 233.675781 74.691406 231.855469 C 71.277344 230.03125 67.960938 228.042969 64.746094 225.890625 C 61.53125 223.738281 58.429688 221.433594 55.441406 218.976562 C 52.457031 216.515625 49.597656 213.914062 46.871094 211.171875 Z M 57.21875 200.824219 C 54.8125 198.433594 52.53125 195.929688 50.375 193.3125 C 48.21875 190.699219 46.195312 187.980469 44.308594 185.164062 C 42.421875 182.347656 40.679688 179.445312 39.078125 176.453125 C 37.480469 173.460938 36.03125 170.398438 34.734375 167.265625 C 33.441406 164.128906 32.300781 160.9375 31.320312 157.691406 C 30.339844 154.441406 29.523438 151.152344 28.867188 147.820312 C 28.214844 144.492188 27.726562 141.136719 27.402344 137.757812 C 27.082031 134.375 26.925781 130.988281 26.9375 127.59375 L 21.113281 127.597656 C 21.113281 129.390625 21.152344 131.179688 21.238281 132.972656 C 21.320312 134.761719 21.449219 136.546875 21.621094 138.332031 C 21.792969 140.117188 22.011719 141.894531 22.269531 143.667969 C 22.53125 145.4375 22.832031 147.203125 23.179688 148.960938 C 23.527344 150.71875 23.914062 152.46875 24.347656 154.207031 C 24.78125 155.941406 25.253906 157.667969 25.773438 159.382812 C 26.289062 161.097656 26.847656 162.800781 27.449219 164.484375 C 28.050781 166.171875 28.691406 167.84375 29.375 169.5 C 30.058594 171.152344 30.78125 172.789062 31.546875 174.410156 C 32.308594 176.027344 33.113281 177.628906 33.953125 179.207031 C 34.796875 180.785156 35.675781 182.34375 36.59375 183.878906 C 37.515625 185.417969 38.46875 186.929688 39.464844 188.417969 C 40.457031 189.90625 41.484375 191.371094 42.550781 192.808594 C 43.617188 194.246094 44.714844 195.65625 45.851562 197.039062 C 46.984375 198.421875 48.152344 199.777344 49.355469 201.105469 C 50.558594 202.429688 51.789062 203.726562 53.054688 204.992188 C 54.320312 206.257812 55.617188 207.492188 56.941406 208.691406 C 58.269531 209.894531 59.625 211.0625 61.007812 212.195312 C 62.390625 213.332031 63.800781 214.429688 65.238281 215.496094 C 66.679688 216.5625 68.140625 217.589844 69.628906 218.585938 C 71.117188 219.578125 72.632812 220.535156 74.167969 221.453125 C 75.703125 222.371094 77.261719 223.25 78.839844 224.09375 C 80.417969 224.9375 82.019531 225.738281 83.636719 226.503906 C 85.257812 227.265625 86.894531 227.988281 88.550781 228.671875 C 90.203125 229.355469 91.875 229.996094 93.5625 230.597656 C 95.25 231.199219 96.949219 231.757812 98.664062 232.273438 C 100.378906 232.792969 102.105469 233.265625 103.84375 233.699219 C 105.582031 234.132812 107.328125 234.519531 109.085938 234.867188 C 110.84375 235.214844 112.609375 235.515625 114.382812 235.777344 C 116.152344 236.035156 117.933594 236.253906 119.714844 236.425781 C 121.5 236.597656 123.285156 236.726562 125.078125 236.8125 C 126.867188 236.894531 128.65625 236.9375 130.449219 236.933594 L 315.523438 236.609375 L 321.378906 230.753906 L 130.457031 231.109375 C 127.058594 231.125 123.667969 230.96875 120.289062 230.648438 C 116.90625 230.324219 113.550781 229.839844 110.21875 229.183594 C 106.890625 228.53125 103.597656 227.714844 100.347656 226.734375 C 97.101562 225.753906 93.90625 224.617188 90.773438 223.320312 C 87.636719 222.023438 84.574219 220.578125 81.582031 218.976562 C 78.589844 217.378906 75.683594 215.636719 72.867188 213.75 C 70.046875 211.859375 67.332031 209.839844 64.714844 207.683594 C 62.097656 205.527344 59.59375 203.246094 57.203125 200.839844 Z M 67.566406 190.476562 C 65.5 188.417969 63.542969 186.265625 61.6875 184.011719 C 59.835938 181.761719 58.101562 179.425781 56.480469 177 C 54.859375 174.578125 53.363281 172.078125 51.992188 169.503906 C 50.617188 166.933594 49.375 164.296875 48.265625 161.601562 C 47.152344 158.902344 46.179688 156.160156 45.339844 153.363281 C 44.5 150.570312 43.800781 147.742188 43.242188 144.875 C 42.683594 142.011719 42.265625 139.125 41.992188 136.21875 C 41.71875 133.3125 41.589844 130.398438 41.605469 127.480469 L 35.71875 127.550781 C 35.714844 129.105469 35.75 130.65625 35.824219 132.207031 C 35.898438 133.761719 36.007812 135.308594 36.160156 136.855469 C 36.308594 138.402344 36.496094 139.941406 36.71875 141.480469 C 36.945312 143.015625 37.207031 144.546875 37.507812 146.070312 C 37.808594 147.59375 38.148438 149.109375 38.523438 150.617188 C 38.898438 152.121094 39.308594 153.617188 39.757812 155.105469 C 40.203125 156.589844 40.691406 158.066406 41.210938 159.527344 C 41.730469 160.988281 42.289062 162.4375 42.878906 163.871094 C 43.472656 165.308594 44.097656 166.726562 44.761719 168.128906 C 45.421875 169.535156 46.117188 170.917969 46.847656 172.289062 C 47.578125 173.65625 48.34375 175.007812 49.136719 176.339844 C 49.933594 177.671875 50.765625 178.980469 51.625 180.273438 C 52.484375 181.5625 53.378906 182.832031 54.300781 184.078125 C 55.226562 185.324219 56.179688 186.546875 57.160156 187.746094 C 58.144531 188.945312 59.160156 190.121094 60.199219 191.269531 C 61.242188 192.421875 62.308594 193.542969 63.40625 194.640625 C 64.503906 195.738281 65.628906 196.804688 66.777344 197.847656 C 67.925781 198.890625 69.101562 199.902344 70.300781 200.886719 C 71.5 201.867188 72.722656 202.824219 73.96875 203.746094 C 75.214844 204.667969 76.484375 205.5625 77.773438 206.421875 C 79.066406 207.285156 80.375 208.113281 81.707031 208.910156 C 83.039062 209.707031 84.390625 210.46875 85.757812 211.199219 C 87.128906 211.929688 88.515625 212.625 89.917969 213.285156 C 91.320312 213.949219 92.742188 214.574219 94.175781 215.167969 C 95.609375 215.757812 97.058594 216.316406 98.519531 216.835938 C 99.980469 217.359375 101.457031 217.84375 102.941406 218.289062 C 104.429688 218.738281 105.925781 219.152344 107.433594 219.527344 C 108.9375 219.902344 110.453125 220.238281 111.976562 220.539062 C 113.5 220.839844 115.03125 221.101562 116.566406 221.328125 C 118.105469 221.550781 119.644531 221.738281 121.191406 221.890625 C 122.738281 222.039062 124.289062 222.148438 125.839844 222.222656 C 127.390625 222.296875 128.945312 222.332031 130.496094 222.328125 L 330.144531 221.988281 L 335.984375 216.148438 L 130.46875 216.507812 C 127.550781 216.519531 124.640625 216.386719 121.734375 216.109375 C 118.832031 215.832031 115.945312 215.414062 113.085938 214.855469 C 110.222656 214.292969 107.394531 213.589844 104.605469 212.75 C 101.8125 211.910156 99.070312 210.933594 96.375 209.820312 C 93.679688 208.707031 91.046875 207.464844 88.476562 206.089844 C 85.90625 204.71875 83.410156 203.21875 80.988281 201.601562 C 78.570312 199.980469 76.234375 198.242188 73.984375 196.390625 C 71.734375 194.539062 69.582031 192.578125 67.527344 190.511719 Z M 56.125 127.519531 L 50.292969 127.53125 C 50.292969 128.84375 50.324219 130.15625 50.390625 131.46875 C 50.453125 132.78125 50.550781 134.09375 50.679688 135.398438 C 50.804688 136.707031 50.964844 138.011719 51.160156 139.3125 C 51.351562 140.609375 51.574219 141.90625 51.832031 143.191406 C 52.085938 144.480469 52.371094 145.761719 52.691406 147.035156 C 53.007812 148.308594 53.359375 149.574219 53.738281 150.832031 C 54.121094 152.089844 54.53125 153.335938 54.972656 154.574219 C 55.414062 155.808594 55.886719 157.035156 56.386719 158.246094 C 56.890625 159.460938 57.421875 160.660156 57.980469 161.847656 C 58.542969 163.03125 59.132812 164.207031 59.75 165.363281 C 60.367188 166.519531 61.015625 167.664062 61.6875 168.789062 C 62.363281 169.914062 63.0625 171.023438 63.792969 172.113281 C 64.519531 173.207031 65.277344 174.277344 66.058594 175.332031 C 66.839844 176.386719 67.644531 177.421875 68.476562 178.433594 C 69.308594 179.449219 70.167969 180.441406 71.046875 181.414062 C 71.929688 182.386719 72.832031 183.335938 73.761719 184.265625 C 74.6875 185.191406 75.640625 186.097656 76.609375 186.976562 C 77.582031 187.859375 78.578125 188.714844 79.589844 189.546875 C 80.605469 190.378906 81.640625 191.1875 82.695312 191.96875 C 83.746094 192.75 84.820312 193.503906 85.910156 194.234375 C 87.003906 194.960938 88.113281 195.664062 89.238281 196.335938 C 90.363281 197.011719 91.503906 197.65625 92.664062 198.277344 C 93.820312 198.894531 94.992188 199.484375 96.179688 200.042969 C 97.367188 200.605469 98.566406 201.136719 99.78125 201.636719 C 100.992188 202.140625 102.21875 202.613281 103.453125 203.054688 C 104.691406 203.496094 105.9375 203.90625 107.191406 204.285156 C 108.449219 204.667969 109.714844 205.015625 110.988281 205.335938 C 112.261719 205.652344 113.542969 205.941406 114.832031 206.195312 C 116.121094 206.449219 117.414062 206.675781 118.714844 206.867188 C 120.015625 207.058594 121.316406 207.21875 122.625 207.347656 C 123.933594 207.476562 125.242188 207.570312 126.554688 207.636719 C 127.867188 207.699219 129.179688 207.730469 130.496094 207.730469 L 344.710938 207.359375 L 350.546875 201.519531 L 130.527344 201.925781 C 129.308594 201.925781 128.089844 201.898438 126.871094 201.839844 C 125.652344 201.78125 124.4375 201.691406 123.222656 201.574219 C 122.011719 201.457031 120.800781 201.308594 119.59375 201.128906 C 118.390625 200.953125 117.1875 200.746094 115.992188 200.507812 C 114.796875 200.273438 113.609375 200.007812 112.425781 199.710938 C 111.242188 199.417969 110.070312 199.09375 108.902344 198.742188 C 107.734375 198.390625 106.578125 198.007812 105.433594 197.597656 C 104.285156 197.191406 103.148438 196.753906 102.023438 196.289062 C 100.894531 195.824219 99.78125 195.328125 98.679688 194.808594 C 97.578125 194.289062 96.492188 193.742188 95.417969 193.171875 C 94.34375 192.597656 93.28125 191.996094 92.238281 191.371094 C 91.195312 190.746094 90.164062 190.097656 89.152344 189.421875 C 88.140625 188.746094 87.144531 188.042969 86.164062 187.320312 C 85.1875 186.59375 84.226562 185.84375 83.285156 185.074219 C 82.34375 184.300781 81.421875 183.507812 80.519531 182.6875 C 79.617188 181.871094 78.738281 181.03125 77.875 180.171875 C 77.015625 179.308594 76.175781 178.429688 75.359375 177.527344 C 74.539062 176.625 73.746094 175.703125 72.972656 174.761719 C 72.203125 173.820312 71.453125 172.859375 70.726562 171.882812 C 70.003906 170.902344 69.304688 169.910156 68.628906 168.894531 C 67.949219 167.882812 67.300781 166.855469 66.675781 165.808594 C 66.050781 164.765625 65.449219 163.703125 64.878906 162.628906 C 64.304688 161.554688 63.757812 160.46875 63.238281 159.367188 C 62.71875 158.265625 62.226562 157.152344 61.761719 156.027344 C 61.292969 154.898438 60.859375 153.761719 60.449219 152.617188 C 60.039062 151.46875 59.65625 150.3125 59.304688 149.144531 C 58.953125 147.980469 58.628906 146.804688 58.335938 145.621094 C 58.039062 144.4375 57.773438 143.25 57.539062 142.054688 C 57.300781 140.859375 57.09375 139.660156 56.917969 138.453125 C 56.738281 137.246094 56.589844 136.035156 56.472656 134.824219 C 56.355469 133.609375 56.265625 132.394531 56.207031 131.175781 C 56.148438 129.957031 56.121094 128.738281 56.125 127.519531 Z M 56.125 127.519531 " clip-rule="nonzero"/></clipPath></defs><g clip-path="url(#fbcbe6d541)"><g clip-path="url(#3e6a332fad)"><g clip-path="url(#9475870049)"><g clip-path="url(#9131895d42)"><path fill="url(#40525ffcd1)" d="M 255.398438 3.230469 L 6.457031 3.75 L 6.128906 161.507812 L 255.070312 160.988281 Z M 255.398438 3.230469 " fill-rule="nonzero"/></g></g></g></g><g clip-path="url(#5b104cba68)"><g clip-path="url(#5aa7a462eb)"><g clip-path="url(#f27442a4fc)"><g clip-path="url(#3d8534426a)"><path fill="url(#424c6070ab)" d="M 255.132812 245.566406 L 161.316406 245.46875 L 161.449219 375 L 255.265625 375.097656 Z M 255.132812 245.566406 " fill-rule="nonzero"/></g></g></g></g><g clip-path="url(#73cd654778)"><g clip-path="url(#037eb4ab64)"><g clip-path="url(#651899acfa)"><g clip-path="url(#fabce3c977)"><path fill="#38b6ff" d="M -55.484375 189.460938 L 190.777344 435.722656 L 437.039062 189.460938 L 190.777344 -56.800781 Z M -55.484375 189.460938 " fill-opacity="1" fill-rule="nonzero"/></g></g></g></g></svg>