<svg xmlns="http://www.w3.org/2000/svg" xmlns:xlink="http://www.w3.org/1999/xlink" width="500" zoomAndPan="magnify" viewBox="0 0 375 374.999991" height="500" preserveAspectRatio="xMidYMid meet" version="1.0"><defs><clipPath id="0bbdb65b19"><path d="M 68 138 L 183 138 L 183 319 L 68 319 Z M 68 138 " clip-rule="nonzero"/></clipPath><clipPath id="8643cb39fe"><path d="M 140.539062 337.492188 L 31.394531 228.34375 L 151.910156 107.828125 L 261.054688 216.976562 Z M 140.539062 337.492188 " clip-rule="nonzero"/></clipPath><clipPath id="bc524ee147"><path d="M 140.539062 337.492188 L 31.394531 228.34375 L 151.910156 107.828125 L 261.054688 216.976562 Z M 140.539062 337.492188 " clip-rule="nonzero"/></clipPath><clipPath id="002324d8b8"><path d="M 117.578125 187.28125 C 116.566406 188.292969 115.589844 189.339844 114.65625 190.421875 C 113.722656 191.507812 112.832031 192.621094 111.976562 193.773438 C 111.125 194.921875 110.320312 196.101562 109.554688 197.3125 C 108.789062 198.519531 108.070312 199.757812 107.398438 201.019531 C 106.722656 202.285156 106.097656 203.570312 105.519531 204.878906 C 104.941406 206.1875 104.410156 207.515625 103.933594 208.867188 C 103.453125 210.214844 103.023438 211.578125 102.640625 212.960938 C 102.261719 214.34375 101.933594 215.734375 101.65625 217.140625 C 101.378906 218.546875 101.15625 219.960938 100.984375 221.382812 C 100.8125 222.804688 100.691406 224.234375 100.625 225.664062 C 100.554688 227.097656 100.542969 228.527344 100.578125 229.960938 C 100.617188 231.394531 100.707031 232.824219 100.851562 234.253906 C 100.996094 235.679688 101.191406 237.101562 101.4375 238.511719 C 101.6875 239.925781 101.988281 241.328125 102.339844 242.71875 C 102.691406 244.109375 103.089844 245.488281 103.542969 246.851562 C 103.996094 248.210938 104.5 249.554688 105.050781 250.882812 C 105.601562 252.207031 106.199219 253.511719 106.847656 254.792969 C 107.496094 256.074219 108.1875 257.332031 108.929688 258.5625 C 109.667969 259.792969 110.453125 260.996094 111.28125 262.171875 C 112.109375 263.34375 112.976562 264.488281 113.890625 265.597656 C 114.800781 266.707031 115.753906 267.78125 116.746094 268.824219 C 117.734375 269.863281 118.761719 270.867188 119.828125 271.832031 C 120.890625 272.796875 121.988281 273.71875 123.121094 274.605469 C 124.253906 275.488281 125.417969 276.332031 126.609375 277.128906 C 127.804688 277.929688 129.027344 278.683594 130.273438 279.390625 C 131.523438 280.101562 132.796875 280.761719 134.09375 281.378906 C 135.390625 281.992188 136.710938 282.5625 138.046875 283.078125 C 139.386719 283.597656 140.742188 284.066406 142.117188 284.484375 C 143.488281 284.90625 144.875 285.273438 146.273438 285.589844 C 147.675781 285.90625 149.082031 286.171875 150.5 286.386719 C 151.921875 286.597656 153.34375 286.757812 154.773438 286.867188 C 156.203125 286.976562 157.636719 287.03125 159.070312 287.035156 L 159.058594 282.804688 C 157.285156 282.800781 155.515625 282.707031 153.75 282.53125 C 151.984375 282.351562 150.230469 282.089844 148.488281 281.738281 C 146.75 281.386719 145.03125 280.953125 143.332031 280.433594 C 141.632812 279.917969 139.964844 279.316406 138.324219 278.632812 C 136.683594 277.949219 135.082031 277.191406 133.515625 276.351562 C 131.949219 275.511719 130.425781 274.597656 128.949219 273.605469 C 127.472656 272.617188 126.046875 271.558594 124.675781 270.429688 C 123.300781 269.300781 121.988281 268.109375 120.730469 266.851562 C 119.472656 265.59375 118.28125 264.28125 117.152344 262.90625 C 116.023438 261.53125 114.96875 260.105469 113.980469 258.628906 C 112.992188 257.152344 112.078125 255.632812 111.238281 254.066406 C 110.398438 252.5 109.636719 250.894531 108.957031 249.253906 C 108.273438 247.613281 107.671875 245.945312 107.15625 244.246094 C 106.636719 242.546875 106.203125 240.828125 105.855469 239.085938 C 105.503906 237.347656 105.242188 235.59375 105.0625 233.828125 C 104.886719 232.0625 104.796875 230.292969 104.792969 228.519531 C 104.789062 226.746094 104.875 224.976562 105.042969 223.210938 C 105.214844 221.445312 105.472656 219.695312 105.8125 217.957031 C 106.15625 216.214844 106.582031 214.5 107.09375 212.800781 C 107.605469 211.105469 108.199219 209.4375 108.875 207.800781 C 109.550781 206.164062 110.308594 204.566406 111.140625 203.003906 C 111.972656 201.441406 112.882812 199.921875 113.863281 198.449219 C 114.847656 196.976562 115.898438 195.554688 117.023438 194.1875 C 118.144531 192.820312 119.332031 191.507812 120.582031 190.257812 C 121.835938 189.007812 123.144531 187.820312 124.515625 186.695312 C 125.882812 185.574219 127.304688 184.523438 128.777344 183.539062 C 130.25 182.558594 131.769531 181.652344 133.332031 180.820312 C 134.894531 179.984375 136.496094 179.230469 138.132812 178.558594 C 139.769531 177.882812 141.4375 177.289062 143.132812 176.777344 C 144.828125 176.265625 146.546875 175.839844 148.285156 175.496094 C 150.027344 175.15625 151.777344 174.898438 153.542969 174.730469 C 155.308594 174.558594 157.078125 174.476562 158.851562 174.480469 L 182.75 174.53125 L 182.734375 170.300781 L 158.839844 170.28125 C 155.003906 170.261719 151.203125 170.617188 147.441406 171.351562 C 143.679688 172.085938 140.027344 173.179688 136.488281 174.640625 C 132.945312 176.097656 129.582031 177.890625 126.402344 180.019531 C 123.21875 182.148438 120.277344 184.566406 117.578125 187.28125 Z M 132.589844 202.292969 C 131.300781 203.585938 130.109375 204.964844 129.023438 206.429688 C 127.9375 207.898438 126.964844 209.4375 126.105469 211.046875 C 125.246094 212.660156 124.511719 214.324219 123.898438 216.046875 C 123.285156 217.765625 122.804688 219.523438 122.449219 221.316406 C 122.097656 223.109375 121.878906 224.921875 121.792969 226.746094 C 121.707031 228.574219 121.753906 230.398438 121.9375 232.21875 C 122.121094 234.039062 122.4375 235.835938 122.882812 237.613281 C 123.332031 239.386719 123.90625 241.121094 124.613281 242.8125 C 125.316406 244.503906 126.136719 246.136719 127.082031 247.707031 C 128.027344 249.277344 129.078125 250.769531 130.242188 252.1875 C 131.40625 253.605469 132.667969 254.929688 134.023438 256.160156 C 135.382812 257.390625 136.820312 258.515625 138.34375 259.535156 C 139.867188 260.554688 141.457031 261.457031 143.113281 262.242188 C 144.765625 263.027344 146.46875 263.6875 148.222656 264.222656 C 149.972656 264.757812 151.753906 265.164062 153.5625 265.433594 C 155.375 265.707031 157.191406 265.84375 159.023438 265.847656 L 159.011719 261.613281 C 157.933594 261.613281 156.855469 261.558594 155.78125 261.449219 C 154.707031 261.34375 153.640625 261.183594 152.578125 260.96875 C 151.519531 260.757812 150.472656 260.492188 149.4375 260.175781 C 148.40625 259.863281 147.386719 259.496094 146.390625 259.082031 C 145.390625 258.667969 144.414062 258.203125 143.460938 257.691406 C 142.507812 257.183594 141.582031 256.625 140.683594 256.023438 C 139.78125 255.421875 138.914062 254.777344 138.078125 254.089844 C 137.242188 253.40625 136.441406 252.679688 135.675781 251.914062 C 134.910156 251.148438 134.183594 250.347656 133.5 249.511719 C 132.8125 248.675781 132.167969 247.808594 131.566406 246.910156 C 130.964844 246.011719 130.40625 245.082031 129.894531 244.128906 C 129.382812 243.175781 128.921875 242.199219 128.507812 241.203125 C 128.089844 240.203125 127.726562 239.1875 127.410156 238.152344 C 127.09375 237.121094 126.828125 236.074219 126.617188 235.011719 C 126.402344 233.953125 126.242188 232.886719 126.136719 231.8125 C 126.027344 230.738281 125.972656 229.660156 125.96875 228.578125 C 125.96875 227.5 126.019531 226.421875 126.121094 225.347656 C 126.226562 224.273438 126.382812 223.207031 126.589844 222.148438 C 126.800781 221.089844 127.058594 220.042969 127.371094 219.011719 C 127.683594 217.976562 128.042969 216.964844 128.453125 215.964844 C 128.867188 214.96875 129.324219 213.996094 129.832031 213.042969 C 130.339844 212.09375 130.894531 211.167969 131.492188 210.273438 C 132.089844 209.375 132.730469 208.511719 133.414062 207.679688 C 134.097656 206.84375 134.820312 206.046875 135.582031 205.285156 C 136.34375 204.523438 137.140625 203.800781 137.976562 203.117188 C 138.808594 202.4375 139.675781 201.796875 140.570312 201.199219 C 141.46875 200.597656 142.390625 200.046875 143.34375 199.539062 C 144.292969 199.035156 145.269531 198.574219 146.265625 198.164062 C 147.261719 197.753906 148.277344 197.390625 149.3125 197.082031 C 150.34375 196.769531 151.390625 196.511719 152.449219 196.300781 C 153.507812 196.09375 154.574219 195.9375 155.648438 195.835938 C 156.722656 195.734375 157.800781 195.683594 158.878906 195.683594 L 182.808594 195.734375 L 182.796875 191.503906 L 158.867188 191.453125 C 156.421875 191.441406 154.003906 191.671875 151.609375 192.140625 C 149.210938 192.609375 146.886719 193.308594 144.632812 194.238281 C 142.375 195.167969 140.234375 196.3125 138.210938 197.667969 C 136.183594 199.023438 134.308594 200.566406 132.589844 202.292969 Z M 125.070312 194.773438 C 123.414062 196.429688 121.886719 198.203125 120.492188 200.085938 C 119.097656 201.972656 117.847656 203.949219 116.746094 206.019531 C 115.644531 208.085938 114.699219 210.226562 113.914062 212.4375 C 113.128906 214.648438 112.507812 216.902344 112.054688 219.207031 C 111.601562 221.511719 111.320312 223.835938 111.210938 226.179688 C 111.097656 228.527344 111.160156 230.867188 111.398438 233.207031 C 111.632812 235.542969 112.039062 237.855469 112.613281 240.132812 C 113.1875 242.414062 113.925781 244.640625 114.832031 246.8125 C 115.734375 248.984375 116.789062 251.078125 118.003906 253.097656 C 119.214844 255.113281 120.566406 257.03125 122.058594 258.851562 C 123.554688 260.671875 125.171875 262.371094 126.914062 263.953125 C 128.65625 265.535156 130.507812 266.980469 132.460938 268.292969 C 134.417969 269.601562 136.457031 270.761719 138.582031 271.769531 C 140.707031 272.78125 142.894531 273.628906 145.144531 274.316406 C 147.390625 275.003906 149.679688 275.523438 152.003906 275.875 C 154.328125 276.226562 156.664062 276.40625 159.011719 276.410156 L 159.035156 272.210938 C 157.632812 272.171875 156.230469 272.066406 154.835938 271.894531 C 153.441406 271.71875 152.058594 271.480469 150.6875 271.171875 C 149.316406 270.867188 147.960938 270.496094 146.625 270.058594 C 145.289062 269.621094 143.976562 269.121094 142.6875 268.554688 C 141.398438 267.992188 140.140625 267.367188 138.910156 266.679688 C 137.683594 265.996094 136.488281 265.25 135.332031 264.449219 C 134.175781 263.648438 133.058594 262.796875 131.984375 261.886719 C 130.910156 260.980469 129.878906 260.019531 128.894531 259.011719 C 127.914062 258.003906 126.980469 256.953125 126.101562 255.855469 C 125.21875 254.757812 124.390625 253.621094 123.621094 252.445312 C 122.847656 251.269531 122.132812 250.058594 121.480469 248.8125 C 120.824219 247.566406 120.230469 246.292969 119.699219 244.992188 C 119.167969 243.691406 118.699219 242.363281 118.292969 241.019531 C 117.890625 239.671875 117.550781 238.308594 117.277344 236.929688 C 117.007812 235.550781 116.800781 234.160156 116.664062 232.765625 C 116.523438 231.367188 116.453125 229.964844 116.449219 228.558594 C 116.449219 227.15625 116.511719 225.753906 116.644531 224.355469 C 116.777344 222.957031 116.976562 221.570312 117.246094 220.191406 C 117.511719 218.816406 117.84375 217.453125 118.242188 216.109375 C 118.640625 214.761719 119.105469 213.441406 119.632812 212.140625 C 120.15625 210.839844 120.746094 209.570312 121.398438 208.328125 C 122.046875 207.085938 122.753906 205.878906 123.523438 204.703125 C 124.289062 203.53125 125.109375 202.398438 125.988281 201.304688 C 126.867188 200.210938 127.792969 199.160156 128.773438 198.160156 C 129.75 197.15625 130.777344 196.203125 131.847656 195.296875 C 132.917969 194.394531 134.03125 193.542969 135.183594 192.75 C 136.339844 191.953125 137.53125 191.214844 138.753906 190.535156 C 139.980469 189.855469 141.238281 189.234375 142.523438 188.675781 C 143.808594 188.117188 145.121094 187.621094 146.457031 187.191406 C 147.789062 186.757812 149.144531 186.390625 150.511719 186.089844 C 151.882812 185.789062 153.265625 185.554688 154.660156 185.390625 C 156.054688 185.222656 157.453125 185.121094 158.859375 185.089844 L 182.769531 185.140625 L 182.757812 180.910156 L 158.84375 180.859375 C 155.707031 180.847656 152.597656 181.140625 149.519531 181.742188 C 146.441406 182.34375 143.453125 183.242188 140.554688 184.4375 C 137.660156 185.632812 134.90625 187.101562 132.304688 188.84375 C 129.699219 190.585938 127.292969 192.566406 125.085938 194.789062 Z M 102.546875 172.25 C 101.628906 173.167969 100.734375 174.109375 99.859375 175.074219 C 98.988281 176.039062 98.140625 177.023438 97.316406 178.027344 C 96.492188 179.03125 95.695312 180.058594 94.921875 181.101562 C 94.148438 182.148438 93.402344 183.210938 92.679688 184.292969 C 91.960938 185.371094 91.265625 186.472656 90.597656 187.585938 C 89.933594 188.703125 89.292969 189.835938 88.683594 190.980469 C 88.070312 192.128906 87.488281 193.292969 86.933594 194.46875 C 86.378906 195.644531 85.855469 196.832031 85.359375 198.035156 C 84.863281 199.238281 84.398438 200.453125 83.964844 201.675781 C 83.527344 202.902344 83.121094 204.136719 82.746094 205.382812 C 82.371094 206.628906 82.027344 207.882812 81.714844 209.144531 C 81.402344 210.410156 81.117188 211.679688 80.867188 212.957031 C 80.617188 214.230469 80.398438 215.515625 80.207031 216.800781 C 80.019531 218.089844 79.863281 219.382812 79.738281 220.675781 C 79.617188 221.972656 79.523438 223.273438 79.460938 224.570312 C 79.402344 225.871094 79.371094 227.175781 79.375 228.476562 C 79.378906 229.777344 79.414062 231.082031 79.480469 232.382812 C 79.546875 233.683594 79.644531 234.980469 79.777344 236.277344 C 79.90625 237.574219 80.070312 238.867188 80.265625 240.152344 C 80.457031 241.441406 80.683594 242.726562 80.941406 244.003906 C 81.199219 245.28125 81.488281 246.550781 81.804688 247.816406 C 82.125 249.078125 82.476562 250.335938 82.855469 251.582031 C 83.238281 252.828125 83.648438 254.066406 84.089844 255.292969 C 84.53125 256.519531 85.003906 257.734375 85.503906 258.9375 C 86.003906 260.144531 86.535156 261.335938 87.09375 262.511719 C 87.65625 263.691406 88.242188 264.855469 88.859375 266.003906 C 89.476562 267.15625 90.121094 268.289062 90.792969 269.40625 C 91.464844 270.523438 92.164062 271.625 92.890625 272.710938 C 93.617188 273.792969 94.367188 274.859375 95.144531 275.90625 C 95.925781 276.953125 96.726562 277.984375 97.554688 278.992188 C 98.382812 280 99.238281 280.988281 100.113281 281.953125 C 100.992188 282.917969 101.890625 283.863281 102.8125 284.785156 C 104.65625 286.640625 106.582031 288.398438 108.597656 290.058594 C 110.613281 291.722656 112.703125 293.28125 114.871094 294.738281 C 117.039062 296.195312 119.273438 297.539062 121.574219 298.777344 C 123.875 300.011719 126.230469 301.132812 128.640625 302.132812 C 131.050781 303.136719 133.503906 304.019531 136 304.78125 C 138.496094 305.542969 141.023438 306.175781 143.582031 306.6875 C 146.140625 307.199219 148.714844 307.582031 151.3125 307.839844 C 153.90625 308.09375 156.507812 308.222656 159.113281 308.222656 L 159.085938 304.007812 C 157.851562 304.003906 156.621094 303.972656 155.390625 303.910156 C 154.15625 303.84375 152.929688 303.75 151.699219 303.628906 C 150.472656 303.503906 149.25 303.351562 148.03125 303.167969 C 146.808594 302.984375 145.59375 302.769531 144.386719 302.527344 C 143.175781 302.285156 141.972656 302.011719 140.777344 301.710938 C 139.578125 301.410156 138.390625 301.078125 137.210938 300.714844 C 136.027344 300.355469 134.859375 299.96875 133.695312 299.550781 C 132.535156 299.132812 131.382812 298.683594 130.242188 298.210938 C 129.101562 297.738281 127.976562 297.234375 126.859375 296.707031 C 125.742188 296.175781 124.640625 295.621094 123.554688 295.035156 C 122.464844 294.453125 121.390625 293.84375 120.332031 293.207031 C 119.273438 292.570312 118.230469 291.910156 117.203125 291.222656 C 116.175781 290.535156 115.167969 289.824219 114.175781 289.085938 C 113.183594 288.351562 112.210938 287.589844 111.257812 286.804688 C 110.300781 286.019531 109.367188 285.214844 108.453125 284.382812 C 107.535156 283.554688 106.640625 282.703125 105.769531 281.828125 C 104.894531 280.953125 104.042969 280.058594 103.210938 279.144531 C 102.382812 278.230469 101.574219 277.292969 100.792969 276.339844 C 100.007812 275.386719 99.246094 274.414062 98.511719 273.421875 C 97.773438 272.429688 97.0625 271.417969 96.375 270.394531 C 95.6875 269.367188 95.027344 268.324219 94.390625 267.265625 C 93.753906 266.207031 93.144531 265.132812 92.558594 264.042969 C 91.976562 262.953125 91.421875 261.851562 90.890625 260.738281 C 90.363281 259.621094 89.859375 258.492188 89.386719 257.351562 C 88.910156 256.214844 88.464844 255.0625 88.046875 253.898438 C 87.628906 252.738281 87.242188 251.566406 86.878906 250.386719 C 86.519531 249.207031 86.1875 248.015625 85.886719 246.820312 C 85.585938 245.625 85.3125 244.421875 85.070312 243.210938 C 84.824219 242 84.613281 240.785156 84.429688 239.566406 C 84.246094 238.347656 84.089844 237.121094 83.96875 235.894531 C 83.84375 234.667969 83.75 233.4375 83.6875 232.207031 C 83.625 230.976562 83.59375 229.742188 83.589844 228.511719 C 83.585938 227.277344 83.613281 226.046875 83.671875 224.8125 C 83.730469 223.582031 83.820312 222.351562 83.9375 221.125 C 84.054688 219.898438 84.203125 218.675781 84.382812 217.457031 C 84.5625 216.238281 84.769531 215.023438 85.007812 213.816406 C 85.246094 212.605469 85.511719 211.402344 85.808594 210.207031 C 86.105469 209.011719 86.433594 207.824219 86.789062 206.648438 C 87.144531 205.46875 87.527344 204.296875 87.941406 203.136719 C 88.355469 201.976562 88.796875 200.828125 89.265625 199.691406 C 89.734375 198.550781 90.230469 197.425781 90.757812 196.3125 C 91.28125 195.199219 91.835938 194.097656 92.414062 193.011719 C 92.992188 191.925781 93.597656 190.855469 94.230469 189.800781 C 94.859375 188.742188 95.519531 187.703125 96.199219 186.679688 C 96.882812 185.65625 97.589844 184.648438 98.324219 183.660156 C 99.054688 182.671875 99.8125 181.703125 100.59375 180.75 C 101.375 179.796875 102.175781 178.867188 103.003906 177.953125 C 103.828125 177.042969 104.675781 176.152344 105.546875 175.28125 C 106.417969 174.410156 107.308594 173.5625 108.21875 172.738281 C 109.132812 171.910156 110.0625 171.109375 111.015625 170.328125 C 111.964844 169.546875 112.9375 168.792969 113.925781 168.058594 C 114.914062 167.328125 115.921875 166.617188 116.945312 165.9375 C 117.96875 165.253906 119.007812 164.597656 120.0625 163.964844 C 121.121094 163.332031 122.191406 162.726562 123.277344 162.148438 C 124.363281 161.570312 125.464844 161.015625 126.578125 160.492188 C 127.691406 159.96875 128.816406 159.46875 129.957031 159 C 131.09375 158.53125 132.242188 158.089844 133.402344 157.675781 C 134.5625 157.265625 135.730469 156.878906 136.910156 156.523438 C 138.089844 156.167969 139.277344 155.84375 140.472656 155.546875 C 141.667969 155.25 142.871094 154.980469 144.078125 154.742188 C 145.289062 154.503906 146.503906 154.296875 147.722656 154.117188 C 148.941406 153.9375 150.164062 153.789062 151.390625 153.671875 C 152.617188 153.554688 153.847656 153.464844 155.078125 153.40625 C 156.308594 153.351562 157.542969 153.324219 158.773438 153.324219 L 182.664062 153.359375 L 182.652344 149.128906 L 158.777344 149.078125 C 156.171875 149.066406 153.570312 149.183594 150.976562 149.425781 C 148.382812 149.671875 145.804688 150.042969 143.25 150.542969 C 140.691406 151.042969 138.167969 151.667969 135.675781 152.417969 C 133.179688 153.167969 130.730469 154.039062 128.324219 155.03125 C 125.917969 156.023438 123.566406 157.132812 121.269531 158.359375 C 118.976562 159.585938 116.746094 160.921875 114.582031 162.367188 C 112.421875 163.816406 110.335938 165.363281 108.328125 167.019531 C 106.320312 168.671875 104.398438 170.421875 102.5625 172.265625 Z M 140.078125 209.78125 C 139.15625 210.707031 138.304688 211.691406 137.53125 212.742188 C 136.753906 213.789062 136.058594 214.890625 135.441406 216.042969 C 134.828125 217.195312 134.304688 218.386719 133.863281 219.621094 C 133.425781 220.851562 133.082031 222.105469 132.828125 223.390625 C 132.578125 224.671875 132.417969 225.964844 132.359375 227.273438 C 132.296875 228.578125 132.332031 229.882812 132.460938 231.1875 C 132.59375 232.488281 132.820312 233.773438 133.140625 235.042969 C 133.460938 236.3125 133.871094 237.550781 134.375 238.761719 C 134.878906 239.972656 135.46875 241.136719 136.140625 242.261719 C 136.816406 243.386719 137.570312 244.453125 138.402344 245.46875 C 139.234375 246.480469 140.136719 247.425781 141.105469 248.308594 C 142.078125 249.1875 143.109375 249.992188 144.195312 250.722656 C 145.285156 251.453125 146.421875 252.097656 147.605469 252.660156 C 148.789062 253.222656 150.007812 253.695312 151.261719 254.074219 C 152.511719 254.457031 153.785156 254.746094 155.082031 254.941406 C 156.375 255.136719 157.675781 255.238281 158.984375 255.238281 L 158.980469 251.007812 C 158.246094 251.007812 157.515625 250.96875 156.785156 250.898438 C 156.058594 250.824219 155.332031 250.714844 154.613281 250.570312 C 153.894531 250.425781 153.183594 250.246094 152.484375 250.03125 C 151.78125 249.816406 151.089844 249.570312 150.414062 249.289062 C 149.738281 249.007812 149.074219 248.691406 148.425781 248.34375 C 147.78125 248 147.152344 247.621094 146.542969 247.210938 C 145.929688 246.804688 145.34375 246.367188 144.777344 245.902344 C 144.207031 245.433594 143.664062 244.941406 143.144531 244.421875 C 142.625 243.902344 142.132812 243.359375 141.667969 242.792969 C 141.203125 242.226562 140.765625 241.636719 140.355469 241.027344 C 139.949219 240.417969 139.570312 239.789062 139.222656 239.140625 C 138.875 238.496094 138.5625 237.832031 138.28125 237.15625 C 138 236.476562 137.75 235.789062 137.535156 235.085938 C 137.324219 234.382812 137.144531 233.675781 137 232.957031 C 136.855469 232.234375 136.746094 231.511719 136.671875 230.78125 C 136.597656 230.054688 136.5625 229.320312 136.558594 228.589844 C 136.558594 227.855469 136.59375 227.125 136.664062 226.398438 C 136.734375 225.667969 136.839844 224.945312 136.980469 224.226562 C 137.121094 223.507812 137.296875 222.796875 137.507812 222.097656 C 137.71875 221.394531 137.964844 220.707031 138.246094 220.03125 C 138.523438 219.355469 138.835938 218.695312 139.179688 218.046875 C 139.523438 217.402344 139.898438 216.777344 140.304688 216.167969 C 140.710938 215.558594 141.144531 214.972656 141.609375 214.40625 C 142.070312 213.839844 142.5625 213.300781 143.078125 212.78125 C 143.597656 212.265625 144.136719 211.777344 144.703125 211.3125 C 145.269531 210.847656 145.855469 210.414062 146.464844 210.007812 C 147.074219 209.601562 147.699219 209.226562 148.34375 208.882812 C 148.992188 208.539062 149.652344 208.226562 150.328125 207.949219 C 151.003906 207.667969 151.691406 207.425781 152.394531 207.214844 C 153.09375 207 153.804688 206.824219 154.523438 206.683594 C 155.242188 206.542969 155.964844 206.4375 156.691406 206.367188 C 157.421875 206.296875 158.152344 206.261719 158.886719 206.261719 L 182.832031 206.34375 L 182.808594 202.113281 L 158.875 202.0625 C 157.128906 202.054688 155.398438 202.21875 153.6875 202.554688 C 151.976562 202.886719 150.3125 203.386719 148.703125 204.050781 C 147.089844 204.714844 145.5625 205.527344 144.113281 206.496094 C 142.664062 207.464844 141.324219 208.566406 140.09375 209.796875 Z M 110.054688 179.757812 C 108.859375 180.953125 107.710938 182.191406 106.605469 183.472656 C 105.5 184.753906 104.445312 186.070312 103.4375 187.429688 C 102.429688 188.789062 101.476562 190.183594 100.570312 191.613281 C 99.667969 193.042969 98.820312 194.503906 98.023438 195.996094 C 97.226562 197.488281 96.488281 199.007812 95.804688 200.554688 C 95.121094 202.101562 94.492188 203.671875 93.925781 205.265625 C 93.359375 206.859375 92.851562 208.472656 92.402344 210.105469 C 91.953125 211.738281 91.5625 213.382812 91.238281 215.042969 C 90.910156 216.707031 90.644531 218.375 90.441406 220.058594 C 90.234375 221.738281 90.09375 223.425781 90.015625 225.117188 C 89.933594 226.808594 89.917969 228.503906 89.960938 230.195312 C 90.007812 231.890625 90.113281 233.582031 90.285156 235.265625 C 90.453125 236.953125 90.683594 238.632812 90.976562 240.300781 C 91.269531 241.972656 91.625 243.628906 92.039062 245.273438 C 92.453125 246.917969 92.929688 248.542969 93.464844 250.152344 C 94 251.765625 94.59375 253.351562 95.242188 254.917969 C 95.894531 256.484375 96.605469 258.027344 97.371094 259.542969 C 98.132812 261.054688 98.953125 262.542969 99.828125 263.996094 C 100.703125 265.453125 101.628906 266.871094 102.605469 268.257812 C 103.585938 269.648438 104.613281 270.996094 105.691406 272.308594 C 106.769531 273.621094 107.894531 274.890625 109.066406 276.121094 C 110.234375 277.347656 111.449219 278.535156 112.707031 279.675781 C 113.964844 280.8125 115.265625 281.90625 116.601562 282.953125 C 117.941406 283.996094 119.316406 284.992188 120.726562 285.933594 C 122.136719 286.878906 123.582031 287.769531 125.058594 288.609375 C 126.53125 289.445312 128.039062 290.226562 129.570312 290.957031 C 131.105469 291.683594 132.664062 292.351562 134.246094 292.964844 C 135.828125 293.578125 137.429688 294.132812 139.050781 294.625 C 140.675781 295.121094 142.3125 295.554688 143.964844 295.929688 C 145.621094 296.304688 147.285156 296.617188 148.960938 296.867188 C 150.640625 297.117188 152.320312 297.308594 154.011719 297.4375 C 155.703125 297.5625 157.394531 297.628906 159.089844 297.632812 L 159.078125 293.398438 C 156.972656 293.375 154.867188 293.246094 152.769531 293.019531 C 150.675781 292.789062 148.59375 292.460938 146.527344 292.027344 C 144.460938 291.597656 142.421875 291.066406 140.40625 290.433594 C 138.390625 289.804688 136.414062 289.074219 134.46875 288.25 C 132.523438 287.425781 130.625 286.511719 128.769531 285.5 C 126.914062 284.492188 125.109375 283.394531 123.363281 282.210938 C 121.613281 281.027344 119.925781 279.757812 118.300781 278.410156 C 116.671875 277.058594 115.117188 275.636719 113.628906 274.132812 C 112.140625 272.632812 110.730469 271.0625 109.394531 269.425781 C 108.0625 267.789062 106.808594 266.089844 105.640625 264.328125 C 104.472656 262.570312 103.390625 260.757812 102.398438 258.894531 C 101.40625 257.027344 100.503906 255.121094 99.699219 253.167969 C 98.890625 251.21875 98.183594 249.230469 97.570312 247.210938 C 96.957031 245.191406 96.445312 243.148438 96.03125 241.078125 C 95.617188 239.007812 95.304688 236.925781 95.09375 234.824219 C 94.886719 232.726562 94.777344 230.621094 94.773438 228.515625 C 94.769531 226.40625 94.867188 224.300781 95.070312 222.203125 C 95.269531 220.105469 95.574219 218.023438 95.976562 215.957031 C 96.382812 213.886719 96.886719 211.84375 97.492188 209.828125 C 98.097656 207.808594 98.796875 205.828125 99.597656 203.878906 C 100.394531 201.929688 101.289062 200.027344 102.273438 198.167969 C 103.257812 196.304688 104.332031 194.5 105.492188 192.746094 C 106.65625 190.988281 107.898438 189.296875 109.226562 187.664062 C 110.554688 186.03125 111.960938 184.46875 113.441406 182.972656 C 114.921875 181.480469 116.472656 180.0625 118.09375 178.71875 C 119.714844 177.375 121.398438 176.117188 123.140625 174.9375 C 124.886719 173.761719 126.683594 172.671875 128.535156 171.671875 C 130.386719 170.667969 132.28125 169.761719 134.222656 168.945312 C 136.164062 168.128906 138.140625 167.410156 140.152344 166.785156 C 142.164062 166.164062 144.203125 165.640625 146.265625 165.21875 C 148.332031 164.796875 150.410156 164.472656 152.507812 164.253906 C 154.601562 164.035156 156.703125 163.917969 158.8125 163.902344 L 182.699219 163.957031 L 182.683594 159.722656 L 158.800781 159.671875 C 154.269531 159.652344 149.78125 160.074219 145.339844 160.945312 C 140.898438 161.8125 136.585938 163.109375 132.402344 164.835938 C 128.21875 166.558594 124.25 168.679688 120.492188 171.195312 C 116.734375 173.710938 113.257812 176.570312 110.070312 179.773438 Z M 68.78125 228.460938 C 68.785156 229.933594 68.824219 231.410156 68.898438 232.882812 C 68.972656 234.359375 69.085938 235.828125 69.234375 237.296875 C 69.378906 238.769531 69.5625 240.230469 69.785156 241.691406 C 70.003906 243.152344 70.257812 244.605469 70.550781 246.054688 C 70.839844 247.503906 71.167969 248.941406 71.527344 250.375 C 71.890625 251.808594 72.285156 253.230469 72.71875 254.644531 C 73.148438 256.054688 73.613281 257.457031 74.113281 258.847656 C 74.613281 260.238281 75.148438 261.617188 75.714844 262.980469 C 76.28125 264.34375 76.882812 265.695312 77.515625 267.03125 C 78.152344 268.367188 78.816406 269.683594 79.515625 270.988281 C 80.214844 272.289062 80.941406 273.574219 81.703125 274.84375 C 82.464844 276.109375 83.257812 277.359375 84.078125 278.585938 C 84.902344 279.816406 85.753906 281.023438 86.636719 282.210938 C 87.515625 283.398438 88.425781 284.5625 89.367188 285.707031 C 90.304688 286.847656 91.269531 287.96875 92.261719 289.0625 C 93.257812 290.160156 94.277344 291.230469 95.320312 292.273438 C 96.367188 293.320312 97.4375 294.339844 98.535156 295.332031 C 99.628906 296.328125 100.75 297.292969 101.890625 298.230469 C 103.035156 299.167969 104.199219 300.078125 105.386719 300.960938 C 106.574219 301.84375 107.78125 302.695312 109.007812 303.515625 C 110.238281 304.339844 111.484375 305.132812 112.753906 305.890625 C 114.019531 306.652344 115.304688 307.382812 116.609375 308.082031 C 117.910156 308.78125 119.230469 309.445312 120.566406 310.078125 C 121.902344 310.714844 123.25 311.3125 124.617188 311.882812 C 125.980469 312.449219 127.359375 312.984375 128.75 313.484375 C 130.140625 313.984375 131.539062 314.449219 132.953125 314.878906 C 134.367188 315.3125 135.789062 315.707031 137.222656 316.070312 C 138.652344 316.429688 140.09375 316.757812 141.542969 317.046875 C 142.988281 317.339844 144.445312 317.59375 145.902344 317.8125 C 147.363281 318.03125 148.828125 318.214844 150.296875 318.363281 C 151.765625 318.511719 153.238281 318.621094 154.710938 318.699219 C 156.1875 318.773438 157.660156 318.8125 159.136719 318.816406 L 159.125 314.585938 C 157.71875 314.582031 156.3125 314.542969 154.90625 314.472656 C 153.503906 314.402344 152.101562 314.296875 150.699219 314.152344 C 149.300781 314.011719 147.90625 313.839844 146.511719 313.628906 C 145.121094 313.421875 143.734375 313.175781 142.355469 312.898438 C 140.976562 312.621094 139.601562 312.3125 138.238281 311.96875 C 136.875 311.621094 135.515625 311.246094 134.171875 310.835938 C 132.824219 310.421875 131.488281 309.980469 130.164062 309.503906 C 128.835938 309.027344 127.523438 308.519531 126.222656 307.976562 C 124.921875 307.4375 123.636719 306.863281 122.363281 306.257812 C 121.09375 305.65625 119.835938 305.019531 118.59375 304.355469 C 117.351562 303.691406 116.125 302.996094 114.917969 302.269531 C 113.710938 301.542969 112.523438 300.789062 111.351562 300.003906 C 110.179688 299.222656 109.027344 298.410156 107.898438 297.570312 C 106.765625 296.730469 105.65625 295.863281 104.566406 294.96875 C 103.476562 294.074219 102.410156 293.152344 101.367188 292.207031 C 100.324219 291.257812 99.300781 290.289062 98.304688 289.289062 C 97.308594 288.292969 96.335938 287.273438 95.390625 286.230469 C 94.445312 285.1875 93.523438 284.121094 92.628906 283.03125 C 91.734375 281.941406 90.867188 280.832031 90.027344 279.699219 C 89.1875 278.566406 88.375 277.417969 87.589844 276.246094 C 86.808594 275.074219 86.054688 273.886719 85.328125 272.679688 C 84.601562 271.46875 83.90625 270.246094 83.242188 269.003906 C 82.574219 267.761719 81.941406 266.503906 81.335938 265.230469 C 80.734375 263.960938 80.160156 262.671875 79.621094 261.371094 C 79.078125 260.070312 78.570312 258.757812 78.09375 257.433594 C 77.617188 256.109375 77.171875 254.773438 76.761719 253.425781 C 76.351562 252.078125 75.972656 250.722656 75.628906 249.359375 C 75.285156 247.992188 74.972656 246.621094 74.695312 245.242188 C 74.417969 243.859375 74.175781 242.476562 73.96875 241.082031 C 73.757812 239.691406 73.582031 238.296875 73.441406 236.894531 C 73.300781 235.496094 73.195312 234.09375 73.125 232.6875 C 73.050781 231.285156 73.015625 229.878906 73.011719 228.472656 C 73.007812 227.066406 73.039062 225.660156 73.105469 224.257812 C 73.171875 222.851562 73.273438 221.449219 73.40625 220.050781 C 73.542969 218.652344 73.710938 217.253906 73.914062 215.863281 C 74.117188 214.472656 74.355469 213.089844 74.628906 211.710938 C 74.898438 210.332031 75.203125 208.960938 75.542969 207.597656 C 75.882812 206.234375 76.253906 204.878906 76.660156 203.535156 C 77.0625 202.1875 77.503906 200.855469 77.972656 199.53125 C 78.445312 198.207031 78.949219 196.898438 79.484375 195.597656 C 80.019531 194.300781 80.585938 193.015625 81.183594 191.746094 C 81.78125 190.476562 82.414062 189.222656 83.074219 187.980469 C 83.734375 186.742188 84.421875 185.519531 85.144531 184.316406 C 85.863281 183.113281 86.613281 181.925781 87.394531 180.757812 C 88.171875 179.589844 88.980469 178.441406 89.816406 177.3125 C 90.648438 176.1875 91.511719 175.078125 92.402344 173.996094 C 93.292969 172.910156 94.210938 171.847656 95.152344 170.804688 C 96.09375 169.765625 97.0625 168.75 98.054688 167.757812 C 99.046875 166.765625 100.0625 165.796875 101.101562 164.855469 C 102.140625 163.914062 103.207031 162.996094 104.289062 162.105469 C 105.375 161.214844 106.484375 160.355469 107.609375 159.519531 C 108.738281 158.683594 109.886719 157.875 111.054688 157.097656 C 112.222656 156.316406 113.40625 155.566406 114.613281 154.847656 C 115.816406 154.128906 117.039062 153.4375 118.277344 152.777344 C 119.519531 152.117188 120.773438 151.488281 122.042969 150.886719 C 123.3125 150.289062 124.597656 149.722656 125.894531 149.1875 C 127.195312 148.652344 128.503906 148.148438 129.828125 147.675781 C 131.152344 147.207031 132.484375 146.769531 133.828125 146.363281 C 135.175781 145.957031 136.53125 145.585938 137.894531 145.246094 C 139.257812 144.90625 140.628906 144.601562 142.007812 144.332031 C 143.386719 144.058594 144.769531 143.820312 146.160156 143.617188 C 147.550781 143.414062 148.945312 143.246094 150.347656 143.109375 C 151.746094 142.976562 153.148438 142.875 154.550781 142.808594 C 155.957031 142.742188 157.363281 142.710938 158.769531 142.714844 L 182.628906 142.765625 L 182.613281 138.535156 L 158.757812 138.484375 C 157.28125 138.480469 155.804688 138.515625 154.332031 138.585938 C 152.859375 138.652344 151.386719 138.757812 149.917969 138.902344 C 148.453125 139.042969 146.988281 139.21875 145.527344 139.433594 C 144.070312 139.648438 142.617188 139.894531 141.171875 140.179688 C 139.722656 140.464844 138.285156 140.785156 136.855469 141.140625 C 135.421875 141.496094 134.003906 141.886719 132.589844 142.3125 C 131.179688 142.738281 129.78125 143.199219 128.390625 143.691406 C 127.003906 144.1875 125.628906 144.714844 124.265625 145.277344 C 122.90625 145.839844 121.558594 146.433594 120.226562 147.0625 C 118.890625 147.691406 117.574219 148.351562 116.277344 149.042969 C 114.976562 149.734375 113.695312 150.460938 112.429688 151.214844 C 111.167969 151.972656 109.921875 152.757812 108.695312 153.578125 C 107.472656 154.394531 106.265625 155.242188 105.082031 156.117188 C 103.898438 156.992188 102.738281 157.898438 101.601562 158.832031 C 100.460938 159.765625 99.347656 160.726562 98.253906 161.714844 C 97.164062 162.703125 96.097656 163.71875 95.058594 164.761719 C 94.015625 165.800781 93 166.867188 92.011719 167.960938 C 91.023438 169.050781 90.0625 170.164062 89.128906 171.304688 C 88.195312 172.441406 87.289062 173.605469 86.414062 174.789062 C 85.535156 175.96875 84.691406 177.175781 83.871094 178.398438 C 83.054688 179.625 82.269531 180.871094 81.511719 182.132812 C 80.757812 183.398438 80.03125 184.679688 79.339844 185.980469 C 78.648438 187.28125 77.984375 188.597656 77.359375 189.929688 C 76.730469 191.261719 76.136719 192.609375 75.574219 193.96875 C 75.011719 195.332031 74.484375 196.707031 73.988281 198.097656 C 73.496094 199.484375 73.035156 200.882812 72.609375 202.296875 C 72.183594 203.707031 71.792969 205.128906 71.4375 206.558594 C 71.082031 207.988281 70.761719 209.425781 70.476562 210.875 C 70.191406 212.320312 69.941406 213.773438 69.730469 215.230469 C 69.515625 216.691406 69.339844 218.15625 69.195312 219.625 C 69.054688 221.089844 68.949219 222.5625 68.878906 224.035156 C 68.8125 225.507812 68.777344 226.984375 68.78125 228.460938 Z M 68.78125 228.460938 " clip-rule="nonzero"/></clipPath><linearGradient x1="-4011.400902" gradientTransform="matrix(0.558619, 0.00116711, 0.00116711, 0.558619, 2305.767749, -1788.501677)" y1="3456.605089" x2="-3758.998051" gradientUnits="userSpaceOnUse" y2="3737.05177" id="ba2a28f327"><stop stop-opacity="1" stop-color="rgb(63.09967%, 0%, 92.89856%)" offset="0"/><stop stop-opacity="1" stop-color="rgb(63.09967%, 0%, 92.89856%)" offset="0.25"/><stop stop-opacity="1" stop-color="rgb(63.09967%, 0%, 92.89856%)" offset="0.363194"/><stop stop-opacity="1" stop-color="rgb(63.09967%, 0%, 92.89856%)" offset="0.375"/><stop stop-opacity="1" stop-color="rgb(63.09967%, 0%, 92.89856%)" offset="0.4375"/><stop stop-opacity="1" stop-color="rgb(62.986755%, 0.038147%, 92.910767%)" offset="0.46875"/><stop stop-opacity="1" stop-color="rgb(61.727905%, 0.4776%, 93.052673%)" offset="0.472656"/><stop stop-opacity="1" stop-color="rgb(60.58197%, 0.87738%, 93.182373%)" offset="0.476562"/><stop stop-opacity="1" stop-color="rgb(59.436035%, 1.277161%, 93.310547%)" offset="0.480469"/><stop stop-opacity="1" stop-color="rgb(58.2901%, 1.676941%, 93.440247%)" offset="0.484375"/><stop stop-opacity="1" stop-color="rgb(57.142639%, 2.075195%, 93.56842%)" offset="0.488281"/><stop stop-opacity="1" stop-color="rgb(55.996704%, 2.474976%, 93.69812%)" offset="0.492188"/><stop stop-opacity="1" stop-color="rgb(54.849243%, 2.874756%, 93.826294%)" offset="0.496094"/><stop stop-opacity="1" stop-color="rgb(53.703308%, 3.274536%, 93.955994%)" offset="0.5"/><stop stop-opacity="1" stop-color="rgb(52.557373%, 3.674316%, 94.084167%)" offset="0.503906"/><stop stop-opacity="1" stop-color="rgb(51.411438%, 4.074097%, 94.213867%)" offset="0.507813"/><stop stop-opacity="1" stop-color="rgb(50.263977%, 4.473877%, 94.342041%)" offset="0.511719"/><stop stop-opacity="1" stop-color="rgb(49.118042%, 4.873657%, 94.471741%)" offset="0.515625"/><stop stop-opacity="1" stop-color="rgb(47.972107%, 5.273438%, 94.599915%)" offset="0.519531"/><stop stop-opacity="1" stop-color="rgb(46.826172%, 5.673218%, 94.729614%)" offset="0.523438"/><stop stop-opacity="1" stop-color="rgb(45.678711%, 6.072998%, 94.859314%)" offset="0.527344"/><stop stop-opacity="1" stop-color="rgb(44.532776%, 6.472778%, 94.989014%)" offset="0.53125"/><stop stop-opacity="1" stop-color="rgb(43.386841%, 6.872559%, 95.117188%)" offset="0.535156"/><stop stop-opacity="1" stop-color="rgb(42.240906%, 7.272339%, 95.246887%)" offset="0.539063"/><stop stop-opacity="1" stop-color="rgb(41.093445%, 7.670593%, 95.375061%)" offset="0.542969"/><stop stop-opacity="1" stop-color="rgb(39.94751%, 8.070374%, 95.504761%)" offset="0.546875"/><stop stop-opacity="1" stop-color="rgb(38.800049%, 8.470154%, 95.632935%)" offset="0.550781"/><stop stop-opacity="1" stop-color="rgb(37.654114%, 8.869934%, 95.762634%)" offset="0.554688"/><stop stop-opacity="1" stop-color="rgb(36.508179%, 9.269714%, 95.890808%)" offset="0.558594"/><stop stop-opacity="1" stop-color="rgb(35.362244%, 9.669495%, 96.020508%)" offset="0.5625"/><stop stop-opacity="1" stop-color="rgb(34.214783%, 10.069275%, 96.148682%)" offset="0.566406"/><stop stop-opacity="1" stop-color="rgb(33.068848%, 10.469055%, 96.278381%)" offset="0.570312"/><stop stop-opacity="1" stop-color="rgb(31.922913%, 10.868835%, 96.406555%)" offset="0.574219"/><stop stop-opacity="1" stop-color="rgb(30.776978%, 11.268616%, 96.536255%)" offset="0.578125"/><stop stop-opacity="1" stop-color="rgb(29.629517%, 11.668396%, 96.664429%)" offset="0.582031"/><stop stop-opacity="1" stop-color="rgb(28.483582%, 12.068176%, 96.794128%)" offset="0.585938"/><stop stop-opacity="1" stop-color="rgb(27.337646%, 12.467957%, 96.922302%)" offset="0.589844"/><stop stop-opacity="1" stop-color="rgb(26.191711%, 12.867737%, 97.052002%)" offset="0.59375"/><stop stop-opacity="1" stop-color="rgb(25.04425%, 13.267517%, 97.180176%)" offset="0.597656"/><stop stop-opacity="1" stop-color="rgb(23.898315%, 13.667297%, 97.309875%)" offset="0.601563"/><stop stop-opacity="1" stop-color="rgb(22.75238%, 14.065552%, 97.438049%)" offset="0.605469"/><stop stop-opacity="1" stop-color="rgb(21.606445%, 14.465332%, 97.567749%)" offset="0.609375"/><stop stop-opacity="1" stop-color="rgb(20.458984%, 14.865112%, 97.695923%)" offset="0.613281"/><stop stop-opacity="1" stop-color="rgb(19.313049%, 15.264893%, 97.825623%)" offset="0.617188"/><stop stop-opacity="1" stop-color="rgb(18.165588%, 15.664673%, 97.953796%)" offset="0.621094"/><stop stop-opacity="1" stop-color="rgb(17.019653%, 16.064453%, 98.083496%)" offset="0.625"/><stop stop-opacity="1" stop-color="rgb(15.873718%, 16.464233%, 98.21167%)" offset="0.628906"/><stop stop-opacity="1" stop-color="rgb(14.727783%, 16.864014%, 98.34137%)" offset="0.632812"/><stop stop-opacity="1" stop-color="rgb(13.580322%, 17.263794%, 98.469543%)" offset="0.636719"/><stop stop-opacity="1" stop-color="rgb(12.434387%, 17.663574%, 98.599243%)" offset="0.640625"/><stop stop-opacity="1" stop-color="rgb(11.288452%, 18.063354%, 98.728943%)" offset="0.644531"/><stop stop-opacity="1" stop-color="rgb(10.142517%, 18.463135%, 98.858643%)" offset="0.648438"/><stop stop-opacity="1" stop-color="rgb(8.995056%, 18.862915%, 98.986816%)" offset="0.652344"/><stop stop-opacity="1" stop-color="rgb(7.849121%, 19.262695%, 99.116516%)" offset="0.65625"/><stop stop-opacity="1" stop-color="rgb(6.703186%, 19.662476%, 99.24469%)" offset="0.660156"/><stop stop-opacity="1" stop-color="rgb(5.557251%, 20.062256%, 99.37439%)" offset="0.664062"/><stop stop-opacity="1" stop-color="rgb(4.40979%, 20.46051%, 99.502563%)" offset="0.667969"/><stop stop-opacity="1" stop-color="rgb(3.263855%, 20.860291%, 99.632263%)" offset="0.671875"/><stop stop-opacity="1" stop-color="rgb(2.116394%, 21.260071%, 99.760437%)" offset="0.675781"/><stop stop-opacity="1" stop-color="rgb(0.970459%, 21.659851%, 99.890137%)" offset="0.679688"/><stop stop-opacity="1" stop-color="rgb(0.485229%, 21.829224%, 99.945068%)" offset="0.683594"/><stop stop-opacity="1" stop-color="rgb(0%, 21.998596%, 100%)" offset="0.6875"/><stop stop-opacity="1" stop-color="rgb(0%, 21.998596%, 100%)" offset="0.75"/><stop stop-opacity="1" stop-color="rgb(0%, 21.998596%, 100%)" offset="1"/></linearGradient><clipPath id="6735f8433c"><path d="M 244 138 L 340 138 L 340 207 L 244 207 Z M 244 138 " clip-rule="nonzero"/></clipPath><clipPath id="b5c79e30ec"><path d="M 279.925781 242.101562 L 210.191406 172.371094 L 276.132812 106.429688 L 345.867188 176.160156 Z M 279.925781 242.101562 " clip-rule="nonzero"/></clipPath><clipPath id="146b8d1853"><path d="M 279.925781 242.101562 L 210.191406 172.371094 L 276.132812 106.429688 L 345.867188 176.160156 Z M 279.925781 242.101562 " clip-rule="nonzero"/></clipPath><clipPath id="0719be791f"><path d="M 295.273438 180.871094 L 244.199219 180.925781 L 244.203125 185.167969 L 295.269531 185.109375 Z M 244.191406 142.714844 L 280.035156 142.675781 L 280.039062 138.433594 L 244.191406 138.476562 Z M 244.214844 153.3125 L 304.757812 153.25 L 304.761719 149.007812 L 244.210938 149.070312 Z M 244.210938 202.152344 L 244.210938 206.390625 L 312.691406 206.320312 L 312.714844 202.09375 Z M 244.191406 195.796875 L 326.21875 195.703125 L 326.21875 191.464844 L 244.207031 191.539062 Z M 244.183594 163.953125 L 322.960938 163.855469 L 322.964844 159.621094 L 244.199219 159.699219 Z M 244.203125 174.550781 L 339.910156 174.453125 L 339.917969 170.214844 L 244.203125 170.3125 Z M 244.203125 174.550781 " clip-rule="nonzero"/></clipPath><linearGradient x1="-3630.199393" gradientTransform="matrix(0.559628, -0.000575326, -0.000575326, 0.559628, 2277.56045, -1629.155081)" y1="3215.53" x2="-3459.001578" gradientUnits="userSpaceOnUse" y2="3215.53" id="1791cd05dd"><stop stop-opacity="1" stop-color="rgb(54.899597%, 0%, 92.89856%)" offset="0"/><stop stop-opacity="1" stop-color="rgb(55.038452%, 0.344849%, 92.875671%)" offset="0.00390625"/><stop stop-opacity="1" stop-color="rgb(55.177307%, 0.691223%, 92.854309%)" offset="0.0078125"/><stop stop-opacity="1" stop-color="rgb(55.317688%, 1.042175%, 92.831421%)" offset="0.0117188"/><stop stop-opacity="1" stop-color="rgb(55.459595%, 1.393127%, 92.808533%)" offset="0.015625"/><stop stop-opacity="1" stop-color="rgb(55.599976%, 1.74408%, 92.785645%)" offset="0.0195312"/><stop stop-opacity="1" stop-color="rgb(55.741882%, 2.095032%, 92.764282%)" offset="0.0234375"/><stop stop-opacity="1" stop-color="rgb(55.882263%, 2.445984%, 92.741394%)" offset="0.0273438"/><stop stop-opacity="1" stop-color="rgb(56.02417%, 2.796936%, 92.718506%)" offset="0.03125"/><stop stop-opacity="1" stop-color="rgb(56.164551%, 3.147888%, 92.695618%)" offset="0.0351562"/><stop stop-opacity="1" stop-color="rgb(56.306458%, 3.49884%, 92.672729%)" offset="0.0390625"/><stop stop-opacity="1" stop-color="rgb(56.446838%, 3.849792%, 92.649841%)" offset="0.0429688"/><stop stop-opacity="1" stop-color="rgb(56.588745%, 4.200745%, 92.628479%)" offset="0.046875"/><stop stop-opacity="1" stop-color="rgb(56.729126%, 4.551697%, 92.605591%)" offset="0.0507812"/><stop stop-opacity="1" stop-color="rgb(56.871033%, 4.902649%, 92.582703%)" offset="0.0546875"/><stop stop-opacity="1" stop-color="rgb(57.011414%, 5.253601%, 92.559814%)" offset="0.0585938"/><stop stop-opacity="1" stop-color="rgb(57.15332%, 5.604553%, 92.536926%)" offset="0.0625"/><stop stop-opacity="1" stop-color="rgb(57.293701%, 5.955505%, 92.514038%)" offset="0.0664062"/><stop stop-opacity="1" stop-color="rgb(57.435608%, 6.306458%, 92.49115%)" offset="0.0703125"/><stop stop-opacity="1" stop-color="rgb(57.575989%, 6.65741%, 92.468262%)" offset="0.0742187"/><stop stop-opacity="1" stop-color="rgb(57.71637%, 7.008362%, 92.446899%)" offset="0.078125"/><stop stop-opacity="1" stop-color="rgb(57.85675%, 7.359314%, 92.424011%)" offset="0.0820313"/><stop stop-opacity="1" stop-color="rgb(57.998657%, 7.710266%, 92.401123%)" offset="0.0859375"/><stop stop-opacity="1" stop-color="rgb(58.139038%, 8.061218%, 92.378235%)" offset="0.0898438"/><stop stop-opacity="1" stop-color="rgb(58.280945%, 8.41217%, 92.355347%)" offset="0.09375"/><stop stop-opacity="1" stop-color="rgb(58.421326%, 8.763123%, 92.332458%)" offset="0.0976562"/><stop stop-opacity="1" stop-color="rgb(58.563232%, 9.114075%, 92.311096%)" offset="0.101562"/><stop stop-opacity="1" stop-color="rgb(58.703613%, 9.465027%, 92.288208%)" offset="0.105469"/><stop stop-opacity="1" stop-color="rgb(58.84552%, 9.815979%, 92.26532%)" offset="0.109375"/><stop stop-opacity="1" stop-color="rgb(58.985901%, 10.166931%, 92.242432%)" offset="0.113281"/><stop stop-opacity="1" stop-color="rgb(59.127808%, 10.517883%, 92.219543%)" offset="0.117188"/><stop stop-opacity="1" stop-color="rgb(59.268188%, 10.868835%, 92.196655%)" offset="0.121094"/><stop stop-opacity="1" stop-color="rgb(59.410095%, 11.219788%, 92.173767%)" offset="0.125"/><stop stop-opacity="1" stop-color="rgb(59.550476%, 11.57074%, 92.150879%)" offset="0.128906"/><stop stop-opacity="1" stop-color="rgb(59.692383%, 11.921692%, 92.129517%)" offset="0.132812"/><stop stop-opacity="1" stop-color="rgb(59.832764%, 12.272644%, 92.106628%)" offset="0.136719"/><stop stop-opacity="1" stop-color="rgb(59.97467%, 12.625122%, 92.08374%)" offset="0.140625"/><stop stop-opacity="1" stop-color="rgb(60.115051%, 12.976074%, 92.060852%)" offset="0.144531"/><stop stop-opacity="1" stop-color="rgb(60.256958%, 13.327026%, 92.037964%)" offset="0.148437"/><stop stop-opacity="1" stop-color="rgb(60.397339%, 13.677979%, 92.015076%)" offset="0.152344"/><stop stop-opacity="1" stop-color="rgb(60.539246%, 14.028931%, 91.993713%)" offset="0.15625"/><stop stop-opacity="1" stop-color="rgb(60.679626%, 14.379883%, 91.970825%)" offset="0.160156"/><stop stop-opacity="1" stop-color="rgb(60.821533%, 14.730835%, 91.947937%)" offset="0.164063"/><stop stop-opacity="1" stop-color="rgb(60.961914%, 15.081787%, 91.925049%)" offset="0.167969"/><stop stop-opacity="1" stop-color="rgb(61.103821%, 15.432739%, 91.902161%)" offset="0.171875"/><stop stop-opacity="1" stop-color="rgb(61.244202%, 15.783691%, 91.879272%)" offset="0.175781"/><stop stop-opacity="1" stop-color="rgb(61.386108%, 16.134644%, 91.856384%)" offset="0.179688"/><stop stop-opacity="1" stop-color="rgb(61.526489%, 16.485596%, 91.833496%)" offset="0.183594"/><stop stop-opacity="1" stop-color="rgb(61.668396%, 16.836548%, 91.812134%)" offset="0.1875"/><stop stop-opacity="1" stop-color="rgb(61.808777%, 17.1875%, 91.789246%)" offset="0.191406"/><stop stop-opacity="1" stop-color="rgb(61.950684%, 17.538452%, 91.766357%)" offset="0.195312"/><stop stop-opacity="1" stop-color="rgb(62.091064%, 17.889404%, 91.743469%)" offset="0.199219"/><stop stop-opacity="1" stop-color="rgb(62.231445%, 18.240356%, 91.720581%)" offset="0.203125"/><stop stop-opacity="1" stop-color="rgb(62.371826%, 18.591309%, 91.697693%)" offset="0.207031"/><stop stop-opacity="1" stop-color="rgb(62.513733%, 18.942261%, 91.676331%)" offset="0.210937"/><stop stop-opacity="1" stop-color="rgb(62.654114%, 19.293213%, 91.653442%)" offset="0.214844"/><stop stop-opacity="1" stop-color="rgb(62.796021%, 19.644165%, 91.630554%)" offset="0.21875"/><stop stop-opacity="1" stop-color="rgb(62.936401%, 19.995117%, 91.607666%)" offset="0.222656"/><stop stop-opacity="1" stop-color="rgb(63.078308%, 20.346069%, 91.584778%)" offset="0.226563"/><stop stop-opacity="1" stop-color="rgb(63.218689%, 20.697021%, 91.56189%)" offset="0.230469"/><stop stop-opacity="1" stop-color="rgb(63.360596%, 21.047974%, 91.539001%)" offset="0.234375"/><stop stop-opacity="1" stop-color="rgb(63.500977%, 21.398926%, 91.516113%)" offset="0.238281"/><stop stop-opacity="1" stop-color="rgb(63.642883%, 21.749878%, 91.494751%)" offset="0.242188"/><stop stop-opacity="1" stop-color="rgb(63.783264%, 22.10083%, 91.471863%)" offset="0.246094"/><stop stop-opacity="1" stop-color="rgb(63.925171%, 22.451782%, 91.448975%)" offset="0.25"/><stop stop-opacity="1" stop-color="rgb(64.065552%, 22.802734%, 91.426086%)" offset="0.253906"/><stop stop-opacity="1" stop-color="rgb(64.207458%, 23.153687%, 91.403198%)" offset="0.257813"/><stop stop-opacity="1" stop-color="rgb(64.347839%, 23.504639%, 91.38031%)" offset="0.261719"/><stop stop-opacity="1" stop-color="rgb(64.489746%, 23.855591%, 91.358948%)" offset="0.265625"/><stop stop-opacity="1" stop-color="rgb(64.630127%, 24.206543%, 91.33606%)" offset="0.269531"/><stop stop-opacity="1" stop-color="rgb(64.772034%, 24.557495%, 91.313171%)" offset="0.273438"/><stop stop-opacity="1" stop-color="rgb(64.912415%, 24.908447%, 91.290283%)" offset="0.277344"/><stop stop-opacity="1" stop-color="rgb(65.054321%, 25.259399%, 91.267395%)" offset="0.28125"/><stop stop-opacity="1" stop-color="rgb(65.194702%, 25.610352%, 91.244507%)" offset="0.285156"/><stop stop-opacity="1" stop-color="rgb(65.336609%, 25.961304%, 91.221619%)" offset="0.289062"/><stop stop-opacity="1" stop-color="rgb(65.47699%, 26.312256%, 91.19873%)" offset="0.292969"/><stop stop-opacity="1" stop-color="rgb(65.618896%, 26.663208%, 91.177368%)" offset="0.296875"/><stop stop-opacity="1" stop-color="rgb(65.759277%, 27.01416%, 91.15448%)" offset="0.300781"/><stop stop-opacity="1" stop-color="rgb(65.901184%, 27.365112%, 91.131592%)" offset="0.304688"/><stop stop-opacity="1" stop-color="rgb(66.041565%, 27.716064%, 91.108704%)" offset="0.308594"/><stop stop-opacity="1" stop-color="rgb(66.183472%, 28.067017%, 91.085815%)" offset="0.3125"/><stop stop-opacity="1" stop-color="rgb(66.323853%, 28.417969%, 91.062927%)" offset="0.316406"/><stop stop-opacity="1" stop-color="rgb(66.465759%, 28.768921%, 91.041565%)" offset="0.320312"/><stop stop-opacity="1" stop-color="rgb(66.60614%, 29.119873%, 91.018677%)" offset="0.324219"/><stop stop-opacity="1" stop-color="rgb(66.746521%, 29.470825%, 90.995789%)" offset="0.328125"/><stop stop-opacity="1" stop-color="rgb(66.886902%, 29.821777%, 90.9729%)" offset="0.332031"/><stop stop-opacity="1" stop-color="rgb(67.028809%, 30.172729%, 90.950012%)" offset="0.335938"/><stop stop-opacity="1" stop-color="rgb(67.169189%, 30.523682%, 90.927124%)" offset="0.339844"/><stop stop-opacity="1" stop-color="rgb(67.311096%, 30.87616%, 90.905762%)" offset="0.34375"/><stop stop-opacity="1" stop-color="rgb(67.451477%, 31.227112%, 90.882874%)" offset="0.347656"/><stop stop-opacity="1" stop-color="rgb(67.593384%, 31.578064%, 90.859985%)" offset="0.351562"/><stop stop-opacity="1" stop-color="rgb(67.733765%, 31.929016%, 90.837097%)" offset="0.355469"/><stop stop-opacity="1" stop-color="rgb(67.875671%, 32.279968%, 90.814209%)" offset="0.359375"/><stop stop-opacity="1" stop-color="rgb(68.016052%, 32.63092%, 90.791321%)" offset="0.363281"/><stop stop-opacity="1" stop-color="rgb(68.157959%, 32.981873%, 90.768433%)" offset="0.367187"/><stop stop-opacity="1" stop-color="rgb(68.29834%, 33.332825%, 90.745544%)" offset="0.371094"/><stop stop-opacity="1" stop-color="rgb(68.440247%, 33.683777%, 90.724182%)" offset="0.375"/><stop stop-opacity="1" stop-color="rgb(68.580627%, 34.034729%, 90.701294%)" offset="0.378906"/><stop stop-opacity="1" stop-color="rgb(68.722534%, 34.385681%, 90.678406%)" offset="0.382812"/><stop stop-opacity="1" stop-color="rgb(68.862915%, 34.736633%, 90.655518%)" offset="0.386719"/><stop stop-opacity="1" stop-color="rgb(69.004822%, 35.087585%, 90.632629%)" offset="0.390625"/><stop stop-opacity="1" stop-color="rgb(69.145203%, 35.438538%, 90.609741%)" offset="0.394531"/><stop stop-opacity="1" stop-color="rgb(69.287109%, 35.78949%, 90.588379%)" offset="0.398437"/><stop stop-opacity="1" stop-color="rgb(69.42749%, 36.140442%, 90.565491%)" offset="0.402344"/><stop stop-opacity="1" stop-color="rgb(69.569397%, 36.491394%, 90.542603%)" offset="0.40625"/><stop stop-opacity="1" stop-color="rgb(69.709778%, 36.842346%, 90.519714%)" offset="0.410156"/><stop stop-opacity="1" stop-color="rgb(69.851685%, 37.193298%, 90.496826%)" offset="0.414062"/><stop stop-opacity="1" stop-color="rgb(69.992065%, 37.54425%, 90.473938%)" offset="0.417969"/><stop stop-opacity="1" stop-color="rgb(70.133972%, 37.895203%, 90.45105%)" offset="0.421875"/><stop stop-opacity="1" stop-color="rgb(70.274353%, 38.246155%, 90.428162%)" offset="0.425781"/><stop stop-opacity="1" stop-color="rgb(70.41626%, 38.597107%, 90.406799%)" offset="0.429687"/><stop stop-opacity="1" stop-color="rgb(70.556641%, 38.948059%, 90.383911%)" offset="0.433594"/><stop stop-opacity="1" stop-color="rgb(70.698547%, 39.299011%, 90.361023%)" offset="0.4375"/><stop stop-opacity="1" stop-color="rgb(70.838928%, 39.649963%, 90.338135%)" offset="0.441406"/><stop stop-opacity="1" stop-color="rgb(70.980835%, 40.000916%, 90.315247%)" offset="0.445312"/><stop stop-opacity="1" stop-color="rgb(71.121216%, 40.351868%, 90.292358%)" offset="0.449219"/><stop stop-opacity="1" stop-color="rgb(71.261597%, 40.70282%, 90.270996%)" offset="0.453125"/><stop stop-opacity="1" stop-color="rgb(71.401978%, 41.053772%, 90.248108%)" offset="0.457031"/><stop stop-opacity="1" stop-color="rgb(71.543884%, 41.404724%, 90.22522%)" offset="0.460938"/><stop stop-opacity="1" stop-color="rgb(71.684265%, 41.755676%, 90.202332%)" offset="0.464844"/><stop stop-opacity="1" stop-color="rgb(71.826172%, 42.106628%, 90.179443%)" offset="0.46875"/><stop stop-opacity="1" stop-color="rgb(71.966553%, 42.457581%, 90.156555%)" offset="0.472656"/><stop stop-opacity="1" stop-color="rgb(72.108459%, 42.808533%, 90.133667%)" offset="0.476562"/><stop stop-opacity="1" stop-color="rgb(72.24884%, 43.159485%, 90.110779%)" offset="0.480469"/><stop stop-opacity="1" stop-color="rgb(72.390747%, 43.510437%, 90.089417%)" offset="0.484375"/><stop stop-opacity="1" stop-color="rgb(72.531128%, 43.861389%, 90.066528%)" offset="0.488281"/><stop stop-opacity="1" stop-color="rgb(72.673035%, 44.212341%, 90.04364%)" offset="0.492187"/><stop stop-opacity="1" stop-color="rgb(72.813416%, 44.563293%, 90.020752%)" offset="0.496094"/><stop stop-opacity="1" stop-color="rgb(72.955322%, 44.914246%, 89.997864%)" offset="0.5"/><stop stop-opacity="1" stop-color="rgb(73.095703%, 45.265198%, 89.974976%)" offset="0.503906"/><stop stop-opacity="1" stop-color="rgb(73.23761%, 45.61615%, 89.953613%)" offset="0.507812"/><stop stop-opacity="1" stop-color="rgb(73.377991%, 45.967102%, 89.930725%)" offset="0.511719"/><stop stop-opacity="1" stop-color="rgb(73.519897%, 46.318054%, 89.907837%)" offset="0.515625"/><stop stop-opacity="1" stop-color="rgb(73.660278%, 46.669006%, 89.884949%)" offset="0.519531"/><stop stop-opacity="1" stop-color="rgb(73.802185%, 47.019958%, 89.862061%)" offset="0.523437"/><stop stop-opacity="1" stop-color="rgb(73.942566%, 47.370911%, 89.839172%)" offset="0.527344"/><stop stop-opacity="1" stop-color="rgb(74.084473%, 47.721863%, 89.816284%)" offset="0.53125"/><stop stop-opacity="1" stop-color="rgb(74.224854%, 48.072815%, 89.793396%)" offset="0.535156"/><stop stop-opacity="1" stop-color="rgb(74.36676%, 48.425293%, 89.772034%)" offset="0.539062"/><stop stop-opacity="1" stop-color="rgb(74.507141%, 48.776245%, 89.749146%)" offset="0.542969"/><stop stop-opacity="1" stop-color="rgb(74.649048%, 49.127197%, 89.726257%)" offset="0.546875"/><stop stop-opacity="1" stop-color="rgb(74.789429%, 49.478149%, 89.703369%)" offset="0.550781"/><stop stop-opacity="1" stop-color="rgb(74.931335%, 49.829102%, 89.680481%)" offset="0.554687"/><stop stop-opacity="1" stop-color="rgb(75.071716%, 50.180054%, 89.657593%)" offset="0.558594"/><stop stop-opacity="1" stop-color="rgb(75.213623%, 50.531006%, 89.63623%)" offset="0.5625"/><stop stop-opacity="1" stop-color="rgb(75.354004%, 50.881958%, 89.613342%)" offset="0.566406"/><stop stop-opacity="1" stop-color="rgb(75.495911%, 51.23291%, 89.590454%)" offset="0.570312"/><stop stop-opacity="1" stop-color="rgb(75.636292%, 51.583862%, 89.567566%)" offset="0.574219"/><stop stop-opacity="1" stop-color="rgb(75.776672%, 51.934814%, 89.544678%)" offset="0.578125"/><stop stop-opacity="1" stop-color="rgb(75.917053%, 52.285767%, 89.52179%)" offset="0.582031"/><stop stop-opacity="1" stop-color="rgb(76.05896%, 52.636719%, 89.498901%)" offset="0.585937"/><stop stop-opacity="1" stop-color="rgb(76.199341%, 52.987671%, 89.476013%)" offset="0.589844"/><stop stop-opacity="1" stop-color="rgb(76.341248%, 53.338623%, 89.454651%)" offset="0.59375"/><stop stop-opacity="1" stop-color="rgb(76.481628%, 53.689575%, 89.431763%)" offset="0.597656"/><stop stop-opacity="1" stop-color="rgb(76.623535%, 54.040527%, 89.408875%)" offset="0.601562"/><stop stop-opacity="1" stop-color="rgb(76.763916%, 54.391479%, 89.385986%)" offset="0.605469"/><stop stop-opacity="1" stop-color="rgb(76.905823%, 54.742432%, 89.363098%)" offset="0.609375"/><stop stop-opacity="1" stop-color="rgb(77.046204%, 55.093384%, 89.34021%)" offset="0.613281"/><stop stop-opacity="1" stop-color="rgb(77.18811%, 55.444336%, 89.318848%)" offset="0.617187"/><stop stop-opacity="1" stop-color="rgb(77.328491%, 55.795288%, 89.295959%)" offset="0.621094"/><stop stop-opacity="1" stop-color="rgb(77.470398%, 56.14624%, 89.273071%)" offset="0.625"/><stop stop-opacity="1" stop-color="rgb(77.610779%, 56.497192%, 89.250183%)" offset="0.628906"/><stop stop-opacity="1" stop-color="rgb(77.752686%, 56.848145%, 89.227295%)" offset="0.632812"/><stop stop-opacity="1" stop-color="rgb(77.893066%, 57.199097%, 89.204407%)" offset="0.636719"/><stop stop-opacity="1" stop-color="rgb(78.034973%, 57.550049%, 89.181519%)" offset="0.640625"/><stop stop-opacity="1" stop-color="rgb(78.175354%, 57.901001%, 89.15863%)" offset="0.644531"/><stop stop-opacity="1" stop-color="rgb(78.317261%, 58.251953%, 89.137268%)" offset="0.648438"/><stop stop-opacity="1" stop-color="rgb(78.457642%, 58.602905%, 89.11438%)" offset="0.652344"/><stop stop-opacity="1" stop-color="rgb(78.599548%, 58.953857%, 89.091492%)" offset="0.65625"/><stop stop-opacity="1" stop-color="rgb(78.739929%, 59.30481%, 89.068604%)" offset="0.660156"/><stop stop-opacity="1" stop-color="rgb(78.881836%, 59.655762%, 89.045715%)" offset="0.664062"/><stop stop-opacity="1" stop-color="rgb(79.022217%, 60.006714%, 89.022827%)" offset="0.667969"/><stop stop-opacity="1" stop-color="rgb(79.164124%, 60.357666%, 89.001465%)" offset="0.671875"/><stop stop-opacity="1" stop-color="rgb(79.304504%, 60.708618%, 88.978577%)" offset="0.675781"/><stop stop-opacity="1" stop-color="rgb(79.446411%, 61.05957%, 88.955688%)" offset="0.679688"/><stop stop-opacity="1" stop-color="rgb(79.586792%, 61.410522%, 88.9328%)" offset="0.683594"/><stop stop-opacity="1" stop-color="rgb(79.728699%, 61.761475%, 88.909912%)" offset="0.6875"/><stop stop-opacity="1" stop-color="rgb(79.86908%, 62.112427%, 88.887024%)" offset="0.691406"/><stop stop-opacity="1" stop-color="rgb(80.010986%, 62.463379%, 88.864136%)" offset="0.695312"/><stop stop-opacity="1" stop-color="rgb(80.151367%, 62.814331%, 88.841248%)" offset="0.699219"/><stop stop-opacity="1" stop-color="rgb(80.291748%, 63.165283%, 88.819885%)" offset="0.703125"/><stop stop-opacity="1" stop-color="rgb(80.432129%, 63.516235%, 88.796997%)" offset="0.707031"/><stop stop-opacity="1" stop-color="rgb(80.574036%, 63.867188%, 88.774109%)" offset="0.710937"/><stop stop-opacity="1" stop-color="rgb(80.714417%, 64.21814%, 88.751221%)" offset="0.714844"/><stop stop-opacity="1" stop-color="rgb(80.856323%, 64.569092%, 88.728333%)" offset="0.71875"/><stop stop-opacity="1" stop-color="rgb(80.996704%, 64.920044%, 88.705444%)" offset="0.722656"/><stop stop-opacity="1" stop-color="rgb(81.138611%, 65.270996%, 88.684082%)" offset="0.726562"/><stop stop-opacity="1" stop-color="rgb(81.278992%, 65.621948%, 88.661194%)" offset="0.730469"/><stop stop-opacity="1" stop-color="rgb(81.420898%, 65.9729%, 88.638306%)" offset="0.734375"/><stop stop-opacity="1" stop-color="rgb(81.561279%, 66.323853%, 88.615417%)" offset="0.738281"/><stop stop-opacity="1" stop-color="rgb(81.703186%, 66.676331%, 88.592529%)" offset="0.742187"/><stop stop-opacity="1" stop-color="rgb(81.843567%, 67.027283%, 88.569641%)" offset="0.746094"/><stop stop-opacity="1" stop-color="rgb(81.985474%, 67.378235%, 88.546753%)" offset="0.75"/><stop stop-opacity="1" stop-color="rgb(82.125854%, 67.729187%, 88.523865%)" offset="0.753906"/><stop stop-opacity="1" stop-color="rgb(82.267761%, 68.080139%, 88.502502%)" offset="0.757812"/><stop stop-opacity="1" stop-color="rgb(82.408142%, 68.431091%, 88.479614%)" offset="0.761719"/><stop stop-opacity="1" stop-color="rgb(82.550049%, 68.782043%, 88.456726%)" offset="0.765625"/><stop stop-opacity="1" stop-color="rgb(82.69043%, 69.132996%, 88.433838%)" offset="0.769531"/><stop stop-opacity="1" stop-color="rgb(82.832336%, 69.483948%, 88.41095%)" offset="0.773437"/><stop stop-opacity="1" stop-color="rgb(82.972717%, 69.8349%, 88.388062%)" offset="0.777344"/><stop stop-opacity="1" stop-color="rgb(83.114624%, 70.185852%, 88.366699%)" offset="0.78125"/><stop stop-opacity="1" stop-color="rgb(83.255005%, 70.536804%, 88.343811%)" offset="0.785156"/><stop stop-opacity="1" stop-color="rgb(83.396912%, 70.887756%, 88.320923%)" offset="0.789062"/><stop stop-opacity="1" stop-color="rgb(83.537292%, 71.238708%, 88.298035%)" offset="0.792969"/><stop stop-opacity="1" stop-color="rgb(83.679199%, 71.589661%, 88.275146%)" offset="0.796875"/><stop stop-opacity="1" stop-color="rgb(83.81958%, 71.940613%, 88.252258%)" offset="0.800781"/><stop stop-opacity="1" stop-color="rgb(83.961487%, 72.291565%, 88.22937%)" offset="0.804687"/><stop stop-opacity="1" stop-color="rgb(84.101868%, 72.642517%, 88.206482%)" offset="0.808594"/><stop stop-opacity="1" stop-color="rgb(84.243774%, 72.993469%, 88.18512%)" offset="0.8125"/><stop stop-opacity="1" stop-color="rgb(84.384155%, 73.344421%, 88.162231%)" offset="0.816406"/><stop stop-opacity="1" stop-color="rgb(84.526062%, 73.695374%, 88.139343%)" offset="0.820312"/><stop stop-opacity="1" stop-color="rgb(84.666443%, 74.046326%, 88.116455%)" offset="0.824219"/><stop stop-opacity="1" stop-color="rgb(84.806824%, 74.397278%, 88.093567%)" offset="0.828125"/><stop stop-opacity="1" stop-color="rgb(84.947205%, 74.74823%, 88.070679%)" offset="0.832031"/><stop stop-opacity="1" stop-color="rgb(85.089111%, 75.099182%, 88.049316%)" offset="0.835937"/><stop stop-opacity="1" stop-color="rgb(85.229492%, 75.450134%, 88.026428%)" offset="0.839844"/><stop stop-opacity="1" stop-color="rgb(85.371399%, 75.801086%, 88.00354%)" offset="0.84375"/><stop stop-opacity="1" stop-color="rgb(85.51178%, 76.152039%, 87.980652%)" offset="0.847656"/><stop stop-opacity="1" stop-color="rgb(85.653687%, 76.502991%, 87.957764%)" offset="0.851562"/><stop stop-opacity="1" stop-color="rgb(85.794067%, 76.853943%, 87.934875%)" offset="0.855469"/><stop stop-opacity="1" stop-color="rgb(85.935974%, 77.204895%, 87.911987%)" offset="0.859375"/><stop stop-opacity="1" stop-color="rgb(86.076355%, 77.555847%, 87.889099%)" offset="0.863281"/><stop stop-opacity="1" stop-color="rgb(86.218262%, 77.906799%, 87.867737%)" offset="0.867187"/><stop stop-opacity="1" stop-color="rgb(86.358643%, 78.257751%, 87.844849%)" offset="0.871094"/><stop stop-opacity="1" stop-color="rgb(86.500549%, 78.608704%, 87.82196%)" offset="0.875"/><stop stop-opacity="1" stop-color="rgb(86.64093%, 78.959656%, 87.799072%)" offset="0.878906"/><stop stop-opacity="1" stop-color="rgb(86.782837%, 79.310608%, 87.776184%)" offset="0.882812"/><stop stop-opacity="1" stop-color="rgb(86.923218%, 79.66156%, 87.753296%)" offset="0.886719"/><stop stop-opacity="1" stop-color="rgb(87.065125%, 80.012512%, 87.731934%)" offset="0.890625"/><stop stop-opacity="1" stop-color="rgb(87.205505%, 80.363464%, 87.709045%)" offset="0.894531"/><stop stop-opacity="1" stop-color="rgb(87.347412%, 80.714417%, 87.686157%)" offset="0.898438"/><stop stop-opacity="1" stop-color="rgb(87.487793%, 81.065369%, 87.663269%)" offset="0.902344"/><stop stop-opacity="1" stop-color="rgb(87.6297%, 81.416321%, 87.640381%)" offset="0.90625"/><stop stop-opacity="1" stop-color="rgb(87.770081%, 81.767273%, 87.617493%)" offset="0.910156"/><stop stop-opacity="1" stop-color="rgb(87.911987%, 82.118225%, 87.594604%)" offset="0.914062"/><stop stop-opacity="1" stop-color="rgb(88.052368%, 82.469177%, 87.571716%)" offset="0.917969"/><stop stop-opacity="1" stop-color="rgb(88.194275%, 82.820129%, 87.550354%)" offset="0.921875"/><stop stop-opacity="1" stop-color="rgb(88.334656%, 83.171082%, 87.527466%)" offset="0.925781"/><stop stop-opacity="1" stop-color="rgb(88.476562%, 83.522034%, 87.504578%)" offset="0.929688"/><stop stop-opacity="1" stop-color="rgb(88.616943%, 83.872986%, 87.481689%)" offset="0.933594"/><stop stop-opacity="1" stop-color="rgb(88.75885%, 84.225464%, 87.458801%)" offset="0.9375"/><stop stop-opacity="1" stop-color="rgb(88.899231%, 84.576416%, 87.435913%)" offset="0.941406"/><stop stop-opacity="1" stop-color="rgb(89.041138%, 84.927368%, 87.414551%)" offset="0.945312"/><stop stop-opacity="1" stop-color="rgb(89.181519%, 85.27832%, 87.391663%)" offset="0.949219"/><stop stop-opacity="1" stop-color="rgb(89.321899%, 85.629272%, 87.368774%)" offset="0.953125"/><stop stop-opacity="1" stop-color="rgb(89.46228%, 85.980225%, 87.345886%)" offset="0.957031"/><stop stop-opacity="1" stop-color="rgb(89.604187%, 86.331177%, 87.322998%)" offset="0.960937"/><stop stop-opacity="1" stop-color="rgb(89.744568%, 86.682129%, 87.30011%)" offset="0.964844"/><stop stop-opacity="1" stop-color="rgb(89.886475%, 87.033081%, 87.277222%)" offset="0.96875"/><stop stop-opacity="1" stop-color="rgb(90.026855%, 87.384033%, 87.254333%)" offset="0.972656"/><stop stop-opacity="1" stop-color="rgb(90.168762%, 87.734985%, 87.232971%)" offset="0.976562"/><stop stop-opacity="1" stop-color="rgb(90.309143%, 88.085938%, 87.210083%)" offset="0.980469"/><stop stop-opacity="1" stop-color="rgb(90.45105%, 88.43689%, 87.187195%)" offset="0.984375"/><stop stop-opacity="1" stop-color="rgb(90.591431%, 88.787842%, 87.164307%)" offset="0.988281"/><stop stop-opacity="1" stop-color="rgb(90.733337%, 89.138794%, 87.141418%)" offset="0.992187"/><stop stop-opacity="1" stop-color="rgb(90.866089%, 89.468384%, 87.120056%)" offset="0.996094"/><stop stop-opacity="1" stop-color="rgb(90.99884%, 89.7995%, 87.098694%)" offset="1"/></linearGradient><clipPath id="944911c60d"><path d="M 158 37 L 249 37 L 249 319 L 158 319 Z M 158 37 " clip-rule="nonzero"/></clipPath><clipPath id="627dffce86"><path d="M 177.359375 337.492188 L 28.800781 188.929688 L 180.394531 37.335938 L 328.953125 185.898438 Z M 177.359375 337.492188 " clip-rule="nonzero"/></clipPath><clipPath id="95f96eac0d"><path d="M 177.359375 337.492188 L 28.800781 188.929688 L 180.394531 37.335938 L 328.953125 185.898438 Z M 177.359375 337.492188 " clip-rule="nonzero"/></clipPath><clipPath id="7f63888129"><path d="M 158.519531 261.636719 L 158.527344 265.863281 C 159.742188 265.863281 160.953125 265.804688 162.164062 265.6875 C 163.375 265.566406 164.574219 265.390625 165.765625 265.15625 C 166.957031 264.917969 168.136719 264.625 169.296875 264.273438 C 170.460938 263.921875 171.605469 263.511719 172.726562 263.046875 C 173.847656 262.585938 174.945312 262.066406 176.015625 261.496094 C 177.085938 260.921875 178.128906 260.300781 179.136719 259.625 C 180.148438 258.953125 181.121094 258.230469 182.058594 257.460938 C 182.996094 256.691406 183.894531 255.875 184.753906 255.019531 C 185.613281 254.160156 186.425781 253.261719 187.195312 252.324219 C 187.964844 251.382812 188.6875 250.410156 189.363281 249.402344 C 190.035156 248.390625 190.660156 247.351562 191.230469 246.28125 C 191.804688 245.207031 192.320312 244.113281 192.785156 242.988281 C 193.25 241.867188 193.65625 240.726562 194.007812 239.5625 C 194.359375 238.398438 194.65625 237.222656 194.890625 236.03125 C 195.128906 234.839844 195.304688 233.636719 195.421875 232.429688 C 195.542969 231.21875 195.601562 230.003906 195.597656 228.789062 L 195.292969 52.238281 L 191.054688 48 L 191.371094 228.78125 C 191.371094 229.859375 191.320312 230.933594 191.214844 232.007812 C 191.109375 233.078125 190.953125 234.144531 190.746094 235.199219 C 190.535156 236.253906 190.273438 237.296875 189.964844 238.328125 C 189.652344 239.359375 189.289062 240.371094 188.878906 241.367188 C 188.46875 242.359375 188.007812 243.332031 187.503906 244.28125 C 186.996094 245.230469 186.445312 246.152344 185.847656 247.046875 C 185.25 247.941406 184.609375 248.804688 183.925781 249.636719 C 183.246094 250.46875 182.523438 251.265625 181.761719 252.027344 C 181.003906 252.785156 180.207031 253.507812 179.375 254.191406 C 178.542969 254.871094 177.679688 255.511719 176.785156 256.109375 C 175.890625 256.707031 174.96875 257.257812 174.019531 257.765625 C 173.070312 258.273438 172.097656 258.730469 171.101562 259.144531 C 170.109375 259.554688 169.097656 259.914062 168.066406 260.226562 C 167.035156 260.539062 165.992188 260.800781 164.9375 261.007812 C 163.878906 261.21875 162.816406 261.375 161.742188 261.480469 C 160.671875 261.582031 159.597656 261.636719 158.519531 261.636719 Z M 180.777344 228.78125 C 180.777344 229.511719 180.742188 230.238281 180.671875 230.96875 C 180.601562 231.695312 180.496094 232.417969 180.351562 233.132812 C 180.210938 233.851562 180.035156 234.558594 179.824219 235.257812 C 179.609375 235.957031 179.367188 236.644531 179.085938 237.320312 C 178.808594 237.992188 178.496094 238.652344 178.152344 239.296875 C 177.808594 239.941406 177.433594 240.566406 177.027344 241.175781 C 176.625 241.78125 176.1875 242.367188 175.726562 242.933594 C 175.261719 243.496094 174.773438 244.035156 174.257812 244.550781 C 173.742188 245.070312 173.199219 245.558594 172.636719 246.019531 C 172.074219 246.484375 171.488281 246.917969 170.878906 247.324219 C 170.273438 247.730469 169.648438 248.105469 169.003906 248.449219 C 168.359375 248.792969 167.699219 249.101562 167.023438 249.382812 C 166.347656 249.660156 165.660156 249.90625 164.960938 250.117188 C 164.261719 250.328125 163.554688 250.507812 162.839844 250.648438 C 162.121094 250.789062 161.398438 250.898438 160.671875 250.96875 C 159.945312 251.039062 159.214844 251.074219 158.484375 251.074219 L 158.492188 255.300781 C 159.359375 255.300781 160.230469 255.257812 161.09375 255.175781 C 161.957031 255.089844 162.816406 254.964844 163.671875 254.792969 C 164.523438 254.625 165.363281 254.414062 166.195312 254.164062 C 167.027344 253.910156 167.84375 253.621094 168.648438 253.289062 C 169.449219 252.957031 170.234375 252.585938 171 252.175781 C 171.765625 251.765625 172.507812 251.320312 173.230469 250.839844 C 173.953125 250.359375 174.648438 249.839844 175.320312 249.289062 C 175.992188 248.738281 176.636719 248.15625 177.25 247.542969 C 177.863281 246.929688 178.445312 246.289062 178.996094 245.617188 C 179.546875 244.945312 180.0625 244.25 180.542969 243.527344 C 181.027344 242.804688 181.472656 242.0625 181.882812 241.292969 C 182.289062 240.527344 182.660156 239.746094 182.992188 238.941406 C 183.324219 238.140625 183.617188 237.324219 183.867188 236.492188 C 184.121094 235.660156 184.328125 234.816406 184.5 233.964844 C 184.667969 233.113281 184.796875 232.253906 184.878906 231.390625 C 184.964844 230.523438 185.007812 229.65625 185.007812 228.785156 L 184.6875 41.632812 L 180.460938 37.40625 Z M 189.265625 259.53125 C 187.253906 261.554688 185.0625 263.355469 182.691406 264.941406 C 180.324219 266.53125 177.820312 267.867188 175.183594 268.953125 C 172.542969 270.042969 169.824219 270.863281 167.023438 271.410156 C 164.222656 271.957031 161.394531 272.226562 158.535156 272.210938 L 158.542969 276.441406 C 160.105469 276.441406 161.667969 276.367188 163.222656 276.21875 C 164.777344 276.066406 166.320312 275.839844 167.851562 275.539062 C 169.382812 275.234375 170.898438 274.859375 172.390625 274.40625 C 173.886719 273.957031 175.355469 273.433594 176.796875 272.835938 C 178.242188 272.242188 179.652344 271.578125 181.027344 270.84375 C 182.40625 270.109375 183.742188 269.308594 185.039062 268.441406 C 186.339844 267.578125 187.589844 266.648438 188.796875 265.660156 C 190.003906 264.667969 191.15625 263.625 192.261719 262.519531 C 193.363281 261.417969 194.410156 260.261719 195.398438 259.054688 C 196.390625 257.851562 197.316406 256.597656 198.183594 255.300781 C 199.046875 254.003906 199.847656 252.664062 200.582031 251.289062 C 201.316406 249.910156 201.984375 248.5 202.578125 247.058594 C 203.175781 245.617188 203.695312 244.148438 204.148438 242.652344 C 204.597656 241.15625 204.976562 239.644531 205.277344 238.113281 C 205.582031 236.578125 205.808594 235.035156 205.957031 233.480469 C 206.109375 231.925781 206.183594 230.367188 206.179688 228.804688 L 205.886719 62.832031 L 201.652344 58.597656 L 201.949219 228.800781 C 201.960938 231.65625 201.695312 234.488281 201.144531 237.289062 C 200.597656 240.089844 199.777344 242.808594 198.6875 245.449219 C 197.601562 248.085938 196.261719 250.589844 194.675781 252.960938 C 193.089844 255.328125 191.285156 257.519531 189.265625 259.53125 Z M 219.234375 289.5 C 217.253906 291.488281 215.183594 293.375 213.015625 295.160156 C 210.847656 296.945312 208.601562 298.617188 206.269531 300.175781 C 203.933594 301.738281 201.53125 303.179688 199.054688 304.5 C 196.578125 305.824219 194.042969 307.019531 191.449219 308.089844 C 188.855469 309.164062 186.210938 310.101562 183.523438 310.910156 C 180.832031 311.722656 178.109375 312.394531 175.355469 312.933594 C 172.597656 313.476562 169.820312 313.878906 167.023438 314.140625 C 164.226562 314.40625 161.421875 314.53125 158.609375 314.519531 L 158.613281 318.746094 C 160.085938 318.746094 161.558594 318.714844 163.03125 318.644531 C 164.503906 318.574219 165.972656 318.46875 167.4375 318.328125 C 168.902344 318.183594 170.363281 318.007812 171.820312 317.792969 C 173.277344 317.582031 174.730469 317.332031 176.175781 317.046875 C 177.617188 316.761719 179.054688 316.441406 180.484375 316.085938 C 181.914062 315.730469 183.332031 315.339844 184.742188 314.914062 C 186.148438 314.488281 187.546875 314.03125 188.933594 313.535156 C 190.320312 313.042969 191.695312 312.515625 193.054688 311.953125 C 194.414062 311.390625 195.757812 310.796875 197.089844 310.171875 C 198.421875 309.542969 199.734375 308.882812 201.035156 308.191406 C 202.332031 307.496094 203.613281 306.773438 204.875 306.019531 C 206.136719 305.265625 207.378906 304.476562 208.605469 303.660156 C 209.828125 302.84375 211.03125 302 212.210938 301.125 C 213.394531 300.25 214.554688 299.34375 215.691406 298.410156 C 216.828125 297.480469 217.941406 296.519531 219.03125 295.53125 C 220.121094 294.542969 221.1875 293.53125 222.226562 292.488281 C 223.265625 291.449219 224.28125 290.386719 225.265625 289.292969 C 226.253906 288.203125 227.214844 287.089844 228.148438 285.953125 C 229.082031 284.816406 229.984375 283.65625 230.859375 282.476562 C 231.734375 281.292969 232.582031 280.089844 233.398438 278.867188 C 234.214844 277.644531 235 276.402344 235.753906 275.136719 C 236.511719 273.875 237.234375 272.59375 237.925781 271.296875 C 238.617188 270 239.277344 268.683594 239.90625 267.355469 C 240.535156 266.023438 241.128906 264.675781 241.691406 263.316406 C 242.25 261.957031 242.777344 260.582031 243.273438 259.199219 C 243.765625 257.8125 244.226562 256.414062 244.652344 255.003906 C 245.078125 253.59375 245.464844 252.175781 245.820312 250.746094 C 246.175781 249.320312 246.496094 247.882812 246.78125 246.4375 C 247.066406 244.992188 247.316406 243.542969 247.53125 242.085938 C 247.742188 240.628906 247.921875 239.167969 248.0625 237.699219 C 248.203125 236.234375 248.3125 234.765625 248.378906 233.292969 C 248.449219 231.824219 248.484375 230.351562 248.480469 228.878906 L 248.265625 105.210938 L 244.035156 100.980469 L 244.257812 228.875 C 244.269531 231.683594 244.144531 234.488281 243.878906 237.289062 C 243.613281 240.085938 243.210938 242.863281 242.671875 245.621094 C 242.132812 248.375 241.457031 251.097656 240.648438 253.789062 C 239.835938 256.476562 238.898438 259.121094 237.824219 261.714844 C 236.753906 264.308594 235.558594 266.847656 234.234375 269.320312 C 232.914062 271.796875 231.472656 274.203125 229.910156 276.535156 C 228.351562 278.867188 226.675781 281.117188 224.894531 283.28125 C 223.109375 285.449219 221.222656 287.523438 219.234375 289.5 Z M 211.726562 281.996094 C 209.992188 283.738281 208.179688 285.394531 206.28125 286.957031 C 204.382812 288.523438 202.414062 289.988281 200.367188 291.359375 C 198.324219 292.726562 196.21875 293.992188 194.050781 295.152344 C 191.878906 296.3125 189.660156 297.363281 187.386719 298.304688 C 185.113281 299.242188 182.796875 300.070312 180.441406 300.78125 C 178.082031 301.492188 175.699219 302.082031 173.28125 302.558594 C 170.867188 303.035156 168.433594 303.386719 165.980469 303.621094 C 163.53125 303.855469 161.070312 303.96875 158.609375 303.960938 L 158.613281 308.183594 C 159.910156 308.183594 161.210938 308.15625 162.507812 308.09375 C 163.808594 308.03125 165.105469 307.941406 166.398438 307.816406 C 167.691406 307.691406 168.980469 307.53125 170.269531 307.34375 C 171.554688 307.15625 172.832031 306.9375 174.109375 306.683594 C 175.382812 306.433594 176.652344 306.152344 177.914062 305.835938 C 179.171875 305.523438 180.425781 305.179688 181.667969 304.804688 C 182.914062 304.429688 184.144531 304.023438 185.371094 303.585938 C 186.59375 303.152344 187.804688 302.6875 189.003906 302.191406 C 190.207031 301.695312 191.394531 301.171875 192.566406 300.617188 C 193.742188 300.0625 194.902344 299.480469 196.046875 298.871094 C 197.195312 298.257812 198.324219 297.621094 199.4375 296.953125 C 200.550781 296.289062 201.648438 295.59375 202.726562 294.875 C 203.808594 294.152344 204.871094 293.40625 205.914062 292.632812 C 206.957031 291.859375 207.980469 291.0625 208.984375 290.238281 C 209.988281 289.417969 210.96875 288.570312 211.929688 287.699219 C 212.894531 286.828125 213.832031 285.933594 214.75 285.015625 C 215.667969 284.097656 216.5625 283.15625 217.433594 282.195312 C 218.304688 281.234375 219.152344 280.25 219.976562 279.246094 C 220.800781 278.242188 221.597656 277.21875 222.371094 276.175781 C 223.144531 275.132812 223.890625 274.070312 224.609375 272.992188 C 225.332031 271.914062 226.023438 270.816406 226.691406 269.699219 C 227.355469 268.585938 227.996094 267.457031 228.605469 266.3125 C 229.21875 265.164062 229.800781 264.003906 230.355469 262.832031 C 230.90625 261.65625 231.433594 260.46875 231.925781 259.269531 C 232.421875 258.066406 232.886719 256.855469 233.324219 255.632812 C 233.761719 254.410156 234.164062 253.175781 234.539062 251.933594 C 234.914062 250.6875 235.261719 249.4375 235.574219 248.175781 C 235.886719 246.914062 236.171875 245.648438 236.421875 244.371094 C 236.671875 243.097656 236.894531 241.816406 237.082031 240.53125 C 237.269531 239.246094 237.425781 237.957031 237.550781 236.660156 C 237.675781 235.367188 237.769531 234.070312 237.832031 232.773438 C 237.890625 231.476562 237.921875 230.175781 237.917969 228.875 L 237.683594 94.628906 L 233.4375 90.382812 L 233.695312 228.871094 C 233.707031 231.335938 233.59375 233.792969 233.359375 236.246094 C 233.128906 238.699219 232.773438 241.132812 232.300781 243.550781 C 231.824219 245.964844 231.230469 248.351562 230.523438 250.710938 C 229.8125 253.066406 228.984375 255.382812 228.046875 257.65625 C 227.105469 259.929688 226.054688 262.152344 224.894531 264.324219 C 223.734375 266.492188 222.472656 268.601562 221.101562 270.644531 C 219.734375 272.6875 218.265625 274.660156 216.703125 276.558594 C 215.136719 278.457031 213.484375 280.273438 211.738281 282.007812 Z M 204.222656 274.488281 C 201.230469 277.492188 197.972656 280.171875 194.445312 282.53125 C 190.921875 284.886719 187.199219 286.871094 183.277344 288.488281 C 179.355469 290.105469 175.3125 291.320312 171.144531 292.132812 C 166.980469 292.945312 162.773438 293.339844 158.527344 293.320312 L 158.578125 297.589844 C 159.703125 297.59375 160.832031 297.566406 161.957031 297.511719 C 163.082031 297.460938 164.207031 297.378906 165.328125 297.269531 C 166.449219 297.164062 167.566406 297.027344 168.679688 296.863281 C 169.796875 296.699219 170.90625 296.507812 172.011719 296.292969 C 173.117188 296.074219 174.214844 295.828125 175.308594 295.558594 C 176.402344 295.285156 177.488281 294.984375 178.566406 294.660156 C 179.644531 294.335938 180.710938 293.984375 181.773438 293.605469 C 182.832031 293.230469 183.882812 292.824219 184.925781 292.394531 C 185.964844 291.964844 186.996094 291.511719 188.011719 291.03125 C 189.03125 290.550781 190.035156 290.046875 191.027344 289.515625 C 192.023438 288.988281 193 288.433594 193.96875 287.855469 C 194.933594 287.277344 195.882812 286.675781 196.820312 286.050781 C 197.757812 285.429688 198.675781 284.78125 199.582031 284.109375 C 200.484375 283.441406 201.371094 282.75 202.242188 282.035156 C 203.113281 281.320312 203.964844 280.585938 204.796875 279.832031 C 205.632812 279.078125 206.445312 278.300781 207.242188 277.503906 C 208.039062 276.710938 208.8125 275.894531 209.570312 275.0625 C 210.324219 274.226562 211.058594 273.375 211.773438 272.503906 C 212.484375 271.636719 213.175781 270.75 213.847656 269.84375 C 214.515625 268.941406 215.164062 268.019531 215.789062 267.082031 C 216.414062 266.148438 217.015625 265.195312 217.59375 264.230469 C 218.171875 263.265625 218.722656 262.285156 219.253906 261.292969 C 219.78125 260.300781 220.289062 259.292969 220.769531 258.277344 C 221.246094 257.257812 221.703125 256.226562 222.132812 255.1875 C 222.5625 254.148438 222.964844 253.097656 223.34375 252.035156 C 223.71875 250.976562 224.070312 249.90625 224.398438 248.828125 C 224.722656 247.75 225.019531 246.664062 225.292969 245.570312 C 225.566406 244.480469 225.808594 243.378906 226.027344 242.273438 C 226.246094 241.167969 226.4375 240.058594 226.601562 238.945312 C 226.761719 237.832031 226.898438 236.710938 227.007812 235.589844 C 227.117188 234.46875 227.195312 233.34375 227.25 232.21875 C 227.304688 231.09375 227.328125 229.96875 227.328125 228.839844 L 227.078125 84.023438 L 222.84375 79.789062 L 223.101562 228.859375 C 223.121094 233.105469 222.722656 237.308594 221.90625 241.472656 C 221.089844 245.632812 219.871094 249.671875 218.253906 253.59375 C 216.636719 257.511719 214.648438 261.230469 212.289062 264.75 C 209.933594 268.273438 207.253906 271.527344 204.25 274.515625 Z M 158.554688 282.789062 L 158.5625 287.015625 C 160.46875 287.015625 162.375 286.925781 164.273438 286.738281 C 166.167969 286.550781 168.054688 286.273438 169.925781 285.902344 C 171.792969 285.53125 173.640625 285.070312 175.464844 284.519531 C 177.289062 283.964844 179.082031 283.324219 180.84375 282.597656 C 182.605469 281.867188 184.324219 281.054688 186.003906 280.160156 C 187.6875 279.261719 189.316406 278.285156 190.902344 277.226562 C 192.488281 276.167969 194.015625 275.035156 195.488281 273.828125 C 196.960938 272.621094 198.371094 271.34375 199.714844 269.996094 C 201.0625 268.648438 202.339844 267.238281 203.546875 265.765625 C 204.757812 264.292969 205.890625 262.765625 206.945312 261.183594 C 208.003906 259.597656 208.980469 257.964844 209.878906 256.285156 C 210.777344 254.605469 211.589844 252.882812 212.316406 251.121094 C 213.046875 249.363281 213.6875 247.570312 214.238281 245.746094 C 214.792969 243.921875 215.253906 242.074219 215.625 240.203125 C 215.996094 238.332031 216.273438 236.449219 216.460938 234.550781 C 216.644531 232.652344 216.738281 230.75 216.738281 228.84375 L 216.46875 73.460938 L 212.230469 69.222656 L 212.527344 228.820312 C 212.527344 230.589844 212.441406 232.355469 212.273438 234.117188 C 212.101562 235.878906 211.84375 237.625 211.5 239.363281 C 211.15625 241.097656 210.730469 242.8125 210.21875 244.503906 C 209.707031 246.199219 209.113281 247.863281 208.4375 249.496094 C 207.761719 251.128906 207.007812 252.726562 206.175781 254.285156 C 205.34375 255.847656 204.4375 257.363281 203.457031 258.832031 C 202.472656 260.300781 201.421875 261.71875 200.304688 263.085938 C 199.183594 264.453125 197.996094 265.761719 196.746094 267.011719 C 195.496094 268.261719 194.1875 269.445312 192.824219 270.566406 C 191.457031 271.6875 190.039062 272.738281 188.566406 273.71875 C 187.097656 274.699219 185.582031 275.605469 184.023438 276.441406 C 182.464844 277.273438 180.867188 278.027344 179.234375 278.699219 C 177.597656 279.375 175.933594 279.96875 174.242188 280.480469 C 172.546875 280.992188 170.835938 281.417969 169.097656 281.761719 C 167.363281 282.105469 165.613281 282.363281 163.851562 282.535156 C 162.089844 282.707031 160.324219 282.792969 158.554688 282.789062 Z M 158.554688 282.789062 " clip-rule="nonzero"/></clipPath><linearGradient x1="-50.369715" gradientTransform="matrix(-0.39506, -0.39506, 0.393685, -0.393685, 177.2926, 337.422723)" y1="-13.393271" x2="370.389382" gradientUnits="userSpaceOnUse" y2="498.670301" id="0bb53f5937"><stop stop-opacity="1" stop-color="rgb(0%, 18.798828%, 100%)" offset="0"/><stop stop-opacity="1" stop-color="rgb(0%, 18.798828%, 100%)" offset="0.25"/><stop stop-opacity="1" stop-color="rgb(0%, 18.798828%, 100%)" offset="0.3125"/><stop stop-opacity="1" stop-color="rgb(0%, 18.798828%, 100%)" offset="0.320312"/><stop stop-opacity="1" stop-color="rgb(0%, 19.128418%, 100%)" offset="0.324219"/><stop stop-opacity="1" stop-color="rgb(0%, 19.458008%, 100%)" offset="0.328125"/><stop stop-opacity="1" stop-color="rgb(0%, 20.00885%, 100%)" offset="0.332031"/><stop stop-opacity="1" stop-color="rgb(0%, 20.559692%, 100%)" offset="0.335938"/><stop stop-opacity="1" stop-color="rgb(0%, 21.110535%, 100%)" offset="0.339844"/><stop stop-opacity="1" stop-color="rgb(0%, 21.662903%, 100%)" offset="0.34375"/><stop stop-opacity="1" stop-color="rgb(0%, 22.213745%, 100%)" offset="0.347656"/><stop stop-opacity="1" stop-color="rgb(0%, 22.764587%, 100%)" offset="0.351562"/><stop stop-opacity="1" stop-color="rgb(0%, 23.31543%, 100%)" offset="0.355469"/><stop stop-opacity="1" stop-color="rgb(0%, 23.867798%, 100%)" offset="0.359375"/><stop stop-opacity="1" stop-color="rgb(0%, 24.41864%, 100%)" offset="0.363281"/><stop stop-opacity="1" stop-color="rgb(0%, 24.969482%, 100%)" offset="0.367188"/><stop stop-opacity="1" stop-color="rgb(0%, 25.520325%, 100%)" offset="0.371094"/><stop stop-opacity="1" stop-color="rgb(0%, 26.072693%, 100%)" offset="0.375"/><stop stop-opacity="1" stop-color="rgb(0%, 26.623535%, 100%)" offset="0.378906"/><stop stop-opacity="1" stop-color="rgb(0%, 27.175903%, 100%)" offset="0.382812"/><stop stop-opacity="1" stop-color="rgb(0%, 27.726746%, 100%)" offset="0.386719"/><stop stop-opacity="1" stop-color="rgb(0%, 28.277588%, 100%)" offset="0.390625"/><stop stop-opacity="1" stop-color="rgb(0%, 28.82843%, 100%)" offset="0.394531"/><stop stop-opacity="1" stop-color="rgb(0%, 29.380798%, 100%)" offset="0.398438"/><stop stop-opacity="1" stop-color="rgb(0%, 29.931641%, 100%)" offset="0.402344"/><stop stop-opacity="1" stop-color="rgb(0%, 30.482483%, 100%)" offset="0.40625"/><stop stop-opacity="1" stop-color="rgb(0%, 31.033325%, 100%)" offset="0.410156"/><stop stop-opacity="1" stop-color="rgb(0%, 31.585693%, 100%)" offset="0.414062"/><stop stop-opacity="1" stop-color="rgb(0%, 32.136536%, 100%)" offset="0.417969"/><stop stop-opacity="1" stop-color="rgb(0%, 32.688904%, 100%)" offset="0.421875"/><stop stop-opacity="1" stop-color="rgb(0%, 33.239746%, 100%)" offset="0.425781"/><stop stop-opacity="1" stop-color="rgb(0%, 33.790588%, 100%)" offset="0.429687"/><stop stop-opacity="1" stop-color="rgb(0%, 34.341431%, 100%)" offset="0.433594"/><stop stop-opacity="1" stop-color="rgb(0%, 34.893799%, 100%)" offset="0.4375"/><stop stop-opacity="1" stop-color="rgb(0%, 35.444641%, 100%)" offset="0.441406"/><stop stop-opacity="1" stop-color="rgb(0%, 35.995483%, 100%)" offset="0.445312"/><stop stop-opacity="1" stop-color="rgb(0%, 36.546326%, 100%)" offset="0.449219"/><stop stop-opacity="1" stop-color="rgb(0%, 37.098694%, 100%)" offset="0.453125"/><stop stop-opacity="1" stop-color="rgb(0%, 37.649536%, 100%)" offset="0.457031"/><stop stop-opacity="1" stop-color="rgb(0%, 38.201904%, 100%)" offset="0.460937"/><stop stop-opacity="1" stop-color="rgb(0%, 38.752747%, 100%)" offset="0.464844"/><stop stop-opacity="1" stop-color="rgb(0%, 39.303589%, 100%)" offset="0.46875"/><stop stop-opacity="1" stop-color="rgb(0%, 39.854431%, 100%)" offset="0.472656"/><stop stop-opacity="1" stop-color="rgb(0%, 40.406799%, 100%)" offset="0.476562"/><stop stop-opacity="1" stop-color="rgb(0%, 40.957642%, 100%)" offset="0.480469"/><stop stop-opacity="1" stop-color="rgb(0%, 41.508484%, 100%)" offset="0.484375"/><stop stop-opacity="1" stop-color="rgb(0%, 42.059326%, 100%)" offset="0.488281"/><stop stop-opacity="1" stop-color="rgb(0%, 42.611694%, 100%)" offset="0.492188"/><stop stop-opacity="1" stop-color="rgb(0%, 43.162537%, 100%)" offset="0.496094"/><stop stop-opacity="1" stop-color="rgb(0%, 43.714905%, 100%)" offset="0.5"/><stop stop-opacity="1" stop-color="rgb(0%, 44.265747%, 100%)" offset="0.503906"/><stop stop-opacity="1" stop-color="rgb(0%, 44.816589%, 100%)" offset="0.507812"/><stop stop-opacity="1" stop-color="rgb(0%, 45.367432%, 100%)" offset="0.511719"/><stop stop-opacity="1" stop-color="rgb(0%, 45.9198%, 100%)" offset="0.515625"/><stop stop-opacity="1" stop-color="rgb(0%, 46.470642%, 100%)" offset="0.519531"/><stop stop-opacity="1" stop-color="rgb(0%, 47.021484%, 100%)" offset="0.523438"/><stop stop-opacity="1" stop-color="rgb(0%, 47.572327%, 100%)" offset="0.527344"/><stop stop-opacity="1" stop-color="rgb(0%, 48.124695%, 100%)" offset="0.53125"/><stop stop-opacity="1" stop-color="rgb(0%, 48.675537%, 100%)" offset="0.535156"/><stop stop-opacity="1" stop-color="rgb(0%, 49.227905%, 100%)" offset="0.539062"/><stop stop-opacity="1" stop-color="rgb(0%, 49.778748%, 100%)" offset="0.542969"/><stop stop-opacity="1" stop-color="rgb(0%, 50.32959%, 100%)" offset="0.546875"/><stop stop-opacity="1" stop-color="rgb(0%, 50.880432%, 100%)" offset="0.550781"/><stop stop-opacity="1" stop-color="rgb(0%, 51.4328%, 100%)" offset="0.554688"/><stop stop-opacity="1" stop-color="rgb(0%, 51.983643%, 100%)" offset="0.558594"/><stop stop-opacity="1" stop-color="rgb(0%, 52.534485%, 100%)" offset="0.5625"/><stop stop-opacity="1" stop-color="rgb(0%, 53.085327%, 100%)" offset="0.566406"/><stop stop-opacity="1" stop-color="rgb(0%, 53.637695%, 100%)" offset="0.570312"/><stop stop-opacity="1" stop-color="rgb(0%, 54.188538%, 100%)" offset="0.574219"/><stop stop-opacity="1" stop-color="rgb(0%, 54.740906%, 100%)" offset="0.578125"/><stop stop-opacity="1" stop-color="rgb(0%, 55.291748%, 100%)" offset="0.582031"/><stop stop-opacity="1" stop-color="rgb(0%, 55.84259%, 100%)" offset="0.585938"/><stop stop-opacity="1" stop-color="rgb(0%, 56.393433%, 100%)" offset="0.589844"/><stop stop-opacity="1" stop-color="rgb(0%, 56.945801%, 100%)" offset="0.59375"/><stop stop-opacity="1" stop-color="rgb(0%, 57.496643%, 100%)" offset="0.597656"/><stop stop-opacity="1" stop-color="rgb(0%, 58.047485%, 100%)" offset="0.601562"/><stop stop-opacity="1" stop-color="rgb(0%, 58.598328%, 100%)" offset="0.605469"/><stop stop-opacity="1" stop-color="rgb(0%, 59.150696%, 100%)" offset="0.609375"/><stop stop-opacity="1" stop-color="rgb(0%, 59.701538%, 100%)" offset="0.613281"/><stop stop-opacity="1" stop-color="rgb(0%, 60.25238%, 100%)" offset="0.617188"/><stop stop-opacity="1" stop-color="rgb(0%, 60.803223%, 100%)" offset="0.621094"/><stop stop-opacity="1" stop-color="rgb(0%, 61.355591%, 100%)" offset="0.625"/><stop stop-opacity="1" stop-color="rgb(0%, 61.906433%, 100%)" offset="0.628906"/><stop stop-opacity="1" stop-color="rgb(0%, 62.458801%, 100%)" offset="0.632812"/><stop stop-opacity="1" stop-color="rgb(0%, 63.009644%, 100%)" offset="0.636719"/><stop stop-opacity="1" stop-color="rgb(0%, 63.560486%, 100%)" offset="0.640625"/><stop stop-opacity="1" stop-color="rgb(0%, 64.111328%, 100%)" offset="0.644531"/><stop stop-opacity="1" stop-color="rgb(0%, 64.663696%, 100%)" offset="0.648437"/><stop stop-opacity="1" stop-color="rgb(0%, 65.214539%, 100%)" offset="0.652344"/><stop stop-opacity="1" stop-color="rgb(0%, 65.765381%, 100%)" offset="0.65625"/><stop stop-opacity="1" stop-color="rgb(0%, 66.316223%, 100%)" offset="0.660156"/><stop stop-opacity="1" stop-color="rgb(0%, 66.868591%, 100%)" offset="0.664062"/><stop stop-opacity="1" stop-color="rgb(0%, 67.419434%, 100%)" offset="0.667969"/><stop stop-opacity="1" stop-color="rgb(0%, 67.971802%, 100%)" offset="0.671875"/><stop stop-opacity="1" stop-color="rgb(0%, 68.522644%, 100%)" offset="0.675781"/><stop stop-opacity="1" stop-color="rgb(0%, 69.073486%, 100%)" offset="0.679688"/><stop stop-opacity="1" stop-color="rgb(0%, 69.624329%, 100%)" offset="0.683594"/><stop stop-opacity="1" stop-color="rgb(0%, 70.176697%, 100%)" offset="0.6875"/><stop stop-opacity="1" stop-color="rgb(0%, 70.727539%, 100%)" offset="0.691406"/><stop stop-opacity="1" stop-color="rgb(0%, 71.278381%, 100%)" offset="0.695312"/><stop stop-opacity="1" stop-color="rgb(0%, 71.829224%, 100%)" offset="0.699219"/><stop stop-opacity="1" stop-color="rgb(0%, 72.381592%, 100%)" offset="0.703125"/><stop stop-opacity="1" stop-color="rgb(0%, 72.932434%, 100%)" offset="0.707031"/><stop stop-opacity="1" stop-color="rgb(0%, 73.484802%, 100%)" offset="0.710938"/><stop stop-opacity="1" stop-color="rgb(0%, 74.035645%, 100%)" offset="0.714844"/><stop stop-opacity="1" stop-color="rgb(0%, 74.586487%, 100%)" offset="0.71875"/><stop stop-opacity="1" stop-color="rgb(0%, 75.137329%, 100%)" offset="0.722656"/><stop stop-opacity="1" stop-color="rgb(0%, 75.689697%, 100%)" offset="0.726562"/><stop stop-opacity="1" stop-color="rgb(0%, 75.894165%, 100%)" offset="0.730469"/><stop stop-opacity="1" stop-color="rgb(0%, 76.098633%, 100%)" offset="0.734375"/><stop stop-opacity="1" stop-color="rgb(0%, 76.098633%, 100%)" offset="0.75"/><stop stop-opacity="1" stop-color="rgb(0%, 76.098633%, 100%)" offset="1"/></linearGradient></defs><g clip-path="url(#0bbdb65b19)"><g clip-path="url(#8643cb39fe)"><g clip-path="url(#bc524ee147)"><g clip-path="url(#002324d8b8)"><path fill="url(#ba2a28f327)" d="M 68.402344 138.242188 L 68.777344 318.816406 L 183.207031 319.054688 L 182.832031 138.480469 Z M 68.402344 138.242188 " fill-rule="nonzero"/></g></g></g></g><g clip-path="url(#6735f8433c)"><g clip-path="url(#b5c79e30ec)"><g clip-path="url(#146b8d1853)"><g clip-path="url(#0719be791f)"><path fill="url(#1791cd05dd)" d="M 244.183594 138.433594 L 244.113281 206.488281 L 339.917969 206.390625 L 339.988281 138.335938 Z M 244.183594 138.433594 " fill-rule="nonzero"/></g></g></g></g><g clip-path="url(#944911c60d)"><g clip-path="url(#627dffce86)"><g clip-path="url(#95f96eac0d)"><g clip-path="url(#7f63888129)"><path fill="url(#0bb53f5937)" d="M 203.484375 363.746094 L 389.152344 178.078125 L 203.484375 -7.59375 L 17.8125 178.078125 Z M 203.484375 363.746094 " fill-rule="nonzero"/></g></g></g></g></svg>